<svg xmlns="http://www.w3.org/2000/svg" width="18" height="18" viewBox="0 0 18 18"><path d="M.93,18.182a.818.818,0,0,0,1.636,0A7.31,7.31,0,0,1,6.819,11.53a5.693,5.693,0,0,0,6.23-.006,7.466,7.466,0,0,1,2.087,1.452,7.316,7.316,0,0,1,2.157,5.206.818.818,0,0,0,1.636,0,8.941,8.941,0,0,0-2.637-6.363,9.06,9.06,0,0,0-1.94-1.46A5.728,5.728,0,1,0,5.5,10.352,8.946,8.946,0,0,0,.93,18.182Zm9-15.545A4.091,4.091,0,1,1,5.838,6.727,4.1,4.1,0,0,1,9.929,2.636Z" transform="translate(-0.93 -1)" fill="#a8a8a8"/></svg>