<svg id="back" xmlns="http://www.w3.org/2000/svg" width="19.221" height="15" viewBox="0 0 19.221 15">
  <path id="Path_60329" data-name="Path 60329" d="M158.133,238.593H143.756a1.3,1.3,0,0,1,0-2.593h14.377a1.3,1.3,0,0,1,0,2.593Z" transform="translate(-140.209 -229.796)" fill="#fff"/>
  <path id="Path_60330" data-name="Path 60330" d="M114.825,155.3a1.292,1.292,0,0,1-.918-.379l-5.51-5.51a2.281,2.281,0,0,1,0-3.221l5.51-5.51a1.3,1.3,0,0,1,1.833,1.834l-5.285,5.287,5.286,5.287a1.3,1.3,0,0,1-.917,2.213Z" transform="translate(-107.732 -140.305)" fill="#fff"/>
</svg>
