<svg xmlns="http://www.w3.org/2000/svg" xmlns:xlink="http://www.w3.org/1999/xlink" width="70" height="70" viewBox="0 0 70 70"><defs><clipPath id="a"><path d="M0,0H25A14,14,0,0,1,39,14V40a0,0,0,0,1,0,0H0a0,0,0,0,1,0,0V0A0,0,0,0,1,0,0Z" transform="translate(497 492)" fill="#16cb88"/></clipPath></defs><g transform="translate(-466 -492)"><rect width="70" height="70" rx="14" transform="translate(466 492)" fill="#14cb88"/><path d="M0,0H31a0,0,0,0,1,0,0V25a0,0,0,0,1,0,0H14A14,14,0,0,1,0,11V0A0,0,0,0,1,0,0Z" transform="translate(466 537)" fill="#2dea8f"/><g clip-path="url(#a)"><circle cx="23" cy="23" r="23" transform="translate(497 481)" fill="#2dea8e"/></g></g></svg>