<svg xmlns="http://www.w3.org/2000/svg" width="18.575" height="18.575" viewBox="0 0 18.575 18.575"><g transform="translate(-0.51 -0.505)"><path d="M18.077,1h-3.6s-1.261,1.27-2.163,2.172c-1.267,1.27-3.017-.3-6.232,2.921s-1.648,4.97-2.918,6.241c-.9.9-2.169,2.148-2.169,2.148v5.093H6.093s1.261-1.27,2.163-2.172c1.267-1.27,3.017.3,6.232-2.921s1.648-4.97,2.918-6.241c.9-.9,2.169-2.148,2.169-2.148V1Z" transform="translate(-0.49 -0.495)" fill="#fcb8ae"/><path d="M15.585,14.4a5.014,5.014,0,0,0-1.311,5.128,7.735,7.735,0,0,0,.629,1.18,5.406,5.406,0,0,0,.783,1.078,4.1,4.1,0,0,0,3.063.951A4.969,4.969,0,0,0,21.329,22a6.462,6.462,0,0,0,1.558-1.649,15.023,15.023,0,0,0,1.893-3.274,4.173,4.173,0,0,0,.318-2.462,4.118,4.118,0,0,0-.5-1.138c-.895-1.5-2.5-2.665-4.233-1.788-1.667.84-3.435,1.325-4.778,2.712Z" transform="translate(-9.601 -7.771)" fill="#fc8f90"/><path d="M21.348,19.468a2.966,2.966,0,0,0-.829.962,2.82,2.82,0,0,0-.219,1.1,2.207,2.207,0,0,0,.256,1.305,2.123,2.123,0,0,0,.527.518,3.722,3.722,0,0,0,1.746.772,3.387,3.387,0,0,0,2.637-.989,7.634,7.634,0,0,0,1.6-2.407,10.09,10.09,0,0,0,.636-1.678,2.468,2.468,0,0,0,.1-.9,1.1,1.1,0,0,0-.423-.782c-.779-.55-2.194-.007-2.96.293a11.115,11.115,0,0,0-3.069,1.812Z" transform="translate(-13.999 -11.79)" fill="#fb6769"/><path d="M8.208,41.507a.809.809,0,0,0,.093.084l0,0c-1.6,0-1.849.4-2.34.9L2.5,45.959H1v-1.5l3.484-3.445c.491-.491.9-.737.9-2.343l0,0c.027.03.054.06.084.09a2.858,2.858,0,0,0,1.92.968A2.258,2.258,0,0,0,8.208,41.507Z" transform="translate(-0.49 -26.879)" fill="#fffaed"/><path d="M18.233,41.507a2.258,2.258,0,0,1-.821-1.78,2.858,2.858,0,0,1-1.92-.968c-.03-.03-.057-.06-.084-.09l0,0a5.217,5.217,0,0,1-.092,1.076,2.508,2.508,0,0,0,1.5.578,2.769,2.769,0,0,0,.43,1.361,5.169,5.169,0,0,1,1.079-.093l0,0a.809.809,0,0,1-.092-.084Z" transform="translate(-10.515 -26.879)" fill="#e7e3d8"/><path d="M42.33,5.976c-.491.491-.9.737-.9,2.343l0,0c-.027-.03-.054-.06-.084-.09a2.858,2.858,0,0,0-1.92-.968h0A2.237,2.237,0,0,0,38.6,5.488.809.809,0,0,0,38.51,5.4l.006-.006c1.6,0,1.849-.4,2.34-.9L44.349,1h1.5V2.5Z" transform="translate(-26.762 -0.495)" fill="#fffaed"/><path d="M40.023,16.73h0a2.745,2.745,0,0,0-.43-1.36,5.174,5.174,0,0,1-1.079.093l-.006.006a.808.808,0,0,1,.093.084,2.237,2.237,0,0,1,.821,1.777h0a2.858,2.858,0,0,1,1.92.968c.03.03.057.06.084.09l0,0a5.217,5.217,0,0,1,.092-1.076A2.508,2.508,0,0,0,40.023,16.73Z" transform="translate(-26.759 -10.56)" fill="#e7e3d8"/><path d="M16.6,31.674a2.858,2.858,0,0,1-1.92-.968c-.03-.03-.057-.06-.084-.09a2.059,2.059,0,0,1,.213-2.783,2.033,2.033,0,0,1,2.87-.129c1.058,1.058-.24,1.974.264,2.481s1.2-1.016,2.481.264a2.137,2.137,0,0,1-2.909,3.089.809.809,0,0,1-.093-.084A2.258,2.258,0,0,1,16.6,31.674Z" transform="translate(-9.7 -18.825)" fill="#d7d3c8"/><path d="M21.184,30.448c-1.279-1.279-1.974.243-2.481-.264s.794-1.423-.264-2.481a2.033,2.033,0,0,0-2.87.129,2.307,2.307,0,0,0-.33.419,1.975,1.975,0,0,1,2.449.2c1.058,1.058-.24,1.974.264,2.481s1.2-1.016,2.481.264a1.99,1.99,0,0,1,.2,2.459,2.312,2.312,0,0,0,.423-.333A2.046,2.046,0,0,0,21.184,30.448Z" transform="translate(-10.464 -18.825)" fill="#c8c5bb"/><path d="M31.392,16.515a2.858,2.858,0,0,1,1.92.968c.03.03.057.06.084.09a2.059,2.059,0,0,1-.213,2.783,2.033,2.033,0,0,1-2.87.129c-1.058-1.058.24-1.974-.264-2.481s-1.2,1.016-2.481-.264a2.135,2.135,0,0,1,2.906-3.086.809.809,0,0,1,.093.084,2.237,2.237,0,0,1,.821,1.777Z" transform="translate(-18.727 -9.746)" fill="#d7d3c8"/><path d="M31.059,20.487c-1.058-1.058.24-1.974-.264-2.481s-1.2,1.016-2.481-.264a2,2,0,0,1-.172-2.5,2.321,2.321,0,0,0-.449.347,2.046,2.046,0,0,0-.129,2.876c1.279,1.279,1.974-.243,2.481.264s-.794,1.423.264,2.481a2.033,2.033,0,0,0,2.87-.129,2.3,2.3,0,0,0,.3-.375,1.971,1.971,0,0,1-2.421-.219Z" transform="translate(-18.724 -10.47)" fill="#c8c5bb"/></g></svg>