<svg xmlns="http://www.w3.org/2000/svg" width="55.643" height="80" viewBox="0 0 55.643 80"><g transform="translate(0 0)"><path d="M24.853,48.094A40.007,40.007,0,0,0,21.94,58.959C20.153,74.882,32.408,87.611,48.419,87.611A29,29,0,0,0,77.41,58.6a28.938,28.938,0,0,0-1.387-7.167c-1.265,8.384-8.22,13.13-8.22,13.13,4.268-11.232,2.009-21.38-3.162-28.792C52.943,19,55.946,7.611,55.946,7.611c-15.65,13.921-14.7,29.267-14.7,29.267-1.437-9.307-13.187-13.009-13.187-13.009,3.876,6.577,2.481,11.673-.12,17.3C26.041,45.277,24.853,48.094,24.853,48.094Z" transform="translate(-21.767 -7.611)" fill="#fddb33"/></g><g transform="translate(6.29 0)"><path d="M74.62,122.266h0c-1.771-8.531-13.2-12.153-13.2-12.153a17.53,17.53,0,0,1,2.026,4.876C67.216,116.149,74.62,122.266,74.62,122.266Z" transform="translate(-61.425 -93.855)" fill="#f9c032"/><path d="M204.651,35.77c5.171,7.412,10.575,13.933,9.609,28.742h0a34.648,34.648,0,0,0,2.231-11.52,29.655,29.655,0,0,0-5.4-17.222C199.391,19,202.395,7.611,202.395,7.611a49.487,49.487,0,0,0-6.573,7.069C196.422,19.649,198.51,26.968,204.651,35.77Z" transform="translate(-174.506 -7.611)" fill="#f9c032"/><path d="M200.277,283.9a19.968,19.968,0,0,1-5.237,10.446,29.01,29.01,0,0,1-25.6,25.555,29.538,29.538,0,0,0,3.23.178,27.469,27.469,0,0,0,27.6-36.179Z" transform="translate(-152.31 -240.076)" fill="#f9c032"/></g><path d="M152.9,329.308a15.963,15.963,0,0,1,1.9,5.9,8.7,8.7,0,1,1-17.4,0c0-4.806,8.7-17.29,8.7-17.29s2,2.875,4.088,6.4Z" transform="translate(-119.063 -268.704)" fill="#ff7373"/></svg>