<svg xmlns="http://www.w3.org/2000/svg" width="28.444" height="25" viewBox="0 0 28.444 25"><g transform="translate(0 -31)"><path d="M.833,52.667H5v2.5A.833.833,0,0,0,5.833,56H27.611a.833.833,0,0,0,.833-.833V33.5a.833.833,0,0,0-.833-.833H23.444v-.833a.833.833,0,1,0-1.667,0v.833H17.555v-.833a.833.833,0,1,0-1.667,0v.833H11.722v-.833a.833.833,0,1,0-1.667,0v.833H5.833A.833.833,0,0,0,5,33.5v5C5,44.642,2.447,49.366.3,51.193a.833.833,0,0,0,.533,1.473Zm25.944,1.667H6.666V52.667H22.611a.833.833,0,0,0,.534-.193,15.381,15.381,0,0,0,3.633-5.365Zm-20.111-20h3.389v.833a.833.833,0,0,0,1.667,0v-.833h4.167v.833a.833.833,0,0,0,1.667,0v-.833h4.222v.833a.833.833,0,0,0,1.667,0v-.833h3.333v3.333H6.666Zm-.014,5H26.763c-.188,5.286-2.217,9.446-4.479,11.667H2.729A20.054,20.054,0,0,0,6.652,39.333Z" transform="translate(0 0)" fill="#373737"/></g></svg>