<svg xmlns="http://www.w3.org/2000/svg" width="41.109" height="27" viewBox="0 0 41.109 27"><g transform="translate(0 -55.109)"><g transform="translate(0 55.109)"><g transform="translate(0 0)"><path d="M41.087,73.782a38.373,38.373,0,0,0-1.126-7.424,28.5,28.5,0,0,0-2.3-6.247c-3.584-6.3-7.476-5.325-12.135-4.1a33.351,33.351,0,0,1-4.711.922H20.3a33.35,33.35,0,0,1-4.711-.922c-4.659-1.178-8.551-2.2-12.135,4.147a26.1,26.1,0,0,0-2.3,6.247A38.373,38.373,0,0,0,.022,73.833,13.952,13.952,0,0,0,.739,79.67a3.88,3.88,0,0,0,2.458,2.3,5.006,5.006,0,0,0,3.277-.358,24.067,24.067,0,0,0,6.554-4.66c1.587-1.536,4.557-2.3,7.527-2.3s5.94.768,7.527,2.3a24.067,24.067,0,0,0,6.554,4.66,5.356,5.356,0,0,0,3.277.358,3.826,3.826,0,0,0,2.458-2.355A13.691,13.691,0,0,0,41.087,73.782ZM38.629,78.9a2.03,2.03,0,0,1-1.229,1.28,3.536,3.536,0,0,1-2.1-.256,20.882,20.882,0,0,1-5.94-4.25c-1.946-1.946-5.376-2.919-8.807-2.919s-6.861.973-8.858,2.816a21.276,21.276,0,0,1-5.94,4.25,3.176,3.176,0,0,1-2.1.256A2.03,2.03,0,0,1,2.429,78.8a12.107,12.107,0,0,1-.512-4.915,35.319,35.319,0,0,1,1.075-7.066,24.432,24.432,0,0,1,2.151-5.786c2.816-5.069,6.093-4.25,9.985-3.226a30.036,30.036,0,0,0,5.018.973h.768a29.664,29.664,0,0,0,5.069-.973c3.891-.973,7.168-1.843,9.985,3.226a23.61,23.61,0,0,1,2.151,5.786,38.756,38.756,0,0,1,1.075,7.066A11.848,11.848,0,0,1,38.629,78.9Z" transform="translate(0 -55.109)" fill="#fff"/></g></g><g transform="translate(5.296 60.213)"><path d="M51.921,98.565a3.111,3.111,0,0,0-1.843-.87,2.914,2.914,0,0,0-.819-1.792l-.051-.051a2.9,2.9,0,0,0-2.1-.87,3.023,3.023,0,0,0-2.1.87,2.976,2.976,0,0,0-.87,1.843,3.05,3.05,0,0,0-1.843.819l-.051.051a2.9,2.9,0,0,0-.87,2.1,3.023,3.023,0,0,0,.87,2.1,2.855,2.855,0,0,0,1.895.87,2.732,2.732,0,0,0,.87,1.843,2.9,2.9,0,0,0,2.1.87,3.023,3.023,0,0,0,2.1-.87,3.111,3.111,0,0,0,.87-1.843,2.732,2.732,0,0,0,1.843-.87,2.9,2.9,0,0,0,.87-2.1A3.023,3.023,0,0,0,51.921,98.565Zm-1.28,2.867a1.042,1.042,0,0,1-.768.307h-.717a.972.972,0,0,0-.973.973v.666a1.075,1.075,0,1,1-2.151,0v-.717a.972.972,0,0,0-.973-.973h-.717a1.05,1.05,0,0,1-.768-1.792l.051-.051a1.223,1.223,0,0,1,.717-.256h.717a.972.972,0,0,0,.973-.973V97.9a1.086,1.086,0,0,1,1.843-.768l.051.051a1.223,1.223,0,0,1,.256.717v.717a.972.972,0,0,0,.973.973h.717a1.086,1.086,0,0,1,.768,1.843Z" transform="translate(-41.373 -94.981)" fill="#fff"/></g><g transform="translate(27.672 60.469)"><g transform="translate(0 0)"><circle cx="1.792" cy="1.792" r="1.792" fill="#fff"/></g></g><g transform="translate(27.672 67.74)"><circle cx="1.792" cy="1.792" r="1.792" fill="#fff"/></g><g transform="translate(24.037 64.105)"><g transform="translate(0 0)"><circle cx="1.792" cy="1.792" r="1.792" fill="#fff"/></g></g><g transform="translate(31.307 64.105)"><g transform="translate(0 0)"><circle cx="1.792" cy="1.792" r="1.792" fill="#fff"/></g></g></g></svg>