<svg xmlns="http://www.w3.org/2000/svg" width="15" height="17.188" viewBox="0 0 15 17.188">
  <g id="delet" transform="translate(-4 -2.25)">
    <g id="Group_7116" data-name="Group 7116" transform="translate(4 2.25)">
      <path id="Path_67813" data-name="Path 67813" d="M19.125,19.25a.625.625,0,0,0,.625-.625v-6.25a.625.625,0,0,0-1.25,0v6.25A.625.625,0,0,0,19.125,19.25Z" transform="translate(-9.438 -5.813)"/>
      <path id="Path_67814" data-name="Path 67814" d="M12.125,19.25a.625.625,0,0,0,.625-.625v-6.25a.625.625,0,0,0-1.25,0v6.25A.625.625,0,0,0,12.125,19.25Z" transform="translate(-6.813 -5.813)"/>
      <path id="Path_67815" data-name="Path 67815" d="M16.625,3.5a.625.625,0,0,0,0-1.25h-5a.625.625,0,0,0,0,1.25Z" transform="translate(-6.625 -2.25)"/>
      <path id="Path_67816" data-name="Path 67816" d="M4.625,5.25a.625.625,0,1,0,0,1.25H5.25V18a2.566,2.566,0,0,0,2.562,2.563h7.375A2.566,2.566,0,0,0,17.75,18V6.5h.625a.625.625,0,1,0,0-1.25H4.625ZM16.5,6.5V18a1.312,1.312,0,0,1-1.313,1.313H7.813A1.312,1.312,0,0,1,6.5,18V6.5Z" transform="translate(-4 -3.375)"/>
    </g>
  </g>
</svg>
