<svg xmlns="http://www.w3.org/2000/svg" xmlns:xlink="http://www.w3.org/1999/xlink" width="400" height="292" viewBox="0 0 400 292"><defs><clipPath id="a"><rect width="400" height="292" transform="translate(951 181)" fill="#fff"/></clipPath></defs><g transform="translate(-951 -181)" clip-path="url(#a)"><g transform="translate(1390.406 393.564) rotate(161)" opacity="0.5"><path d="M.034,0A.034.034,0,0,0,0,.034.034.034,0,1,0,.034,0Z" transform="translate(209.897 144.584)" fill="#fff"/><path d="M.1,0A.1.1,0,0,0,0,.1a.106.106,0,0,0,.1.1A.1.1,0,0,0,.2.1.1.1,0,0,0,.1,0Z" transform="translate(239.691 165.986)" fill="#fff"/><path d="M.037,0A.038.038,0,0,0,0,.034.037.037,0,0,0,.037.069.037.037,0,0,0,.072.034.038.038,0,0,0,.037,0Z" transform="translate(100.459 154.644)" fill="#fff"/><path d="M.032,0A.036.036,0,0,0,0,.037.032.032,0,0,0,.032.069.034.034,0,0,0,.069.037.036.036,0,0,0,.032,0Z" transform="translate(107.429 148.554)" fill="#fff"/><path d="M.034,0A.034.034,0,0,0,0,.032.035.035,0,0,0,.034.069.034.034,0,0,0,.069.032.033.033,0,0,0,.034,0Z" transform="translate(114.915 143.118)" fill="#fff"/><path d="M.035,0A.035.035,0,0,0,0,.035.034.034,0,0,0,.035.07.034.034,0,0,0,.069.035.035.035,0,0,0,.035,0Z" transform="translate(122.859 138.37)" fill="#fff"/><path d="M.138,0A.136.136,0,0,0,0,.138.137.137,0,0,0,.138.275.139.139,0,0,0,.275.138.138.138,0,0,0,.138,0Z" transform="translate(131.091 134.254)" fill="#fff"/><path d="M.1,0A.105.105,0,0,0,0,.1a.1.1,0,0,0,.1.1A.105.105,0,0,0,.209.1.106.106,0,0,0,.1,0Z" transform="translate(139.787 131.036)" fill="#fff"/><path d="M.1,0A.1.1,0,0,0,0,.1a.1.1,0,0,0,.1.1A.1.1,0,0,0,.206.1.105.105,0,0,0,.1,0Z" transform="translate(148.71 128.574)" fill="#fff"/><ellipse cx="0.104" cy="0.104" rx="0.104" ry="0.104" transform="translate(157.813 126.922)" fill="#fff"/><path d="M.1,0A.1.1,0,0,0,0,.1.1.1,0,0,0,.1.206.105.105,0,0,0,.206.1.1.1,0,0,0,.1,0Z" transform="translate(167.03 126.093)" fill="#fff"/><path d="M.1,0A.1.1,0,0,0,0,.1.105.105,0,0,0,.1.206.1.1,0,0,0,.206.1.1.1,0,0,0,.1,0Z" transform="translate(176.282 126.093)" fill="#fff"/><path d="M.105,0A.105.105,0,0,0,0,.1a.106.106,0,0,0,.105.1.1.1,0,0,0,.1-.1A.1.1,0,0,0,.105,0Z" transform="translate(185.496 126.923)" fill="#fff"/><path d="M.105,0A.105.105,0,0,0,0,.1a.1.1,0,0,0,.105.1.1.1,0,0,0,.1-.1A.1.1,0,0,0,.105,0Z" transform="translate(194.601 128.574)" fill="#fff"/><path d="M.105,0A.106.106,0,0,0,0,.1a.105.105,0,0,0,.105.1.1.1,0,0,0,.1-.1A.1.1,0,0,0,.105,0Z" transform="translate(203.521 131.036)" fill="#fff"/><path d="M.206,0A.208.208,0,0,0,0,.206a.206.206,0,0,0,.413,0A.208.208,0,0,0,.206,0Z" transform="translate(212.083 134.185)" fill="#fff"/><path d="M.135,0A.136.136,0,0,0,0,.138.134.134,0,0,0,.135.275.135.135,0,0,0,.272.138.137.137,0,0,0,.135,0Z" transform="translate(220.489 138.268)" fill="#fff"/><path d="M.206,0A.2.2,0,0,0,0,.2.206.206,0,1,0,.413.2.2.2,0,0,0,.206,0Z" transform="translate(228.363 142.946)" fill="#fff"/><path d="M.105,0A.106.106,0,0,0,0,.105a.1.1,0,0,0,.105.1.1.1,0,0,0,.1-.1A.1.1,0,0,0,.105,0Z" transform="translate(235.951 148.486)" fill="#fff"/><path d="M.242,0A.242.242,0,0,0,0,.24a.242.242,0,0,0,.485,0A.241.241,0,0,0,.242,0Z" transform="translate(242.781 154.438)" fill="#fff"/><path d="M.242,0A.241.241,0,1,0,.48.24.24.24,0,0,0,.242,0Z" transform="translate(249.178 161.127)" fill="#fff"/><path d="M.1,0A.1.1,0,0,0,0,.1.1.1,0,0,0,.1.2a.1.1,0,0,0,.1-.1A.1.1,0,0,0,.1,0Z" transform="translate(255.084 168.499)" fill="#fff"/><path d="M.239,0A.24.24,0,1,0,.482.242.24.24,0,0,0,.239,0Z" transform="translate(260.044 176.083)" fill="#fff"/><path d="M.105,0A.107.107,0,0,0,0,.105a.1.1,0,0,0,.105.1.1.1,0,0,0,.1-.1A.1.1,0,0,0,.105,0Z" transform="translate(264.565 184.368)" fill="#fff"/><path d="M.2,0A.2.2,0,0,0,0,.206.2.2,0,0,0,.2.413.206.206,0,1,0,.2,0Z" transform="translate(268.102 192.774)" fill="#fff"/><path d="M.1,0A.1.1,0,0,0,0,.1.1.1,0,0,0,.1.2a.1.1,0,0,0,.1-.1A.1.1,0,0,0,.1,0Z" transform="translate(271.063 201.679)" fill="#fff"/><path d="M.032,0A.036.036,0,0,0,0,.035.034.034,0,0,0,.032.069.035.035,0,0,0,.069.035.037.037,0,0,0,.032,0Z" transform="translate(273.19 210.767)" fill="#fff"/><path d="M.032,0A.035.035,0,0,0,0,.034.036.036,0,0,0,.032.07.036.036,0,0,0,.069.034.036.036,0,0,0,.032,0Z" transform="translate(268.271 265.415)" fill="#fff"/><ellipse cx="0.034" cy="0.034" rx="0.034" ry="0.034" transform="translate(58.29 229.182)" fill="#fff"/><path d="M.034,0A.034.034,0,0,0,0,.035.034.034,0,0,0,.034.069.036.036,0,0,0,.069.035.037.037,0,0,0,.034,0Z" transform="translate(58.667 219.934)" fill="#fff"/><path d="M.037,0A.036.036,0,0,0,0,.035.035.035,0,0,0,.037.069.033.033,0,0,0,.069.035.034.034,0,0,0,.037,0Z" transform="translate(59.795 210.75)" fill="#fff"/><path d="M.035,0A.035.035,0,0,0,0,.035.033.033,0,0,0,.035.069.033.033,0,0,0,.069.035.034.034,0,0,0,.035,0Z" transform="translate(61.671 201.688)" fill="#fff"/><path d="M.037,0A.035.035,0,0,0,0,.035.036.036,0,0,0,.037.07.035.035,0,0,0,.069.035.034.034,0,0,0,.037,0Z" transform="translate(64.278 192.809)" fill="#fff"/><path d="M.035,0A.038.038,0,0,0,0,.035.038.038,0,0,0,.035.069.038.038,0,0,0,.072.035.038.038,0,0,0,.035,0Z" transform="translate(67.599 184.173)" fill="#fff"/><path d="M.032,0A.034.034,0,0,0,0,.035.033.033,0,0,0,.032.067.035.035,0,0,0,.069.035.035.035,0,0,0,.032,0Z" transform="translate(71.615 175.835)" fill="#fff"/><path d="M.032,0A.032.032,0,0,0,0,.034.033.033,0,0,0,.032.067.032.032,0,0,0,.066.034.031.031,0,0,0,.032,0Z" transform="translate(76.298 167.854)" fill="#fff"/><path d="M.034,0A.034.034,0,0,0,0,.035.033.033,0,0,0,.034.069.033.033,0,0,0,.069.035.035.035,0,0,0,.034,0Z" transform="translate(81.613 160.278)" fill="#fff"/><path d="M.209,0a.2.2,0,1,0,0,.41.2.2,0,0,0,0-.41Z" transform="translate(87.356 152.993)" fill="#fff"/><path d="M.034,0A.034.034,0,0,0,0,.034.034.034,0,0,0,.034.067.033.033,0,0,0,.069.034.033.033,0,0,0,.034,0Z" transform="translate(94.005 146.555)" fill="#fff"/><path d="M.138,0A.138.138,0,0,0,0,.136.139.139,0,0,0,.138.274.137.137,0,1,0,.138,0Z" transform="translate(100.894 140.391)" fill="#fff"/><path d="M.206,0A.206.206,0,1,0,.413.2.206.206,0,0,0,.206,0Z" transform="translate(108.291 134.852)" fill="#fff"/><path d="M.209,0a.2.2,0,1,0,0,.41A.207.207,0,0,0,.416.2.207.207,0,0,0,.209,0Z" transform="translate(116.175 130.01)" fill="#fff"/><path d="M.138,0A.139.139,0,0,0,0,.138.138.138,0,1,0,.138,0Z" transform="translate(124.498 125.893)" fill="#fff"/><path d="M.342,0A.342.342,0,1,0,.686.342.343.343,0,0,0,.342,0Z" transform="translate(132.86 122.191)" fill="#fff"/><path d="M.344,0A.342.342,0,1,0,.686.341.342.342,0,0,0,.344,0Z" transform="translate(141.683 119.404)" fill="#fff"/><ellipse cx="0.412" cy="0.412" rx="0.412" ry="0.412" transform="translate(150.636 117.275)" fill="#fff"/><path d="M.307,0a.307.307,0,0,0,0,.615A.307.307,0,1,0,.307,0Z" transform="translate(159.899 116.063)" fill="#fff"/><path d="M.339,0A.342.342,0,0,0,0,.344a.342.342,0,1,0,.683,0A.344.344,0,0,0,.339,0Z" transform="translate(169.103 115.459)" fill="#fff"/><ellipse cx="0.308" cy="0.308" rx="0.308" ry="0.308" transform="translate(178.389 115.684)" fill="#fff"/><path d="M.341,0A.343.343,0,1,0,.683.344.343.343,0,0,0,.341,0Z" transform="translate(187.561 116.591)" fill="#fff"/><path d="M.514,0a.516.516,0,1,0,.517.517A.516.516,0,0,0,.514,0Z" transform="translate(196.486 118.107)" fill="#fff"/><path d="M.619,0a.618.618,0,1,0,.615.618A.62.62,0,0,0,.619,0Z" transform="translate(205.313 120.431)" fill="#fff"/><path d="M.618,0a.618.618,0,1,0,.618.619A.618.618,0,0,0,.618,0Z" transform="translate(214.016 123.576)" fill="#fff"/><path d="M.344,0A.343.343,0,0,0,0,.341a.343.343,0,1,0,.686,0A.34.34,0,0,0,.344,0Z" transform="translate(222.708 127.697)" fill="#fff"/><path d="M.445,0A.446.446,0,1,0,.893.446.446.446,0,0,0,.445,0Z" transform="translate(230.681 132.111)" fill="#fff"/><path d="M.411,0A.412.412,0,1,0,.824.414.411.411,0,0,0,.411,0Z" transform="translate(238.398 137.304)" fill="#fff"/><path d="M.41,0A.411.411,0,1,0,.821.411.41.41,0,0,0,.41,0Z" transform="translate(245.632 143.076)" fill="#fff"/><path d="M.448,0A.446.446,0,1,0,.893.445.445.445,0,0,0,.448,0Z" transform="translate(252.337 149.382)" fill="#fff"/><path d="M.307,0A.307.307,0,0,0,0,.309.306.306,0,0,0,.307.616.31.31,0,0,0,.618.309.31.31,0,0,0,.307,0Z" transform="translate(258.677 156.387)" fill="#fff"/><path d="M.31,0A.309.309,0,1,0,.619.309.311.311,0,0,0,.31,0Z" transform="translate(264.296 163.737)" fill="#fff"/><path d="M.413,0A.411.411,0,1,0,.826.41.413.413,0,0,0,.413,0Z" transform="translate(269.196 171.42)" fill="#fff"/><path d="M.344,0A.343.343,0,1,0,.686.342.345.345,0,0,0,.344,0Z" transform="translate(273.617 179.654)" fill="#fff"/><path d="M.31,0A.312.312,0,0,0,0,.31.309.309,0,1,0,.31,0Z" transform="translate(277.323 188.183)" fill="#fff"/><path d="M.24,0a.239.239,0,1,0,0,.477A.239.239,0,1,0,.24,0Z" transform="translate(280.359 197.019)" fill="#fff"/><path d="M.242,0A.242.242,0,0,0,0,.24a.242.242,0,0,0,.485,0A.241.241,0,0,0,.242,0Z" transform="translate(282.599 205.995)" fill="#fff"/><path d="M.206,0a.206.206,0,1,0,.2.206A.206.206,0,0,0,.206,0Z" transform="translate(284.14 215.159)" fill="#fff"/><path d="M.138,0A.139.139,0,0,0,0,.139.138.138,0,0,0,.138.275.138.138,0,0,0,.278.139.14.14,0,0,0,.138,0Z" transform="translate(284.961 224.451)" fill="#fff"/><path d="M.1,0A.1.1,0,0,0,0,.1a.106.106,0,0,0,.1.1.1.1,0,0,0,.1-.1A.1.1,0,0,0,.1,0Z" transform="translate(284.996 233.739)" fill="#fff"/><path d="M.034,0A.033.033,0,0,0,0,.035.031.031,0,0,0,.034.067.032.032,0,0,0,.066.035.035.035,0,0,0,.034,0Z" transform="translate(284.313 243.03)" fill="#fff"/><path d="M.032,0A.034.034,0,0,0,0,.035.035.035,0,0,0,.032.069.036.036,0,0,0,.069.035.035.035,0,0,0,.032,0Z" transform="translate(282.809 252.161)" fill="#fff"/><path d="M.034,0A.037.037,0,0,0,0,.037.035.035,0,0,0,.034.07.035.035,0,0,0,.069.037.037.037,0,0,0,.034,0Z" transform="translate(280.566 261.138)" fill="#fff"/><path d="M.035,0A.032.032,0,0,0,0,.032.035.035,0,0,0,.035.069.036.036,0,0,0,.069.032.033.033,0,0,0,.035,0Z" transform="translate(277.598 269.906)" fill="#fff"/><path d="M.034,0A.033.033,0,0,0,0,.034.033.033,0,0,0,.034.067.031.031,0,0,0,.066.034.031.031,0,0,0,.034,0Z" transform="translate(258.951 301.702)" fill="#fff"/><path d="M.037,0A.035.035,0,0,0,0,.035.035.035,0,0,0,.037.07.033.033,0,0,0,.069.035.033.033,0,0,0,.037,0Z" transform="translate(59.795 247.611)" fill="#fff"/><path d="M.034,0A.034.034,0,0,0,0,.034.034.034,0,0,0,.034.069.037.037,0,0,0,.069.034.036.036,0,0,0,.034,0Z" transform="translate(58.667 238.428)" fill="#fff"/><path d="M.032,0A.034.034,0,0,0,0,.034.033.033,0,0,0,.032.069.035.035,0,0,0,.069.034.036.036,0,0,0,.032,0Z" transform="translate(48.324 219.933)" fill="#fff"/><path d="M.034,0A.036.036,0,0,0,0,.037.034.034,0,0,0,.034.069.034.034,0,0,0,.069.037.036.036,0,0,0,.034,0Z" transform="translate(49.359 210.736)" fill="#fff"/><path d="M.037,0A.035.035,0,0,0,0,.037.036.036,0,0,0,.037.07.035.035,0,0,0,.069.037.035.035,0,0,0,.037,0Z" transform="translate(51.079 201.644)" fill="#fff"/><path d="M.032,0A.033.033,0,0,0,0,.035.032.032,0,0,0,.032.069.034.034,0,0,0,.069.035.035.035,0,0,0,.032,0Z" transform="translate(53.475 192.706)" fill="#fff"/><path d="M.032,0A.032.032,0,0,0,0,.035.031.031,0,0,0,.032.067.034.034,0,0,0,.069.035.034.034,0,0,0,.032,0Z" transform="translate(56.532 183.972)" fill="#fff"/><path d="M.032,0A.031.031,0,0,0,0,.032.034.034,0,0,0,.032.067.036.036,0,0,0,.069.032.034.034,0,0,0,.032,0Z" transform="translate(60.232 175.491)" fill="#fff"/><path d="M.032,0A.034.034,0,0,0,0,.035.034.034,0,0,0,.032.069.035.035,0,0,0,.069.035.035.035,0,0,0,.032,0Z" transform="translate(64.556 167.307)" fill="#fff"/><path d="M.1,0A.1.1,0,0,0,0,.1.1.1,0,0,0,.1.2.1.1,0,0,0,.2.1.1.1,0,0,0,.1,0Z" transform="translate(69.412 159.404)" fill="#fff"/><path d="M.138,0a.137.137,0,1,0,0,.274A.137.137,0,0,0,.138,0Z" transform="translate(74.873 151.924)" fill="#fff"/><path d="M.242,0A.244.244,0,0,0,0,.242a.242.242,0,0,0,.242.24A.241.241,0,0,0,.242,0Z" transform="translate(80.804 144.804)" fill="#fff"/><path d="M.239,0A.24.24,0,1,0,.482.24.239.239,0,0,0,.239,0Z" transform="translate(87.35 138.262)" fill="#fff"/><path d="M.206,0A.208.208,0,0,0,0,.206.208.208,0,0,0,.206.413.207.207,0,0,0,.413.206.207.207,0,0,0,.206,0Z" transform="translate(94.396 132.259)" fill="#fff"/><path d="M.206,0A.206.206,0,0,0,0,.2a.206.206,0,0,0,.206.2A.2.2,0,0,0,.41.2.2.2,0,0,0,.206,0Z" transform="translate(101.844 126.766)" fill="#fff"/><path d="M.722,0a.719.719,0,1,0,.72.72A.72.72,0,0,0,.722,0Z" transform="translate(109.164 121.327)" fill="#fff"/><path d="M.514,0a.514.514,0,1,0,.514.514A.514.514,0,0,0,.514,0Z" transform="translate(117.552 117.208)" fill="#fff"/><path d="M.312,0A.313.313,0,0,0,0,.312.31.31,0,1,0,.312,0Z" transform="translate(126.238 113.712)" fill="#fff"/><path d="M.448,0A.445.445,0,1,0,.893.445.445.445,0,0,0,.448,0Z" transform="translate(134.837 110.521)" fill="#fff"/><path d="M.546,0A.546.546,0,0,0,0,.549.548.548,0,1,0,.546,0Z" transform="translate(143.676 108.021)" fill="#fff"/><path d="M.55,0A.549.549,0,1,0,1.1.549.55.55,0,0,0,.55,0Z" transform="translate(152.765 106.301)" fill="#fff"/><path d="M.411,0a.412.412,0,1,0,.41.411A.41.41,0,0,0,.411,0Z" transform="translate(162.101 105.402)" fill="#fff"/><path d="M.413,0A.415.415,0,0,0,0,.413.413.413,0,1,0,.413,0Z" transform="translate(171.345 105.055)" fill="#fff"/><path d="M.618,0a.618.618,0,1,0,.618.616A.618.618,0,0,0,.618,0Z" transform="translate(180.388 105.197)" fill="#fff"/><path d="M.515,0a.517.517,0,1,0,.514.517A.517.517,0,0,0,.515,0Z" transform="translate(189.687 106.333)" fill="#fff"/><path d="M.651,0A.652.652,0,1,0,1.3.651.65.65,0,0,0,.651,0Z" transform="translate(198.645 107.918)" fill="#fff"/><path d="M.894,0a.893.893,0,1,0,.891.893A.893.893,0,0,0,.894,0Z" transform="translate(207.34 110.073)" fill="#fff"/><path d="M.856,0a.858.858,0,1,0,.861.859A.858.858,0,0,0,.856,0Z" transform="translate(216.112 113.164)" fill="#fff"/><path d="M.615,0a.618.618,0,1,0,.618.618A.617.617,0,0,0,.615,0Z" transform="translate(224.834 117.104)" fill="#fff"/><path d="M.893,0a.893.893,0,1,0,.893.893A.892.892,0,0,0,.893,0Z" transform="translate(232.739 121.154)" fill="#fff"/><ellipse cx="0.618" cy="0.618" rx="0.618" ry="0.618" transform="translate(240.849 126.353)" fill="#fff"/><path d="M.755,0a.755.755,0,1,0,.752.754A.753.753,0,0,0,.755,0Z" transform="translate(248.16 131.712)" fill="#fff"/><path d="M.654,0A.652.652,0,1,0,1.3.651.653.653,0,0,0,.654,0Z" transform="translate(255.276 137.85)" fill="#fff"/><path d="M.549,0A.549.549,0,1,0,1.1.549.547.547,0,0,0,.549,0Z" transform="translate(261.923 144.497)" fill="#fff"/><path d="M.339,0A.341.341,0,0,0,0,.344a.342.342,0,1,0,.683,0A.343.343,0,0,0,.339,0Z" transform="translate(268.167 151.716)" fill="#fff"/><path d="M.413,0A.411.411,0,1,0,.826.411.411.411,0,0,0,.413,0Z" transform="translate(273.592 159.095)" fill="#fff"/><path d="M.344,0a.343.343,0,1,0,0,.687A.34.34,0,0,0,.683.344.341.341,0,0,0,.344,0Z" transform="translate(278.586 166.998)" fill="#fff"/><path d="M.347,0A.344.344,0,0,0,0,.342a.345.345,0,0,0,.69,0A.342.342,0,0,0,.347,0Z" transform="translate(282.906 175.181)" fill="#fff"/><path d="M.31,0A.31.31,0,0,0,0,.307a.313.313,0,0,0,.31.31A.309.309,0,0,0,.31,0Z" transform="translate(286.643 183.697)" fill="#fff"/><path d="M.341,0A.343.343,0,1,0,.683.344.343.343,0,0,0,.341,0Z" transform="translate(289.667 192.397)" fill="#fff"/><path d="M.342,0A.343.343,0,1,0,.686.342.343.343,0,0,0,.342,0Z" transform="translate(292.06 201.336)" fill="#fff"/><path d="M.31,0a.309.309,0,1,0,0,.618A.309.309,0,0,0,.31,0Z" transform="translate(293.815 210.462)" fill="#fff"/><path d="M.31,0A.31.31,0,1,0,.618.307.308.308,0,0,0,.31,0Z" transform="translate(294.852 219.659)" fill="#fff"/><path d="M.208,0a.206.206,0,1,0,.2.2A.2.2,0,0,0,.208,0Z" transform="translate(295.3 229.01)" fill="#fff"/><path d="M.138,0A.137.137,0,0,0,0,.139a.136.136,0,1,0,.272,0A.137.137,0,0,0,.138,0Z" transform="translate(295.025 238.324)" fill="#fff"/><path d="M.141,0A.14.14,0,0,0,0,.138.139.139,0,0,0,.141.275.138.138,0,0,0,.278.138.139.139,0,0,0,.141,0Z" transform="translate(293.985 247.521)" fill="#fff"/><path d="M.1,0A.1.1,0,0,0,0,.1.1.1,0,0,0,.1.2.106.106,0,0,0,.206.1.1.1,0,0,0,.1,0Z" transform="translate(292.302 256.65)" fill="#fff"/><path d="M.037,0A.036.036,0,0,0,0,.035.036.036,0,0,0,.037.069.035.035,0,0,0,.069.035.035.035,0,0,0,.037,0Z" transform="translate(289.975 265.656)" fill="#fff"/><path d="M.037,0A.036.036,0,0,0,0,.035.035.035,0,0,0,.037.069.034.034,0,0,0,.069.035.035.035,0,0,0,.037,0Z" transform="translate(286.917 274.39)" fill="#fff"/><path d="M.037,0A.036.036,0,0,0,0,.034.036.036,0,0,0,.037.069.034.034,0,0,0,.069.034.034.034,0,0,0,.037,0Z" transform="translate(283.217 282.873)" fill="#fff"/><path d="M.037,0A.034.034,0,0,0,0,.035.034.034,0,0,0,.037.069.032.032,0,0,0,.069.035.032.032,0,0,0,.037,0Z" transform="translate(278.893 291.054)" fill="#fff"/><path d="M.035,0A.033.033,0,0,0,0,.034.033.033,0,0,0,.035.067.033.033,0,0,0,.067.034.032.032,0,0,0,.035,0Z" transform="translate(273.97 298.892)" fill="#fff"/><path d="M.032,0A.032.032,0,0,0,0,.032.037.037,0,0,0,.032.069.037.037,0,0,0,.069.032.034.034,0,0,0,.032,0Z" transform="translate(268.475 306.337)" fill="#fff"/><path d="M.032,0A.031.031,0,0,0,0,.032.033.033,0,0,0,.032.067.036.036,0,0,0,.067.032.034.034,0,0,0,.032,0Z" transform="translate(262.44 313.352)" fill="#fff"/><path d="M.037,0A.035.035,0,0,0,0,.034.035.035,0,0,0,.037.069.034.034,0,0,0,.069.034.034.034,0,0,0,.037,0Z" transform="translate(255.893 319.895)" fill="#fff"/><path d="M.037,0A.037.037,0,0,0,0,.035.038.038,0,0,0,.037.069.034.034,0,0,0,.069.035.033.033,0,0,0,.037,0Z" transform="translate(248.878 325.931)" fill="#fff"/><path d="M.037,0A.035.035,0,0,0,0,.032.035.035,0,0,0,.037.069.034.034,0,0,0,.069.032.032.032,0,0,0,.037,0Z" transform="translate(241.434 331.427)" fill="#fff"/><path d="M.034,0A.034.034,0,0,0,0,.035.034.034,0,0,0,.034.069.033.033,0,0,0,.069.035.034.034,0,0,0,.034,0Z" transform="translate(233.598 336.349)" fill="#fff"/><path d="M.032,0A.033.033,0,0,0,0,.034.034.034,0,0,0,.032.067.032.032,0,0,0,.066.034.031.031,0,0,0,.032,0Z" transform="translate(216.936 344.376)" fill="#fff"/><path d="M.034,0A.035.035,0,0,0,0,.035.034.034,0,0,0,.034.069.034.034,0,0,0,.069.035.036.036,0,0,0,.034,0Z" transform="translate(49.359 247.623)" fill="#fff"/><path d="M.032,0A.033.033,0,0,0,0,.035.033.033,0,0,0,.032.069.035.035,0,0,0,.069.035.035.035,0,0,0,.032,0Z" transform="translate(48.324 238.428)" fill="#fff"/><path d="M.032,0A.034.034,0,0,0,0,.034.034.034,0,0,0,.032.069.035.035,0,0,0,.069.034.035.035,0,0,0,.032,0Z" transform="translate(37.665 229.181)" fill="#fff"/><path d="M.032,0A.035.035,0,0,0,0,.035.034.034,0,0,0,.032.069.035.035,0,0,0,.069.035.036.036,0,0,0,.032,0Z" transform="translate(37.985 219.931)" fill="#fff"/><path d="M.032,0A.033.033,0,0,0,0,.034.034.034,0,0,0,.032.067.035.035,0,0,0,.069.034.034.034,0,0,0,.032,0Z" transform="translate(38.94 210.729)" fill="#fff"/><path d="M.1,0A.1.1,0,0,0,0,.1.1.1,0,0,0,.1.2.105.105,0,0,0,.209.1.1.1,0,0,0,.1,0Z" transform="translate(40.46 201.543)" fill="#fff"/><path d="M.105,0A.1.1,0,0,0,0,.1.107.107,0,0,0,.105.206.106.106,0,0,0,.206.1.1.1,0,0,0,.105,0Z" transform="translate(42.676 192.557)" fill="#fff"/><path d="M.1,0A.1.1,0,0,0,0,.1a.1.1,0,0,0,.1.1A.1.1,0,0,0,.206.1.106.106,0,0,0,.1,0Z" transform="translate(45.507 183.744)" fill="#fff"/><path d="M.1,0A.1.1,0,0,0,0,.1.105.105,0,0,0,.1.206.1.1,0,0,0,.206.1.1.1,0,0,0,.1,0Z" transform="translate(48.935 175.15)" fill="#fff"/><path d="M.035,0A.034.034,0,0,0,0,.032.035.035,0,0,0,.035.067.034.034,0,0,0,.069.032.034.034,0,0,0,.035,0Z" transform="translate(53.02 166.882)" fill="#fff"/><path d="M.1,0A.1.1,0,0,0,0,.1.1.1,0,1,0,.206.1.1.1,0,0,0,.1,0Z" transform="translate(57.532 158.771)" fill="#fff"/><path d="M.206,0A.206.206,0,1,0,.413.2.206.206,0,0,0,.206,0Z" transform="translate(62.555 150.963)" fill="#fff"/><path d="M.2,0A.206.206,0,1,0,.411.206.205.205,0,0,0,.2,0Z" transform="translate(68.2 143.628)" fill="#fff"/><path d="M.239,0A.239.239,0,0,0,0,.239.242.242,0,0,0,.239.482.242.242,0,0,0,.48.239.239.239,0,0,0,.239,0Z" transform="translate(74.303 136.667)" fill="#fff"/><path d="M.206,0a.206.206,0,1,0,.2.206A.207.207,0,0,0,.206,0Z" transform="translate(80.936 130.213)" fill="#fff"/><path d="M.445,0A.446.446,0,1,0,.89.445.444.444,0,0,0,.445,0Z" transform="translate(87.729 123.958)" fill="#fff"/><path d="M.65,0A.652.652,0,1,0,1.3.651.652.652,0,0,0,.65,0Z" transform="translate(94.953 118.234)" fill="#fff"/><path d="M1.131,0A1.132,1.132,0,1,0,2.263,1.131,1.133,1.133,0,0,0,1.131,0Z" transform="translate(102.266 112.762)" fill="#fff"/><path d="M1.134,0A1.132,1.132,0,1,0,2.266,1.131,1.132,1.132,0,0,0,1.134,0Z" transform="translate(110.383 108.322)" fill="#fff"/><path d="M.757,0a.755.755,0,1,0,.755.754A.755.755,0,0,0,.757,0Z" transform="translate(119.167 104.828)" fill="#fff"/><path d="M.792,0a.79.79,0,1,0,.787.792A.792.792,0,0,0,.792,0Z" transform="translate(127.785 101.511)" fill="#fff"/><path d="M.651,0A.651.651,0,1,0,1.3.653.651.651,0,0,0,.651,0Z" transform="translate(136.783 98.973)" fill="#fff"/><path d="M.445,0A.446.446,0,1,0,.893.446.447.447,0,0,0,.445,0Z" transform="translate(146.01 97.118)" fill="#fff"/><path d="M.72,0a.719.719,0,1,0,.722.719A.72.72,0,0,0,.72,0Z" transform="translate(154.88 95.413)" fill="#fff"/><path d="M.55,0A.55.55,0,1,0,1.1.55.551.551,0,0,0,.55,0Z" transform="translate(164.27 94.785)" fill="#fff"/><path d="M.55,0A.55.55,0,1,0,1.1.549.551.551,0,0,0,.55,0Z" transform="translate(173.522 94.626)" fill="#fff"/><path d="M.72,0a.721.721,0,1,0,.722.722A.722.722,0,0,0,.72,0Z" transform="translate(182.595 94.933)" fill="#fff"/><path d="M.893,0a.891.891,0,1,0,.89.891A.893.893,0,0,0,.893,0Z" transform="translate(191.609 95.878)" fill="#fff"/><path d="M.755,0a.755.755,0,1,0,.755.754A.756.756,0,0,0,.755,0Z" transform="translate(200.835 97.762)" fill="#fff"/><path d="M1.2,0A1.2,1.2,0,1,0,2.4,1.2,1.2,1.2,0,0,0,1.2,0Z" transform="translate(209.336 99.685)" fill="#fff"/><path d="M1.475,0A1.475,1.475,0,1,0,2.951,1.475,1.475,1.475,0,0,0,1.475,0Z" transform="translate(217.823 102.391)" fill="#fff"/><path d="M1.2,0A1.2,1.2,0,1,0,2.4,1.2,1.2,1.2,0,0,0,1.2,0Z" transform="translate(226.629 106.244)" fill="#fff"/><path d="M1.2,0A1.2,1.2,0,1,0,2.4,1.2,1.2,1.2,0,0,0,1.2,0Z" transform="translate(234.898 110.403)" fill="#fff"/><path d="M1.338,0A1.339,1.339,0,1,0,2.679,1.338,1.34,1.34,0,0,0,1.338,0Z" transform="translate(242.721 114.984)" fill="#fff"/><path d="M1.648,0A1.647,1.647,0,1,0,3.3,1.648,1.648,1.648,0,0,0,1.648,0Z" transform="translate(250.028 119.933)" fill="#fff"/><path d="M.893,0a.891.891,0,1,0,.893.89A.891.891,0,0,0,.893,0Z" transform="translate(258.02 126.46)" fill="#fff"/><path d="M.89,0a.893.893,0,1,0,.893.893A.891.891,0,0,0,.89,0Z" transform="translate(264.84 132.713)" fill="#fff"/><path d="M.723,0a.721.721,0,1,0,.719.723A.722.722,0,0,0,.723,0Z" transform="translate(271.383 139.596)" fill="#fff"/><path d="M.65,0A.652.652,0,1,0,1.3.654.652.652,0,0,0,.65,0Z" transform="translate(277.347 146.799)" fill="#fff"/><path d="M.654,0a.652.652,0,1,0,.651.653A.653.653,0,0,0,.654,0Z" transform="translate(282.734 154.325)" fill="#fff"/><path d="M.757,0a.755.755,0,1,0,.755.752A.754.754,0,0,0,.757,0Z" transform="translate(287.487 162.101)" fill="#fff"/><path d="M.517,0A.515.515,0,1,0,1.03.517.517.517,0,0,0,.517,0Z" transform="translate(292.026 170.533)" fill="#fff"/><path d="M.344,0A.344.344,0,0,0,0,.342.343.343,0,1,0,.344,0Z" transform="translate(295.924 179.177)" fill="#fff"/><path d="M.411,0A.412.412,0,1,0,.824.411.412.412,0,0,0,.411,0Z" transform="translate(298.988 187.817)" fill="#fff"/><path d="M.413,0A.413.413,0,1,0,.824.414.413.413,0,0,0,.413,0Z" transform="translate(301.51 196.719)" fill="#fff"/><path d="M.41,0A.411.411,0,1,0,.821.411.409.409,0,0,0,.41,0Z" transform="translate(303.415 205.778)" fill="#fff"/><path d="M.344,0A.346.346,0,0,0,0,.344.344.344,0,1,0,.344,0Z" transform="translate(304.756 215.013)" fill="#fff"/><path d="M.206,0A.2.2,0,1,0,.413.206.207.207,0,0,0,.206,0Z" transform="translate(305.533 224.383)" fill="#fff"/><path d="M.307,0A.308.308,0,0,0,0,.312a.307.307,0,1,0,.615,0A.31.31,0,0,0,.307,0Z" transform="translate(305.432 233.533)" fill="#fff"/><path d="M.307,0A.306.306,0,0,0,0,.307.309.309,0,1,0,.307,0Z" transform="translate(304.793 242.767)" fill="#fff"/><path d="M.138,0A.137.137,0,0,0,0,.136.139.139,0,0,0,.138.275.137.137,0,0,0,.275.136.135.135,0,0,0,.138,0Z" transform="translate(303.688 252.105)" fill="#fff"/><path d="M.206,0A.207.207,0,0,0,0,.2.206.206,0,1,0,.413.2.207.207,0,0,0,.206,0Z" transform="translate(301.717 261.093)" fill="#fff"/><path d="M.136,0a.138.138,0,0,0,0,.275A.138.138,0,0,0,.274.138.139.139,0,0,0,.136,0Z" transform="translate(299.263 270.063)" fill="#fff"/><path d="M.034,0A.034.034,0,0,0,0,.035.034.034,0,0,0,.034.069.034.034,0,1,0,.034,0Z" transform="translate(296.234 278.876)" fill="#fff"/><path d="M.035,0A.034.034,0,0,0,0,.035.033.033,0,0,0,.035.069.033.033,0,0,0,.067.035.033.033,0,0,0,.035,0Z" transform="translate(292.508 287.348)" fill="#fff"/><path d="M.1,0A.1.1,0,0,0,0,.105a.1.1,0,0,0,.1.1.1.1,0,0,0,.1-.1A.1.1,0,0,0,.1,0Z" transform="translate(288.138 295.473)" fill="#fff"/><path d="M.105,0A.106.106,0,0,0,0,.1.1.1,0,0,0,.105.2a.1.1,0,0,0,.1-.1A.1.1,0,0,0,.105,0Z" transform="translate(283.283 303.351)" fill="#fff"/><path d="M.135,0A.137.137,0,0,0,0,.139a.136.136,0,1,0,.272,0A.136.136,0,0,0,.135,0Z" transform="translate(277.862 310.842)" fill="#fff"/><path d="M.105,0A.108.108,0,0,0,0,.105a.1.1,0,0,0,.105.1.1.1,0,0,0,.1-.1A.1.1,0,0,0,.105,0Z" transform="translate(272 318.009)" fill="#fff"/><path d="M.1,0A.1.1,0,0,0,.1.2a.1.1,0,0,0,.1-.1A.1.1,0,0,0,.1,0Z" transform="translate(265.628 324.723)" fill="#fff"/><path d="M.1,0A.105.105,0,0,0,0,.1a.1.1,0,0,0,.1.1A.1.1,0,0,0,.2.1.1.1,0,0,0,.1,0Z" transform="translate(258.809 330.976)" fill="#fff"/><path d="M.035,0A.036.036,0,0,0,0,.035.034.034,0,0,0,.035.069.034.034,0,0,0,.069.035.035.035,0,0,0,.035,0Z" transform="translate(251.641 336.815)" fill="#fff"/><path d="M.032,0A.032.032,0,0,0,0,.034.033.033,0,0,0,.032.069.035.035,0,0,0,.069.034.034.034,0,0,0,.032,0Z" transform="translate(244.027 342.073)" fill="#fff"/><path d="M.032,0A.033.033,0,0,0,0,.035.033.033,0,0,0,.032.07.034.034,0,0,0,.067.035.034.034,0,0,0,.032,0Z" transform="translate(236.066 346.792)" fill="#fff"/><path d="M.037,0A.037.037,0,0,0,0,.035.037.037,0,0,0,.037.07.033.033,0,0,0,.069.035.033.033,0,0,0,.037,0Z" transform="translate(227.796 350.95)" fill="#fff"/><path d="M.037,0A.035.035,0,0,0,0,.035.035.035,0,0,0,.037.069.034.034,0,0,0,.069.035.034.034,0,0,0,.037,0Z" transform="translate(42.744 265.737)" fill="#fff"/><path d="M.032,0A.032.032,0,0,0,0,.034.032.032,0,0,0,.032.069.034.034,0,0,0,.066.034.034.034,0,0,0,.032,0Z" transform="translate(40.532 256.751)" fill="#fff"/><path d="M.032,0A.035.035,0,0,0,0,.035.034.034,0,0,0,.032.069.035.035,0,0,0,.069.035.036.036,0,0,0,.032,0Z" transform="translate(38.94 247.634)" fill="#fff"/><path d="M.032,0A.034.034,0,0,0,0,.034.035.035,0,0,0,.032.069.036.036,0,0,0,.069.034.035.035,0,0,0,.032,0Z" transform="translate(37.985 238.43)" fill="#fff"/><path d="M.1,0A.1.1,0,0,0,0,.1a.105.105,0,0,0,.1.1.1.1,0,0,0,.1-.1A.1.1,0,0,0,.1,0Z" transform="translate(27.282 229.113)" fill="#fff"/><path d="M.1,0A.1.1,0,0,0,0,.1a.1.1,0,0,0,.1.1.105.105,0,0,0,.1-.1A.1.1,0,0,0,.1,0Z" transform="translate(27.58 219.862)" fill="#fff"/><ellipse cx="0.102" cy="0.102" rx="0.102" ry="0.102" transform="translate(28.47 210.651)" fill="#fff"/><path d="M.139,0A.139.139,0,0,0,0,.136.138.138,0,0,0,.139.274.135.135,0,0,0,.274.136.136.136,0,0,0,.139,0Z" transform="translate(29.911 201.48)" fill="#fff"/><path d="M.138,0a.138.138,0,0,0,0,.277A.138.138,0,0,0,.138,0Z" transform="translate(31.97 192.456)" fill="#fff"/><path d="M.307,0A.308.308,0,0,0,0,.309a.307.307,0,1,0,.615,0A.309.309,0,0,0,.307,0Z" transform="translate(34.435 183.413)" fill="#fff"/><path d="M.413,0A.412.412,0,1,0,.824.413.413.413,0,0,0,.413,0Z" transform="translate(37.525 174.624)" fill="#fff"/><path d="M.1,0A.105.105,0,0,0,0,.1a.1.1,0,0,0,.1.1A.1.1,0,0,0,.2.1.1.1,0,0,0,.1,0Z" transform="translate(41.581 166.471)" fill="#fff"/><path d="M.1,0A.1.1,0,0,0,0,.1.1.1,0,1,0,.206.1.1.1,0,0,0,.1,0Z" transform="translate(45.862 158.266)" fill="#fff"/><path d="M.206,0A.206.206,0,1,0,.413.206.207.207,0,0,0,.206,0Z" transform="translate(50.556 150.249)" fill="#fff"/><path d="M.138,0A.135.135,0,0,0,0,.136.135.135,0,0,0,.138.272.136.136,0,1,0,.138,0Z" transform="translate(55.919 142.729)" fill="#fff"/><path d="M.2,0A.2.2,0,0,0,0,.2.2.2,0,0,0,.2.411.206.206,0,0,0,.2,0Z" transform="translate(61.624 135.424)" fill="#fff"/><path d="M.445,0A.446.446,0,1,0,.89.446.445.445,0,0,0,.445,0Z" transform="translate(67.605 128.333)" fill="#fff"/><path d="M.619,0a.617.617,0,1,0,.618.616A.618.618,0,0,0,.619,0Z" transform="translate(74.078 121.723)" fill="#fff"/><path d="M.445,0A.446.446,0,1,0,.89.445.444.444,0,0,0,.445,0Z" transform="translate(81.3 115.895)" fill="#fff"/><path d="M.722,0a.722.722,0,1,0,.72.722A.721.721,0,0,0,.722,0Z" transform="translate(88.44 110.083)" fill="#fff"/><ellipse cx="0.994" cy="0.994" rx="0.994" ry="0.994" transform="translate(95.923 104.763)" fill="#fff"/><path d="M1.37,0A1.372,1.372,0,1,0,2.744,1.373,1.37,1.37,0,0,0,1.37,0Z" transform="translate(103.61 99.843)" fill="#fff"/><path d="M1,0a1,1,0,1,0,1,1A1,1,0,0,0,1,0Z" transform="translate(112.323 96.204)" fill="#fff"/><path d="M1.475,0A1.475,1.475,0,1,0,2.949,1.475,1.476,1.476,0,0,0,1.475,0Z" transform="translate(120.422 92.25)" fill="#fff"/><path d="M1.475,0A1.476,1.476,0,1,0,2.951,1.477,1.477,1.477,0,0,0,1.475,0Z" transform="translate(129.207 89.334)" fill="#fff"/><path d="M.893,0a.893.893,0,1,0,.893.891A.893.893,0,0,0,.893,0Z" transform="translate(138.739 87.571)" fill="#fff"/><path d="M.962,0a.96.96,0,1,0,.962.96A.962.962,0,0,0,.962,0Z" transform="translate(147.755 85.734)" fill="#fff"/><path d="M1.133,0A1.131,1.131,0,1,0,2.264,1.131,1.131,1.131,0,0,0,1.133,0Z" transform="translate(156.763 84.379)" fill="#fff"/><path d="M.789,0a.789.789,0,1,0,.787.789A.789.789,0,0,0,.789,0Z" transform="translate(166.344 84.128)" fill="#fff"/><path d="M1.1,0A1.1,1.1,0,1,0,2.2,1.1,1.1,1.1,0,0,0,1.1,0Z" transform="translate(175.288 83.821)" fill="#fff"/><path d="M1.235,0A1.236,1.236,0,1,0,2.469,1.237,1.236,1.236,0,0,0,1.235,0Z" transform="translate(184.386 84.273)" fill="#fff"/><path d="M1.235,0A1.235,1.235,0,1,0,2.469,1.235,1.235,1.235,0,0,0,1.235,0Z" transform="translate(193.566 85.458)" fill="#fff"/><path d="M1.3,0a1.3,1.3,0,1,0,1.3,1.3A1.3,1.3,0,0,0,1.3,0Z" transform="translate(202.581 87.158)" fill="#fff"/><path d="M1.714,0A1.716,1.716,0,1,0,3.431,1.717,1.716,1.716,0,0,0,1.714,0Z" transform="translate(211.121 89.094)" fill="#fff"/><path d="M1.956,0A1.955,1.955,0,1,0,3.909,1.954,1.954,1.954,0,0,0,1.956,0Z" transform="translate(219.665 91.771)" fill="#fff"/><path d="M1.61,0A1.612,1.612,0,1,0,3.221,1.613,1.612,1.612,0,0,0,1.61,0Z" transform="translate(228.588 95.586)" fill="#fff"/><path d="M2.365,0A2.368,2.368,0,1,0,4.734,2.368,2.365,2.365,0,0,0,2.365,0Z" transform="translate(236.17 98.847)" fill="#fff"/><path d="M2.061,0A2.058,2.058,0,1,0,4.119,2.058,2.059,2.059,0,0,0,2.061,0Z" transform="translate(244.539 103.698)" fill="#fff"/><path d="M2.162,0A2.162,2.162,0,1,0,4.325,2.162,2.163,2.163,0,0,0,2.162,0Z" transform="translate(252.193 108.643)" fill="#fff"/><path d="M1.887,0A1.887,1.887,0,1,0,3.773,1.887,1.887,1.887,0,0,0,1.887,0Z" transform="translate(259.887 114.453)" fill="#fff"/><path d="M1.991,0A1.99,1.99,0,1,0,3.98,1.989,1.99,1.99,0,0,0,1.991,0Z" transform="translate(266.83 120.35)" fill="#fff"/><path d="M1.3,0A1.3,1.3,0,1,0,2.608,1.3,1.3,1.3,0,0,0,1.3,0Z" transform="translate(274.165 127.475)" fill="#fff"/><path d="M1.1,0a1.1,1.1,0,1,0,1.1,1.095A1.1,1.1,0,0,0,1.1,0Z" transform="translate(280.593 134.533)" fill="#fff"/><path d="M1.1,0a1.1,1.1,0,1,0,1.1,1.1A1.1,1.1,0,0,0,1.1,0Z" transform="translate(286.365 141.767)" fill="#fff"/><path d="M.962,0a.961.961,0,1,0,.962.96A.961.961,0,0,0,.962,0Z" transform="translate(291.794 149.495)" fill="#fff"/><path d="M.752,0a.755.755,0,1,0,.757.755A.755.755,0,0,0,.752,0Z" transform="translate(296.798 157.613)" fill="#fff"/><path d="M.856,0a.859.859,0,1,0,.861.858A.856.856,0,0,0,.856,0Z" transform="translate(300.977 165.717)" fill="#fff"/><path d="M.859,0a.858.858,0,1,0,.858.859A.86.86,0,0,0,.859,0Z" transform="translate(304.721 174.178)" fill="#fff"/><path d="M.893,0a.893.893,0,1,0,.893.891A.893.893,0,0,0,.893,0Z" transform="translate(307.883 182.83)" fill="#fff"/><path d="M.654,0a.652.652,0,1,0,.651.651A.653.653,0,0,0,.654,0Z" transform="translate(310.756 191.943)" fill="#fff"/><ellipse cx="0.618" cy="0.618" rx="0.618" ry="0.618" transform="translate(312.849 200.999)" fill="#fff"/><path d="M.722,0a.722.722,0,1,0,.717.722A.722.722,0,0,0,.722,0Z" transform="translate(314.227 210.031)" fill="#fff"/><path d="M.547,0A.55.55,0,1,0,1.1.549.549.549,0,0,0,.547,0Z" transform="translate(315.286 219.414)" fill="#fff"/><path d="M.514,0a.514.514,0,1,0,.514.514A.514.514,0,0,0,.514,0Z" transform="translate(315.618 228.701)" fill="#fff"/><path d="M.446,0A.446.446,0,1,0,.893.446.447.447,0,0,0,.446,0Z" transform="translate(315.387 238.019)" fill="#fff"/><path d="M.448,0A.446.446,0,1,0,.89.445.446.446,0,0,0,.448,0Z" transform="translate(314.5 247.232)" fill="#fff"/><path d="M.341,0a.344.344,0,0,0,0,.688A.342.342,0,0,0,.683.344.341.341,0,0,0,.341,0Z" transform="translate(313.127 256.47)" fill="#fff"/><path d="M.206,0A.206.206,0,1,0,.413.2.206.206,0,0,0,.206,0Z" transform="translate(311.204 265.63)" fill="#fff"/><ellipse cx="0.343" cy="0.343" rx="0.343" ry="0.343" transform="translate(308.433 274.364)" fill="#fff"/><path d="M.136,0A.136.136,0,0,0,0,.138a.135.135,0,1,0,.271,0A.135.135,0,0,0,.136,0Z" transform="translate(305.444 283.257)" fill="#fff"/><path d="M.206,0A.206.206,0,1,0,.413.2.206.206,0,0,0,.206,0Z" transform="translate(301.627 291.651)" fill="#fff"/><path d="M.1,0A.1.1,0,0,0,0,.1a.1.1,0,0,0,.1.1A.1.1,0,0,0,.206.1.1.1,0,0,0,.1,0Z" transform="translate(297.45 299.959)" fill="#fff"/><path d="M.206,0A.2.2,0,0,0,0,.2.207.207,0,0,0,.206.413.207.207,0,0,0,.411.2.2.2,0,0,0,.206,0Z" transform="translate(292.549 307.77)" fill="#fff"/><path d="M.138,0a.136.136,0,1,0,0,.272A.136.136,0,1,0,.138,0Z" transform="translate(287.323 315.43)" fill="#fff"/><path d="M.1,0A.1.1,0,0,0,0,.1a.105.105,0,0,0,.1.1A.106.106,0,0,0,.209.1.105.105,0,0,0,.1,0Z" transform="translate(281.587 322.699)" fill="#fff"/><path d="M.1,0A.106.106,0,0,0,0,.1a.1.1,0,0,0,.1.1.1.1,0,0,0,.1-.1A.106.106,0,0,0,.1,0Z" transform="translate(275.364 329.548)" fill="#fff"/><path d="M.035,0A.036.036,0,0,0,0,.034.036.036,0,0,0,.035.067.034.034,0,0,0,.069.034.034.034,0,0,0,.035,0Z" transform="translate(268.785 336.057)" fill="#fff"/><path d="M.035,0A.033.033,0,0,0,0,.034a.034.034,0,1,0,.069,0A.033.033,0,0,0,.035,0Z" transform="translate(30.014 256.78)" fill="#fff"/><path d="M.037,0A.037.037,0,0,0,0,.034.037.037,0,0,0,.037.069.034.034,0,0,0,.069.034.034.034,0,0,0,.037,0Z" transform="translate(28.536 247.643)" fill="#fff"/><path d="M.034,0A.034.034,0,0,0,0,.035.034.034,0,0,0,.034.069.036.036,0,0,0,.069.035.037.037,0,0,0,.034,0Z" transform="translate(27.649 238.431)" fill="#fff"/><path d="M.1,0A.1.1,0,0,0,0,.1a.105.105,0,0,0,.1.1A.1.1,0,0,0,.2.1.1.1,0,0,0,.1,0Z" transform="translate(16.971 229.113)" fill="#fff"/><path d="M.31,0a.31.31,0,1,0,0,.619A.31.31,0,0,0,.31,0Z" transform="translate(17.043 219.656)" fill="#fff"/><path d="M.24,0A.24.24,0,1,0,.482.239.24.24,0,0,0,.24,0Z" transform="translate(17.941 210.507)" fill="#fff"/><path d="M.239,0A.239.239,0,0,0,0,.242.236.236,0,0,0,.239.48.236.236,0,0,0,.477.242.239.239,0,0,0,.239,0Z" transform="translate(19.321 201.355)" fill="#fff"/><path d="M.209,0A.208.208,0,0,0,0,.206a.208.208,0,0,0,.416,0A.21.21,0,0,0,.209,0Z" transform="translate(21.277 192.336)" fill="#fff"/><path d="M.651,0A.652.652,0,1,0,1.3.653.651.651,0,0,0,.651,0Z" transform="translate(23.295 182.969)" fill="#fff"/><path d="M1.131,0A1.133,1.133,0,1,0,2.263,1.133,1.13,1.13,0,0,0,1.131,0Z" transform="translate(25.807 173.73)" fill="#fff"/><path d="M.411,0A.412.412,0,1,0,.824.414.413.413,0,0,0,.411,0Z" transform="translate(30.036 165.886)" fill="#fff"/><path d="M.893,0a.892.892,0,1,0,.89.893A.893.893,0,0,0,.893,0Z" transform="translate(33.571 157.069)" fill="#fff"/><path d="M.719,0a.72.72,0,1,0,.72.722A.721.721,0,0,0,.719,0Z" transform="translate(38.251 149.157)" fill="#fff"/><path d="M.31,0A.309.309,0,1,0,.618.307.308.308,0,0,0,.31,0Z" transform="translate(43.643 141.771)" fill="#fff"/><path d="M.549,0A.55.55,0,1,0,1.1.55.55.55,0,0,0,.549,0Z" transform="translate(48.843 134.042)" fill="#fff"/><path d="M.514,0a.514.514,0,1,0,.515.515A.514.514,0,0,0,.514,0Z" transform="translate(54.756 126.928)" fill="#fff"/><path d="M.514,0a.514.514,0,1,0,.517.515A.515.515,0,0,0,.514,0Z" transform="translate(61.05 120.142)" fill="#fff"/><path d="M.861,0a.859.859,0,1,0,.856.858A.86.86,0,0,0,.861,0Z" transform="translate(67.396 113.404)" fill="#fff"/><path d="M.962,0A.961.961,0,1,0,1.92.962.961.961,0,0,0,.962,0Z" transform="translate(74.354 107.318)" fill="#fff"/><path d="M1.306,0a1.3,1.3,0,1,0,1.3,1.3A1.3,1.3,0,0,0,1.306,0Z" transform="translate(81.416 101.422)" fill="#fff"/><path d="M1.3,0A1.3,1.3,0,1,0,2.607,1.306,1.3,1.3,0,0,0,1.3,0Z" transform="translate(89.141 96.323)" fill="#fff"/><path d="M1.957,0A1.956,1.956,0,1,0,3.913,1.957,1.958,1.958,0,0,0,1.957,0Z" transform="translate(96.502 91.045)" fill="#fff"/><ellipse cx="1.75" cy="1.75" rx="1.75" ry="1.75" transform="translate(104.986 87.111)" fill="#fff"/><path d="M1.475,0A1.475,1.475,0,1,0,2.951,1.475,1.474,1.474,0,0,0,1.475,0Z" transform="translate(113.771 83.749)" fill="#fff"/><path d="M1.475,0A1.475,1.475,0,1,0,2.951,1.475,1.475,1.475,0,0,0,1.475,0Z" transform="translate(122.481 80.625)" fill="#fff"/><path d="M1.475,0A1.475,1.475,0,1,0,2.951,1.475,1.475,1.475,0,0,0,1.475,0Z" transform="translate(131.366 78.031)" fill="#fff"/><path d="M1.2,0A1.2,1.2,0,1,0,2.4,1.2,1.2,1.2,0,0,0,1.2,0Z" transform="translate(140.665 76.243)" fill="#fff"/><path d="M1.131,0A1.132,1.132,0,1,0,2.263,1.131,1.13,1.13,0,0,0,1.131,0Z" transform="translate(149.863 74.799)" fill="#fff"/><path d="M1.235,0A1.235,1.235,0,1,0,2.469,1.237,1.236,1.236,0,0,0,1.235,0Z" transform="translate(158.965 73.727)" fill="#fff"/><path d="M1.37,0A1.373,1.373,0,1,0,2.744,1.373,1.372,1.372,0,0,0,1.37,0Z" transform="translate(168.073 73.175)" fill="#fff"/><path d="M1.748,0A1.75,1.75,0,1,0,3.5,1.749,1.749,1.749,0,0,0,1.748,0Z" transform="translate(176.95 72.936)" fill="#fff"/><path d="M1.749,0A1.75,1.75,0,1,0,3.5,1.749,1.747,1.747,0,0,0,1.749,0Z" transform="translate(186.178 73.629)" fill="#fff"/><path d="M1.92,0A1.921,1.921,0,1,0,3.844,1.92,1.92,1.92,0,0,0,1.92,0Z" transform="translate(195.178 74.701)" fill="#fff"/><path d="M2.127,0A2.128,2.128,0,1,0,4.255,2.128,2.128,2.128,0,0,0,2.127,0Z" transform="translate(204.053 76.282)" fill="#fff"/><path d="M2.13,0A2.128,2.128,0,1,0,4.257,2.128,2.128,2.128,0,0,0,2.13,0Z" transform="translate(213.008 78.609)" fill="#fff"/><path d="M2.4,0A2.4,2.4,0,1,0,4.8,2.4,2.4,2.4,0,0,0,2.4,0Z" transform="translate(221.538 81.196)" fill="#fff"/><path d="M2.3,0A2.3,2.3,0,1,0,4.6,2.3,2.3,2.3,0,0,0,2.3,0Z" transform="translate(230.255 84.679)" fill="#fff"/><path d="M2.676,0A2.676,2.676,0,1,0,5.351,2.677,2.676,2.676,0,0,0,2.676,0Z" transform="translate(238.275 88.192)" fill="#fff"/><path d="M2.4,0A2.4,2.4,0,1,0,4.8,2.4,2.4,2.4,0,0,0,2.4,0Z" transform="translate(246.7 92.852)" fill="#fff"/><path d="M2.541,0A2.539,2.539,0,1,0,5.079,2.538,2.54,2.54,0,0,0,2.541,0Z" transform="translate(254.433 97.581)" fill="#fff"/><ellipse cx="2.299" cy="2.299" rx="2.299" ry="2.299" transform="translate(262.242 103.147)" fill="#fff"/><path d="M2.78,0a2.779,2.779,0,1,0,2.78,2.78A2.78,2.78,0,0,0,2.78,0Z" transform="translate(268.998 108.438)" fill="#fff"/><path d="M2.538,0A2.54,2.54,0,1,0,5.079,2.54,2.539,2.539,0,0,0,2.538,0Z" transform="translate(276.116 114.87)" fill="#fff"/><path d="M2.541,0A2.539,2.539,0,1,0,5.079,2.538,2.539,2.539,0,0,0,2.541,0Z" transform="translate(282.611 121.465)" fill="#fff"/><path d="M1.821,0A1.819,1.819,0,1,0,3.64,1.818,1.82,1.82,0,0,0,1.821,0Z" transform="translate(289.42 129.154)" fill="#fff"/><path d="M1.478,0A1.475,1.475,0,1,0,2.952,1.475,1.476,1.476,0,0,0,1.478,0Z" transform="translate(295.425 136.82)" fill="#fff"/><ellipse cx="1.579" cy="1.579" rx="1.579" ry="1.579" transform="translate(300.535 144.362)" fill="#fff"/><path d="M1.576,0A1.579,1.579,0,1,0,3.156,1.579,1.578,1.578,0,0,0,1.576,0Z" transform="translate(305.285 152.306)" fill="#fff"/><path d="M1.338,0A1.338,1.338,0,1,0,2.679,1.338,1.338,1.338,0,0,0,1.338,0Z" transform="translate(309.785 160.763)" fill="#fff"/><path d="M1.1,0a1.1,1.1,0,1,0,1.1,1.1A1.1,1.1,0,0,0,1.1,0Z" transform="translate(313.792 169.456)" fill="#fff"/><path d="M.893,0a.892.892,0,1,0,.893.893A.894.894,0,0,0,.893,0Z" transform="translate(317.248 178.327)" fill="#fff"/><path d="M1.1,0a1.1,1.1,0,1,0,1.1,1.1A1.095,1.095,0,0,0,1.1,0Z" transform="translate(319.772 186.967)" fill="#fff"/><path d="M.72,0a.721.721,0,1,0,.72.722A.721.721,0,0,0,.72,0Z" transform="translate(322.342 196.334)" fill="#fff"/><path d="M.723,0a.722.722,0,1,0,.72.723A.724.724,0,0,0,.723,0Z" transform="translate(323.993 205.438)" fill="#fff"/><path d="M.757,0a.754.754,0,1,0,.755.755A.755.755,0,0,0,.757,0Z" transform="translate(325.065 214.595)" fill="#fff"/><path d="M.72,0a.722.722,0,1,0,.72.723A.721.721,0,0,0,.72,0Z" transform="translate(325.654 223.867)" fill="#fff"/><path d="M.651,0A.652.652,0,1,0,1.3.654.652.652,0,0,0,.651,0Z" transform="translate(325.723 233.19)" fill="#fff"/><path d="M.514,0A.511.511,0,0,0,0,.515.514.514,0,1,0,.514,0Z" transform="translate(325.308 242.567)" fill="#fff"/><path d="M.549,0a.55.55,0,1,0,.546.55A.55.55,0,0,0,.549,0Z" transform="translate(324.168 251.719)" fill="#fff"/><path d="M.514,0a.514.514,0,1,0,.517.515A.514.514,0,0,0,.514,0Z" transform="translate(322.549 260.862)" fill="#fff"/><path d="M.514,0a.514.514,0,1,0,.517.515A.515.515,0,0,0,.514,0Z" transform="translate(320.353 269.852)" fill="#fff"/><path d="M.342,0A.343.343,0,1,0,.686.344.342.342,0,0,0,.342,0Z" transform="translate(317.798 278.867)" fill="#fff"/><path d="M.411,0A.412.412,0,1,0,.824.411.412.412,0,0,0,.411,0Z" transform="translate(314.477 287.464)" fill="#fff"/><path d="M.615,0a.618.618,0,1,0,.619.619A.621.621,0,0,0,.615,0Z" transform="translate(310.508 295.711)" fill="#fff"/><path d="M.31,0A.31.31,0,0,0,0,.307.31.31,0,0,0,.31.615.307.307,0,1,0,.31,0Z" transform="translate(306.551 304.238)" fill="#fff"/><path d="M.307,0A.308.308,0,0,0,0,.309.307.307,0,0,0,.307.618.31.31,0,0,0,.618.309.311.311,0,0,0,.307,0Z" transform="translate(301.807 312.181)" fill="#fff"/><path d="M.105,0A.1.1,0,0,0,0,.1.1.1,0,0,0,.105.206.1.1,0,0,0,.206.1.1.1,0,0,0,.105,0Z" transform="translate(296.798 320.035)" fill="#fff"/><path d="M.136,0A.139.139,0,0,0,0,.138.139.139,0,0,0,.136.275.138.138,0,1,0,.136,0Z" transform="translate(291.101 327.321)" fill="#fff"/><path d="M.209,0A.21.21,0,0,0,0,.208a.209.209,0,0,0,.209.2A.206.206,0,0,0,.209,0Z" transform="translate(7.591 210.534)" fill="#fff"/><path d="M.307,0A.307.307,0,0,0,0,.309.306.306,0,0,0,.307.616.308.308,0,1,0,.307,0Z" transform="translate(8.785 201.269)" fill="#fff"/><path d="M.242,0A.24.24,0,1,0,.48.24.241.241,0,0,0,.242,0Z" transform="translate(10.658 192.261)" fill="#fff"/><path d="M.413,0A.412.412,0,1,0,.824.411.413.413,0,0,0,.413,0Z" transform="translate(12.799 183.127)" fill="#fff"/><path d="M.792,0a.788.788,0,1,0,.787.789A.791.791,0,0,0,.792,0Z" transform="translate(15.23 173.932)" fill="#fff"/><path d="M1.2,0A1.2,1.2,0,1,0,2.4,1.2,1.2,1.2,0,0,0,1.2,0Z" transform="translate(18.121 164.873)" fill="#fff"/><path d="M1.338,0A1.337,1.337,0,1,0,2.676,1.336,1.338,1.338,0,0,0,1.338,0Z" transform="translate(21.763 156.289)" fill="#fff"/><path d="M1.885,0A1.887,1.887,0,1,0,3.772,1.887,1.885,1.885,0,0,0,1.885,0Z" transform="translate(25.463 147.516)" fill="#fff"/><path d="M.789,0a.79.79,0,1,0,.792.79A.791.791,0,0,0,.789,0Z" transform="translate(31.262 140.642)" fill="#fff"/><path d="M.89,0a.891.891,0,1,0,.893.893A.889.889,0,0,0,.89,0Z" transform="translate(36.303 132.845)" fill="#fff"/><path d="M.549,0A.549.549,0,1,0,1.1.549.548.548,0,0,0,.549,0Z" transform="translate(42.211 125.792)" fill="#fff"/><path d="M.89,0a.892.892,0,1,0,.893.893A.89.89,0,0,0,.89,0Z" transform="translate(47.839 118.378)" fill="#fff"/><ellipse cx="1.132" cy="1.132" rx="1.132" ry="1.132" transform="translate(53.957 111.412)" fill="#fff"/><path d="M.861,0a.857.857,0,1,0,.856.858A.858.858,0,0,0,.861,0Z" transform="translate(60.954 105.33)" fill="#fff"/><path d="M1.717,0A1.715,1.715,0,1,0,3.431,1.714,1.715,1.715,0,0,0,1.717,0Z" transform="translate(67.169 98.5)" fill="#fff"/><path d="M1.717,0A1.715,1.715,0,1,0,3.434,1.717,1.717,1.717,0,0,0,1.717,0Z" transform="translate(74.563 92.935)" fill="#fff"/><path d="M1.751,0A1.75,1.75,0,1,0,3.5,1.749,1.749,1.749,0,0,0,1.751,0Z" transform="translate(82.225 87.759)" fill="#fff"/><path d="M1.959,0A1.956,1.956,0,1,0,3.914,1.956,1.958,1.958,0,0,0,1.959,0Z" transform="translate(89.99 82.85)" fill="#fff"/><path d="M2.4,0a2.4,2.4,0,1,0,2.4,2.405A2.406,2.406,0,0,0,2.4,0Z" transform="translate(97.765 78.155)" fill="#fff"/><path d="M1.992,0A1.99,1.99,0,1,0,3.984,1.991,1.991,1.991,0,0,0,1.992,0Z" transform="translate(106.625 74.788)" fill="#fff"/><path d="M1.819,0A1.819,1.819,0,1,0,3.64,1.819,1.82,1.82,0,0,0,1.819,0Z" transform="translate(115.444 71.658)" fill="#fff"/><path d="M1.959,0A1.956,1.956,0,1,0,3.911,1.956,1.956,1.956,0,0,0,1.959,0Z" transform="translate(124.125 68.71)" fill="#fff"/><path d="M2.125,0a2.128,2.128,0,1,0,2.13,2.125A2.127,2.127,0,0,0,2.125,0Z" transform="translate(132.916 66.229)" fill="#fff"/><path d="M1.992,0A1.991,1.991,0,1,0,3.984,1.991,1.991,1.991,0,0,0,1.992,0Z" transform="translate(142.128 64.559)" fill="#fff"/><ellipse cx="1.991" cy="1.991" rx="1.991" ry="1.991" transform="translate(151.294 63.265)" fill="#fff"/><path d="M2.3,0A2.3,2.3,0,1,0,4.6,2.3,2.3,2.3,0,0,0,2.3,0Z" transform="translate(160.206 62.179)" fill="#fff"/><path d="M2.3,0A2.3,2.3,0,1,0,4.6,2.3,2.3,2.3,0,0,0,2.3,0Z" transform="translate(169.458 61.919)" fill="#fff"/><path d="M2.437,0A2.436,2.436,0,1,0,4.871,2.436,2.435,2.435,0,0,0,2.437,0Z" transform="translate(178.575 62.043)" fill="#fff"/><path d="M2.368,0A2.368,2.368,0,1,0,4.737,2.368,2.367,2.367,0,0,0,2.368,0Z" transform="translate(187.865 62.888)" fill="#fff"/><path d="M2.679,0A2.677,2.677,0,1,0,5.354,2.677,2.68,2.68,0,0,0,2.679,0Z" transform="translate(196.719 63.873)" fill="#fff"/><path d="M2.5,0a2.5,2.5,0,1,0,2.5,2.5A2.5,2.5,0,0,0,2.5,0Z" transform="translate(205.97 65.851)" fill="#fff"/><path d="M2.572,0A2.574,2.574,0,1,0,5.146,2.573,2.572,2.572,0,0,0,2.572,0Z" transform="translate(214.863 68.093)" fill="#fff"/><path d="M2.509,0a2.505,2.505,0,1,0,2.5,2.506A2.508,2.508,0,0,0,2.509,0Z" transform="translate(223.747 70.972)" fill="#fff"/><path d="M2.506,0A2.5,2.5,0,1,0,5.012,2.5,2.506,2.506,0,0,0,2.506,0Z" transform="translate(232.395 74.274)" fill="#fff"/><path d="M2.676,0A2.676,2.676,0,1,0,5.351,2.677,2.676,2.676,0,0,0,2.676,0Z" transform="translate(240.673 77.882)" fill="#fff"/><path d="M2.673,0A2.676,2.676,0,1,0,5.348,2.676,2.674,2.674,0,0,0,2.673,0Z" transform="translate(248.897 82.13)" fill="#fff"/><path d="M2.882,0A2.881,2.881,0,1,0,5.764,2.881,2.879,2.879,0,0,0,2.882,0Z" transform="translate(256.661 86.628)" fill="#fff"/><path d="M2.538,0A2.539,2.539,0,1,0,5.076,2.54,2.537,2.537,0,0,0,2.538,0Z" transform="translate(264.7 92.112)" fill="#fff"/><path d="M2.676,0A2.676,2.676,0,1,0,5.354,2.676,2.676,2.676,0,0,0,2.676,0Z" transform="translate(271.956 97.538)" fill="#fff"/><ellipse cx="2.849" cy="2.849" rx="2.849" ry="2.849" transform="translate(278.855 103.338)" fill="#fff"/><path d="M2.951,0A2.95,2.95,0,1,0,5.9,2.951,2.951,2.951,0,0,0,2.951,0Z" transform="translate(285.478 109.594)" fill="#fff"/><path d="M2.85,0A2.848,2.848,0,1,0,5.7,2.848,2.849,2.849,0,0,0,2.85,0Z" transform="translate(291.939 116.422)" fill="#fff"/><path d="M2.437,0A2.436,2.436,0,1,0,4.874,2.436,2.437,2.437,0,0,0,2.437,0Z" transform="translate(298.321 123.905)" fill="#fff"/><path d="M2.437,0A2.437,2.437,0,1,0,4.874,2.439,2.437,2.437,0,0,0,2.437,0Z" transform="translate(303.888 131.299)" fill="#fff"/><path d="M2.4,0A2.4,2.4,0,1,0,4.8,2.4,2.4,2.4,0,0,0,2.4,0Z" transform="translate(309.063 139.029)" fill="#fff"/><path d="M1.752,0A1.75,1.75,0,1,0,3.5,1.749,1.749,1.749,0,0,0,1.752,0Z" transform="translate(314.418 147.654)" fill="#fff"/><path d="M1.89,0A1.886,1.886,0,1,0,3.778,1.885,1.888,1.888,0,0,0,1.89,0Z" transform="translate(318.526 155.74)" fill="#fff"/><path d="M1.887,0A1.888,1.888,0,1,0,3.775,1.888,1.887,1.887,0,0,0,1.887,0Z" transform="translate(322.31 164.186)" fill="#fff"/><path d="M1.511,0A1.511,1.511,0,1,0,3.02,1.512,1.513,1.513,0,0,0,1.511,0Z" transform="translate(325.986 173.208)" fill="#fff"/><path d="M1.648,0A1.648,1.648,0,1,0,3.293,1.648,1.65,1.65,0,0,0,1.648,0Z" transform="translate(328.658 181.89)" fill="#fff"/><path d="M1.2,0A1.2,1.2,0,1,0,2.4,1.2,1.2,1.2,0,0,0,1.2,0Z" transform="translate(331.418 191.299)" fill="#fff"/><path d="M1.1,0A1.1,1.1,0,1,0,2.2,1.1,1.1,1.1,0,0,0,1.1,0Z" transform="translate(333.326 200.479)" fill="#fff"/><path d="M1.131,0A1.134,1.134,0,1,0,2.266,1.134,1.133,1.133,0,0,0,1.131,0Z" transform="translate(334.586 209.608)" fill="#fff"/><path d="M1.1,0A1.1,1.1,0,1,0,2.2,1.1,1.1,1.1,0,0,0,1.1,0Z" transform="translate(335.398 218.866)" fill="#fff"/><path d="M1.134,0A1.132,1.132,0,1,0,2.266,1.131,1.132,1.132,0,0,0,1.134,0Z" transform="translate(335.622 228.083)" fill="#fff"/><path d="M.856,0a.859.859,0,1,0,.861.856A.857.857,0,0,0,.856,0Z" transform="translate(335.638 237.61)" fill="#fff"/><path d="M.856,0a.858.858,0,1,0,.858.858A.857.857,0,0,0,.856,0Z" transform="translate(334.861 246.831)" fill="#fff"/><path d="M.858,0a.857.857,0,1,0,.856.856A.856.856,0,0,0,.858,0Z" transform="translate(333.568 255.996)" fill="#fff"/><ellipse cx="0.618" cy="0.618" rx="0.618" ry="0.618" transform="translate(332 265.313)" fill="#fff"/><path d="M.755,0a.755.755,0,1,0,.755.755A.757.757,0,0,0,.755,0Z" transform="translate(329.551 274.137)" fill="#fff"/><path d="M.445,0A.446.446,0,1,0,.89.445.445.445,0,0,0,.445,0Z" transform="translate(327.051 283.266)" fill="#fff"/><path d="M.344,0A.342.342,0,1,0,.685.342.342.342,0,0,0,.344,0Z" transform="translate(323.853 292.014)" fill="#fff"/><path d="M.446,0A.446.446,0,1,0,.891.445.445.445,0,0,0,.446,0Z" transform="translate(319.969 300.359)" fill="#fff"/><path d="M.448,0A.446.446,0,1,0,.893.445.446.446,0,0,0,.448,0Z" transform="translate(315.722 308.582)" fill="#fff"/><path d="M.138,0A.139.139,0,0,0,0,.138.137.137,0,0,0,.138.274.137.137,0,0,0,.278.138.14.14,0,0,0,.138,0Z" transform="translate(311.326 316.861)" fill="#fff"/><path d="M.037,0A.035.035,0,0,0,0,.034.035.035,0,0,0,.037.069.034.034,0,0,0,.069.034.034.034,0,0,0,.037,0Z" transform="translate(306.288 324.66)" fill="#fff"/><path d="M.347,0A.346.346,0,0,0,0,.342.345.345,0,0,0,.347.686.341.341,0,0,0,.687.342.341.341,0,0,0,.347,0Z" transform="translate(0 192.122)" fill="#fff"/><path d="M.309,0A.309.309,0,1,0,.616.309.309.309,0,0,0,.309,0Z" transform="translate(2.215 183.16)" fill="#fff"/><path d="M.2,0A.2.2,0,0,0,0,.2.2.2,0,0,0,.2.411.206.206,0,1,0,.2,0Z" transform="translate(4.969 174.397)" fill="#fff"/><path d="M.206,0a.2.2,0,1,0,0,.41A.208.208,0,0,0,.416.2.209.209,0,0,0,.206,0Z" transform="translate(8.08 165.682)" fill="#fff"/><path d="M1.2,0A1.2,1.2,0,1,0,2.4,1.2,1.2,1.2,0,0,0,1.2,0Z" transform="translate(10.658 156.146)" fill="#fff"/><path d="M1.923,0a1.922,1.922,0,1,0,1.92,1.922A1.923,1.923,0,0,0,1.923,0Z" transform="translate(13.952 147.087)" fill="#fff"/><path d="M1.579,0A1.579,1.579,0,1,0,3.156,1.578,1.578,1.578,0,0,0,1.579,0Z" transform="translate(18.745 139.315)" fill="#fff"/><path d="M1.581,0A1.578,1.578,0,1,0,3.157,1.578,1.577,1.577,0,0,0,1.581,0Z" transform="translate(23.617 131.446)" fill="#fff"/><path d="M.893,0a.892.892,0,1,0,.89.893A.892.892,0,0,0,.893,0Z" transform="translate(29.585 124.532)" fill="#fff"/><path d="M1.375,0A1.372,1.372,0,1,0,2.747,1.371,1.373,1.373,0,0,0,1.375,0Z" transform="translate(34.777 116.74)" fill="#fff"/><path d="M1.374,0A1.372,1.372,0,1,0,2.747,1.373,1.374,1.374,0,0,0,1.374,0Z" transform="translate(40.83 109.738)" fill="#fff"/><path d="M1.37,0A1.372,1.372,0,1,0,2.744,1.371,1.369,1.369,0,0,0,1.37,0Z" transform="translate(47.246 103.066)" fill="#fff"/><path d="M1.717,0A1.717,1.717,0,1,0,3.431,1.717,1.717,1.717,0,0,0,1.717,0Z" transform="translate(53.66 96.395)" fill="#fff"/><path d="M2.231,0A2.231,2.231,0,1,0,4.461,2.231,2.229,2.229,0,0,0,2.231,0Z" transform="translate(60.226 89.923)" fill="#fff"/><path d="M2.231,0A2.231,2.231,0,1,0,4.461,2.231,2.229,2.229,0,0,0,2.231,0Z" transform="translate(67.611 84.345)" fill="#fff"/><path d="M2.506,0a2.505,2.505,0,1,0,2.5,2.506A2.506,2.506,0,0,0,2.506,0Z" transform="translate(75.005 78.89)" fill="#fff"/><path d="M2.541,0A2.54,2.54,0,1,0,5.079,2.54,2.54,2.54,0,0,0,2.541,0Z" transform="translate(82.903 74.088)" fill="#fff"/><path d="M2.712,0A2.712,2.712,0,1,0,5.42,2.712,2.712,2.712,0,0,0,2.712,0Z" transform="translate(90.906 69.573)" fill="#fff"/><path d="M2.711,0A2.709,2.709,0,1,0,5.419,2.709,2.707,2.707,0,0,0,2.711,0Z" transform="translate(99.298 65.671)" fill="#fff"/><path d="M2.744,0A2.745,2.745,0,1,0,5.489,2.746,2.744,2.744,0,0,0,2.744,0Z" transform="translate(107.85 62.177)" fill="#fff"/><path d="M3.092,0A3.088,3.088,0,1,0,6.178,3.087,3.088,3.088,0,0,0,3.092,0Z" transform="translate(116.259 58.835)" fill="#fff"/><path d="M2.917,0A2.916,2.916,0,1,0,5.834,2.916,2.915,2.915,0,0,0,2.917,0Z" transform="translate(125.334 56.474)" fill="#fff"/><path d="M2.748,0A2.744,2.744,0,1,0,5.489,2.743,2.745,2.745,0,0,0,2.748,0Z" transform="translate(134.528 54.588)" fill="#fff"/><path d="M2.4,0A2.4,2.4,0,1,0,4.805,2.4,2.4,2.4,0,0,0,2.4,0Z" transform="translate(143.992 53.349)" fill="#fff"/><path d="M2.709,0A2.711,2.711,0,1,0,5.423,2.711,2.71,2.71,0,0,0,2.709,0Z" transform="translate(152.872 51.943)" fill="#fff"/><path d="M2.816,0A2.815,2.815,0,1,0,5.63,2.815,2.815,2.815,0,0,0,2.816,0Z" transform="translate(162.004 51.229)" fill="#fff"/><path d="M2.813,0A2.815,2.815,0,1,0,5.628,2.815,2.815,2.815,0,0,0,2.813,0Z" transform="translate(171.259 51.106)" fill="#fff"/><path d="M2.984,0A2.985,2.985,0,1,0,5.971,2.986,2.984,2.984,0,0,0,2.984,0Z" transform="translate(180.336 51.302)" fill="#fff"/><path d="M2.607,0a2.608,2.608,0,1,0,2.61,2.608A2.606,2.606,0,0,0,2.607,0Z" transform="translate(189.929 52.534)" fill="#fff"/><path d="M2.575,0A2.574,2.574,0,1,0,5.149,2.575,2.575,2.575,0,0,0,2.575,0Z" transform="translate(199.119 53.907)" fill="#fff"/><path d="M2.85,0A2.848,2.848,0,1,0,5.7,2.847,2.848,2.848,0,0,0,2.85,0Z" transform="translate(207.92 55.453)" fill="#fff"/><path d="M3.192,0A3.191,3.191,0,1,0,6.385,3.192,3.193,3.193,0,0,0,3.192,0Z" transform="translate(216.542 57.407)" fill="#fff"/><path d="M2.986,0A2.985,2.985,0,1,0,5.97,2.984,2.986,2.986,0,0,0,2.986,0Z" transform="translate(225.581 60.381)" fill="#fff"/><path d="M2.917,0A2.916,2.916,0,1,0,5.831,2.916,2.914,2.914,0,0,0,2.917,0Z" transform="translate(234.324 63.679)" fill="#fff"/><path d="M2.917,0A2.916,2.916,0,1,0,5.834,2.917,2.916,2.916,0,0,0,2.917,0Z" transform="translate(242.815 67.36)" fill="#fff"/><path d="M2.848,0A2.849,2.849,0,1,0,5.7,2.848,2.848,2.848,0,0,0,2.848,0Z" transform="translate(251.167 71.553)" fill="#fff"/><path d="M3.293,0A3.294,3.294,0,1,0,6.588,3.293,3.293,3.293,0,0,0,3.293,0Z" transform="translate(258.778 75.665)" fill="#fff"/><path d="M3.088,0A3.089,3.089,0,1,0,6.175,3.09,3.09,3.09,0,0,0,3.088,0Z" transform="translate(266.787 80.845)" fill="#fff"/><path d="M3.088,0A3.088,3.088,0,1,0,6.175,3.087,3.087,3.087,0,0,0,3.088,0Z" transform="translate(274.318 86.227)" fill="#fff"/><path d="M2.78,0a2.779,2.779,0,1,0,2.78,2.78A2.78,2.78,0,0,0,2.78,0Z" transform="translate(281.862 92.306)" fill="#fff"/><path d="M2.949,0A2.951,2.951,0,1,0,5.9,2.949,2.949,2.949,0,0,0,2.949,0Z" transform="translate(288.614 98.28)" fill="#fff"/><path d="M2.951,0A2.951,2.951,0,1,0,5.9,2.949,2.949,2.949,0,0,0,2.951,0Z" transform="translate(295.201 104.781)" fill="#fff"/><path d="M2.642,0A2.641,2.641,0,1,0,5.286,2.642,2.642,2.642,0,0,0,2.642,0Z" transform="translate(301.744 111.929)" fill="#fff"/><path d="M2.917,0A2.917,2.917,0,1,0,5.834,2.916,2.917,2.917,0,0,0,2.917,0Z" transform="translate(307.334 118.814)" fill="#fff"/><path d="M2.538,0A2.539,2.539,0,1,0,5.076,2.538,2.537,2.537,0,0,0,2.538,0Z" transform="translate(313.193 126.651)" fill="#fff"/><path d="M2.231,0A2.231,2.231,0,1,0,4.458,2.231,2.231,2.231,0,0,0,2.231,0Z" transform="translate(318.579 134.696)" fill="#fff"/><path d="M2.231,0A2.229,2.229,0,1,0,4.461,2.229,2.232,2.232,0,0,0,2.231,0Z" transform="translate(323.241 142.692)" fill="#fff"/><path d="M1.578,0A1.579,1.579,0,1,0,3.157,1.576,1.577,1.577,0,0,0,1.578,0Z" transform="translate(328.129 151.574)" fill="#fff"/><path d="M1.717,0A1.715,1.715,0,1,0,3.431,1.714,1.715,1.715,0,0,0,1.717,0Z" transform="translate(331.785 159.879)" fill="#fff"/><path d="M1.3,0a1.3,1.3,0,1,0,1.3,1.3A1.3,1.3,0,0,0,1.3,0Z" transform="translate(335.541 168.921)" fill="#fff"/><path d="M1.063,0A1.063,1.063,0,1,0,2.127,1.064,1.063,1.063,0,0,0,1.063,0Z" transform="translate(338.665 177.954)" fill="#fff"/><path d="M.853,0a.859.859,0,1,0,.861.858A.856.856,0,0,0,.853,0Z" transform="translate(341.287 187.094)" fill="#fff"/><path d="M.861,0a.858.858,0,1,0,.856.858A.859.859,0,0,0,.861,0Z" transform="translate(343.224 196.144)" fill="#fff"/><path d="M1.2,0A1.2,1.2,0,1,0,2.4,1.2,1.2,1.2,0,0,0,1.2,0Z" transform="translate(344.342 204.94)" fill="#fff"/><path d="M.962,0a.961.961,0,1,0,.962.962A.961.961,0,0,0,.962,0Z" transform="translate(345.558 214.384)" fill="#fff"/><path d="M.859,0a.858.858,0,1,0,.858.859A.859.859,0,0,0,.859,0Z" transform="translate(346.149 223.729)" fill="#fff"/><path d="M.893,0a.891.891,0,1,0,.89.893A.892.892,0,0,0,.893,0Z" transform="translate(346.116 232.952)" fill="#fff"/><path d="M.755,0a.756.756,0,1,0,.755.755A.754.754,0,0,0,.755,0Z" transform="translate(345.764 242.33)" fill="#fff"/><ellipse cx="0.994" cy="0.994" rx="0.994" ry="0.994" transform="translate(344.548 251.295)" fill="#fff"/><path d="M.792,0a.789.789,0,1,0,.789.789A.79.79,0,0,0,.792,0Z" transform="translate(343.293 260.639)" fill="#fff"/><path d="M.511,0a.514.514,0,1,0,.517.515A.514.514,0,0,0,.511,0Z" transform="translate(341.63 269.964)" fill="#fff"/><path d="M.517,0a.514.514,0,1,0,.514.515A.516.516,0,0,0,.517,0Z" transform="translate(339.211 278.898)" fill="#fff"/><path d="M.514,0a.514.514,0,1,0,.517.515A.515.515,0,0,0,.514,0Z" transform="translate(336.33 287.692)" fill="#fff"/><path d="M.242,0A.241.241,0,1,0,.48.242.24.24,0,0,0,.242,0Z" transform="translate(333.26 296.597)" fill="#fff"/><path d="M.21,0A.21.21,0,0,0,0,.206.21.21,0,0,0,.21.413.208.208,0,0,0,.416.206.208.208,0,0,0,.21,0Z" transform="translate(0.505 156.907)" fill="#fff"/><path d="M.238,0A.241.241,0,1,0,.48.242.242.242,0,0,0,.238,0Z" transform="translate(4.28 148.435)" fill="#fff"/><path d="M.138,0A.137.137,0,0,0,0,.138.139.139,0,0,0,.138.275.137.137,0,0,0,.275.138.135.135,0,0,0,.138,0Z" transform="translate(8.603 140.304)" fill="#fff"/><path d="M.994,0a1,1,0,1,0,1,1A1,1,0,0,0,.994,0Z" transform="translate(12.375 131.43)" fill="#fff"/><path d="M.414,0A.415.415,0,0,0,0,.413.414.414,0,1,0,.414,0Z" transform="translate(17.977 124.238)" fill="#fff"/><path d="M1.786,0A1.784,1.784,0,1,0,3.569,1.784,1.786,1.786,0,0,0,1.786,0Z" transform="translate(22.009 115.352)" fill="#fff"/><path d="M1.439,0A1.441,1.441,0,1,0,2.88,1.439,1.438,1.438,0,0,0,1.439,0Z" transform="translate(28.125 108.46)" fill="#fff"/><path d="M1.887,0A1.887,1.887,0,1,0,3.773,1.888,1.887,1.887,0,0,0,1.887,0Z" transform="translate(33.802 101.073)" fill="#fff"/><path d="M1.922,0A1.922,1.922,0,1,0,3.845,1.923,1.925,1.925,0,0,0,1.922,0Z" transform="translate(40.228 94.412)" fill="#fff"/><path d="M2.231,0A2.23,2.23,0,1,0,4.461,2.231,2.231,2.231,0,0,0,2.231,0Z" transform="translate(46.704 87.81)" fill="#fff"/><path d="M1.92,0A1.922,1.922,0,1,0,3.844,1.922,1.921,1.921,0,0,0,1.92,0Z" transform="translate(54.104 82.168)" fill="#fff"/><path d="M2.813,0A2.813,2.813,0,1,0,5.63,2.815,2.815,2.815,0,0,0,2.813,0Z" transform="translate(60.59 75.688)" fill="#fff"/><path d="M2.368,0A2.368,2.368,0,1,0,4.734,2.368,2.368,2.368,0,0,0,2.368,0Z" transform="translate(68.683 70.92)" fill="#fff"/><path d="M2.747,0A2.744,2.744,0,1,0,5.492,2.744,2.746,2.746,0,0,0,2.747,0Z" transform="translate(76.202 65.718)" fill="#fff"/><path d="M2.679,0A2.677,2.677,0,1,0,5.354,2.679,2.678,2.678,0,0,0,2.679,0Z" transform="translate(84.399 61.358)" fill="#fff"/><path d="M2.744,0A2.745,2.745,0,1,0,5.489,2.744,2.743,2.743,0,0,0,2.744,0Z" transform="translate(92.67 57.275)" fill="#fff"/><path d="M2.949,0A2.95,2.95,0,1,0,5.9,2.951,2.948,2.948,0,0,0,2.949,0Z" transform="translate(100.994 53.475)" fill="#fff"/><path d="M3.087,0a3.088,3.088,0,1,0,3.09,3.087A3.087,3.087,0,0,0,3.087,0Z" transform="translate(109.553 50.172)" fill="#fff"/><path d="M3.261,0A3.26,3.26,0,1,0,6.522,3.26,3.26,3.26,0,0,0,3.261,0Z" transform="translate(118.223 47.272)" fill="#fff"/><path d="M3.3,0A3.294,3.294,0,1,0,6.591,3.293,3.294,3.294,0,0,0,3.3,0Z" transform="translate(127.158 44.954)" fill="#fff"/><path d="M2.983,0A2.984,2.984,0,1,0,5.969,2.986,2.983,2.983,0,0,0,2.983,0Z" transform="translate(136.542 43.429)" fill="#fff"/><path d="M3.018,0a3.02,3.02,0,1,0,3.02,3.02A3.02,3.02,0,0,0,3.018,0Z" transform="translate(145.659 42.015)" fill="#fff"/><path d="M3.088,0A3.088,3.088,0,1,0,6.175,3.088,3.09,3.09,0,0,0,3.088,0Z" transform="translate(154.799 41.024)" fill="#fff"/><path d="M2.951,0A2.95,2.95,0,1,0,5.9,2.949,2.949,2.949,0,0,0,2.951,0Z" transform="translate(164.182 40.702)" fill="#fff"/><path d="M3.258,0A3.26,3.26,0,1,0,6.519,3.26,3.258,3.258,0,0,0,3.258,0Z" transform="translate(173.127 40.391)" fill="#fff"/><path d="M3.018,0a3.02,3.02,0,1,0,3.02,3.02A3.018,3.018,0,0,0,3.018,0Z" transform="translate(182.613 41.093)" fill="#fff"/><path d="M3.02,0A3.02,3.02,0,1,0,6.041,3.02,3.02,3.02,0,0,0,3.02,0Z" transform="translate(191.819 42.015)" fill="#fff"/><path d="M2.954,0A2.952,2.952,0,1,0,5.9,2.954,2.955,2.955,0,0,0,2.954,0Z" transform="translate(201.04 43.462)" fill="#fff"/><path d="M3.189,0A3.192,3.192,0,1,0,6.38,3.191,3.189,3.189,0,0,0,3.189,0Z" transform="translate(209.874 45.056)" fill="#fff"/><path d="M3.157,0A3.158,3.158,0,1,0,6.313,3.157,3.157,3.157,0,0,0,3.157,0Z" transform="translate(218.876 47.374)" fill="#fff"/><path d="M3.261,0A3.26,3.26,0,1,0,6.519,3.26,3.261,3.261,0,0,0,3.261,0Z" transform="translate(227.617 49.999)" fill="#fff"/><path d="M3.257,0A3.26,3.26,0,1,0,6.518,3.26,3.257,3.257,0,0,0,3.257,0Z" transform="translate(236.317 53.166)" fill="#fff"/><path d="M3.33,0A3.328,3.328,0,1,0,6.659,3.328,3.328,3.328,0,0,0,3.33,0Z" transform="translate(244.773 56.691)" fill="#fff"/><path d="M3.157,0A3.157,3.157,0,1,0,6.313,3.157,3.156,3.156,0,0,0,3.157,0Z" transform="translate(253.283 60.879)" fill="#fff"/><path d="M3.327,0a3.329,3.329,0,1,0,3.33,3.33A3.329,3.329,0,0,0,3.327,0Z" transform="translate(261.241 65.133)" fill="#fff"/><path d="M3.362,0A3.363,3.363,0,1,0,6.727,3.362,3.362,3.362,0,0,0,3.362,0Z" transform="translate(269.105 69.926)" fill="#fff"/><path d="M3.159,0A3.156,3.156,0,1,0,6.316,3.157,3.158,3.158,0,0,0,3.159,0Z" transform="translate(276.956 75.346)" fill="#fff"/><path d="M3.055,0A3.054,3.054,0,1,0,6.107,3.053,3.054,3.054,0,0,0,3.055,0Z" transform="translate(284.438 81.037)" fill="#fff"/><path d="M3.159,0A3.156,3.156,0,1,0,6.315,3.156,3.156,3.156,0,0,0,3.159,0Z" transform="translate(291.424 86.885)" fill="#fff"/><path d="M2.917,0A2.916,2.916,0,1,0,5.833,2.917,2.917,2.917,0,0,0,2.917,0Z" transform="translate(298.45 93.418)" fill="#fff"/><path d="M2.917,0A2.916,2.916,0,1,0,5.831,2.917,2.917,2.917,0,0,0,2.917,0Z" transform="translate(304.912 100.044)" fill="#fff"/><path d="M3.087,0a3.088,3.088,0,1,0,3.09,3.087A3.087,3.087,0,0,0,3.087,0Z" transform="translate(310.864 106.811)" fill="#fff"/><path d="M3.192,0A3.191,3.191,0,1,0,6.385,3.191,3.191,3.191,0,0,0,3.192,0Z" transform="translate(316.531 113.945)" fill="#fff"/><path d="M3.189,0A3.192,3.192,0,1,0,6.38,3.192,3.19,3.19,0,0,0,3.189,0Z" transform="translate(321.937 121.459)" fill="#fff"/><path d="M2.679,0A2.677,2.677,0,1,0,5.354,2.679,2.679,2.679,0,0,0,2.679,0Z" transform="translate(327.47 129.748)" fill="#fff"/><path d="M2.572,0A2.574,2.574,0,1,0,5.146,2.573,2.574,2.574,0,0,0,2.572,0Z" transform="translate(332.202 137.867)" fill="#fff"/><path d="M1.579,0A1.58,1.58,0,1,0,3.156,1.579,1.578,1.578,0,0,0,1.579,0Z" transform="translate(337.421 147.097)" fill="#fff"/><path d="M1.338,0A1.339,1.339,0,1,0,2.676,1.339,1.34,1.34,0,0,0,1.338,0Z" transform="translate(341.466 155.774)" fill="#fff"/><ellipse cx="1.338" cy="1.338" rx="1.338" ry="1.338" transform="translate(344.847 164.391)" fill="#fff"/><path d="M1.341,0A1.338,1.338,0,1,0,2.679,1.338,1.338,1.338,0,0,0,1.341,0Z" transform="translate(347.794 173.164)" fill="#fff"/><path d="M1.2,0A1.2,1.2,0,1,0,2.4,1.2,1.2,1.2,0,0,0,1.2,0Z" transform="translate(350.439 182.209)" fill="#fff"/><path d="M1.066,0A1.065,1.065,0,1,0,2.128,1.064,1.065,1.065,0,0,0,1.066,0Z" transform="translate(352.635 191.371)" fill="#fff"/><ellipse cx="0.789" cy="0.789" rx="0.789" ry="0.789" transform="translate(354.518 200.761)" fill="#fff"/><path d="M.858,0a.857.857,0,1,0,.859.856A.857.857,0,0,0,.858,0Z" transform="translate(355.6 209.877)" fill="#fff"/><ellipse cx="0.789" cy="0.789" rx="0.789" ry="0.789" transform="translate(356.361 219.174)" fill="#fff"/><path d="M.755,0a.755.755,0,1,0,.755.755A.757.757,0,0,0,.755,0Z" transform="translate(356.624 228.46)" fill="#fff"/><path d="M.723,0a.721.721,0,1,0,.72.72A.721.721,0,0,0,.723,0Z" transform="translate(356.427 237.746)" fill="#fff"/><path d="M.72,0a.721.721,0,1,0,.722.722A.722.722,0,0,0,.72,0Z" transform="translate(355.737 246.975)" fill="#fff"/><ellipse cx="0.618" cy="0.618" rx="0.618" ry="0.618" transform="translate(354.689 256.261)" fill="#fff"/><path d="M.31,0A.311.311,0,0,0,0,.309.309.309,0,1,0,.31,0Z" transform="translate(353.39 265.686)" fill="#fff"/><path d="M.037,0A.035.035,0,0,0,0,.037.035.035,0,0,0,.037.069.033.033,0,0,0,.069.037.035.035,0,0,0,.037,0Z" transform="translate(349.099 283.893)" fill="#fff"/><path d="M.037,0A.037.037,0,0,0,0,.035.038.038,0,0,0,.037.069.035.035,0,0,0,.072.035.035.035,0,0,0,.037,0Z" transform="translate(1.654 131.883)" fill="#fff"/><path d="M.413,0A.411.411,0,1,0,.824.413.413.413,0,0,0,.413,0Z" transform="translate(11.216 115.895)" fill="#fff"/><path d="M.238,0A.241.241,0,1,0,.48.242.242.242,0,0,0,.238,0Z" transform="translate(16.899 108.629)" fill="#fff"/><ellipse cx="0.617" cy="0.617" rx="0.617" ry="0.617" transform="translate(22.377 101.086)" fill="#fff"/><path d="M.621,0a.616.616,0,1,0,.615.615A.613.613,0,0,0,.621,0Z" transform="translate(28.564 94.204)" fill="#fff"/><path d="M1.237,0A1.235,1.235,0,1,0,2.474,1.235,1.238,1.238,0,0,0,1.237,0Z" transform="translate(34.452 87.001)" fill="#fff"/><path d="M1.613,0A1.612,1.612,0,1,0,3.229,1.613,1.614,1.614,0,0,0,1.613,0Z" transform="translate(40.884 80.356)" fill="#fff"/><path d="M1.613,0A1.613,1.613,0,1,0,3.225,1.613,1.613,1.613,0,0,0,1.613,0Z" transform="translate(47.983 74.416)" fill="#fff"/><path d="M2.335,0A2.334,2.334,0,1,0,4.666,2.335,2.333,2.333,0,0,0,2.335,0Z" transform="translate(54.633 68.096)" fill="#fff"/><path d="M2.368,0A2.368,2.368,0,1,0,4.734,2.368,2.367,2.367,0,0,0,2.368,0Z" transform="translate(62.226 62.818)" fill="#fff"/><path d="M2.2,0A2.2,2.2,0,1,0,4.393,2.2,2.2,2.2,0,0,0,2.2,0Z" transform="translate(70.262 58.112)" fill="#fff"/><path d="M2.2,0A2.2,2.2,0,1,0,4.393,2.194,2.2,2.2,0,0,0,2.2,0Z" transform="translate(78.349 53.612)" fill="#fff"/><path d="M2.437,0A2.437,2.437,0,1,0,4.873,2.436,2.437,2.437,0,0,0,2.437,0Z" transform="translate(86.4 49.258)" fill="#fff"/><path d="M2.4,0a2.4,2.4,0,1,0,2.4,2.4A2.4,2.4,0,0,0,2.4,0Z" transform="translate(94.91 45.573)" fill="#fff"/><ellipse cx="2.918" cy="2.918" rx="2.918" ry="2.918" transform="translate(103.036 41.745)" fill="#fff"/><path d="M2.848,0A2.848,2.848,0,1,0,5.694,2.848,2.849,2.849,0,0,0,2.848,0Z" transform="translate(111.897 38.911)" fill="#fff"/><path d="M2.917,0A2.916,2.916,0,1,0,5.834,2.916,2.916,2.916,0,0,0,2.917,0Z" transform="translate(120.742 36.361)" fill="#fff"/><path d="M2.917,0A2.916,2.916,0,1,0,5.836,2.917,2.917,2.917,0,0,0,2.917,0Z" transform="translate(129.765 34.3)" fill="#fff"/><path d="M3.018,0a3.02,3.02,0,1,0,3.02,3.021A3.018,3.018,0,0,0,3.018,0Z" transform="translate(138.775 32.566)" fill="#fff"/><path d="M3.189,0A3.192,3.192,0,1,0,6.382,3.191,3.19,3.19,0,0,0,3.189,0Z" transform="translate(147.781 31.196)" fill="#fff"/><path d="M3.533,0A3.535,3.535,0,1,0,7.068,3.535,3.532,3.532,0,0,0,3.533,0Z" transform="translate(156.662 30.088)" fill="#fff"/><path d="M3.5,0A3.5,3.5,0,1,0,7,3.5,3.5,3.5,0,0,0,3.5,0Z" transform="translate(165.946 29.794)" fill="#fff"/><path d="M3.3,0A3.293,3.293,0,1,0,6.59,3.293,3.3,3.3,0,0,0,3.3,0Z" transform="translate(175.404 30.111)" fill="#fff"/><ellipse cx="2.505" cy="2.505" rx="2.505" ry="2.505" transform="translate(185.434 31.445)" fill="#fff"/><path d="M2.812,0A2.814,2.814,0,1,0,5.625,2.815,2.811,2.811,0,0,0,2.812,0Z" transform="translate(194.331 32.118)" fill="#fff"/><path d="M3.434,0A3.432,3.432,0,1,0,6.862,3.432,3.434,3.434,0,0,0,3.434,0Z" transform="translate(202.856 32.916)" fill="#fff"/><path d="M3.429,0A3.431,3.431,0,1,0,6.863,3.431,3.429,3.429,0,0,0,3.429,0Z" transform="translate(211.927 34.763)" fill="#fff"/><path d="M3.572,0A3.569,3.569,0,1,0,7.137,3.569,3.569,3.569,0,0,0,3.572,0Z" transform="translate(220.761 36.898)" fill="#fff"/><path d="M3.229,0A3.226,3.226,0,1,0,6.454,3.228,3.229,3.229,0,0,0,3.229,0Z" transform="translate(229.958 39.933)" fill="#fff"/><path d="M3.327,0a3.328,3.328,0,1,0,3.33,3.33A3.327,3.327,0,0,0,3.327,0Z" transform="translate(238.576 42.939)" fill="#fff"/><path d="M3.4,0a3.4,3.4,0,1,0,3.4,3.4A3.4,3.4,0,0,0,3.4,0Z" transform="translate(247.067 46.388)" fill="#fff"/><path d="M3.327,0a3.328,3.328,0,1,0,3.33,3.327A3.325,3.325,0,0,0,3.327,0Z" transform="translate(255.523 50.374)" fill="#fff"/><path d="M3.325,0a3.329,3.329,0,1,0,3.33,3.33A3.328,3.328,0,0,0,3.325,0Z" transform="translate(263.715 54.681)" fill="#fff"/><path d="M3.225,0A3.225,3.225,0,1,0,6.449,3.225,3.225,3.225,0,0,0,3.225,0Z" transform="translate(271.796 59.476)" fill="#fff"/><path d="M3.33,0A3.328,3.328,0,1,0,6.655,3.33,3.328,3.328,0,0,0,3.33,0Z" transform="translate(279.44 64.434)" fill="#fff"/><path d="M3.295,0A3.3,3.3,0,1,0,6.588,3.3,3.3,3.3,0,0,0,3.295,0Z" transform="translate(286.976 69.889)" fill="#fff"/><path d="M3.261,0A3.26,3.26,0,1,0,6.519,3.258,3.259,3.259,0,0,0,3.261,0Z" transform="translate(294.245 75.698)" fill="#fff"/><path d="M3.225,0A3.225,3.225,0,1,0,6.449,3.226,3.226,3.226,0,0,0,3.225,0Z" transform="translate(301.237 81.836)" fill="#fff"/><ellipse cx="3.294" cy="3.294" rx="3.294" ry="3.294" transform="translate(307.827 88.195)" fill="#fff"/><ellipse cx="3.191" cy="3.192" rx="3.191" ry="3.192" transform="translate(314.278 95.033)" fill="#fff"/><ellipse cx="3.294" cy="3.294" rx="3.294" ry="3.294" transform="translate(320.198 101.958)" fill="#fff"/><path d="M3.431,0A3.432,3.432,0,1,0,6.862,3.432,3.431,3.431,0,0,0,3.431,0Z" transform="translate(325.747 109.123)" fill="#fff"/><path d="M3.192,0A3.192,3.192,0,1,0,6.385,3.191,3.193,3.193,0,0,0,3.192,0Z" transform="translate(331.319 116.928)" fill="#fff"/><path d="M2.365,0A2.369,2.369,0,1,0,4.734,2.37,2.369,2.369,0,0,0,2.365,0Z" transform="translate(337.115 125.558)" fill="#fff"/><path d="M1.884,0a1.887,1.887,0,1,0,1.89,1.884A1.881,1.881,0,0,0,1.884,0Z" transform="translate(342.192 134.075)" fill="#fff"/><path d="M1.887,0A1.887,1.887,0,1,0,3.773,1.89,1.887,1.887,0,0,0,1.887,0Z" transform="translate(346.403 142.315)" fill="#fff"/><ellipse cx="1.338" cy="1.338" rx="1.338" ry="1.338" transform="translate(350.768 151.296)" fill="#fff"/><path d="M1.3,0A1.3,1.3,0,1,0,2.61,1.3,1.305,1.305,0,0,0,1.3,0Z" transform="translate(354.217 159.933)" fill="#fff"/><path d="M1.2,0A1.2,1.2,0,1,0,2.4,1.2,1.2,1.2,0,0,0,1.2,0Z" transform="translate(357.326 168.79)" fill="#fff"/><path d="M1.306,0a1.3,1.3,0,1,0,1.3,1.3A1.307,1.307,0,0,0,1.306,0Z" transform="translate(359.81 177.572)" fill="#fff"/><path d="M1.2,0a1.2,1.2,0,1,0,1.2,1.2A1.2,1.2,0,0,0,1.2,0Z" transform="translate(362.079 186.674)" fill="#fff"/><path d="M1.2,0A1.2,1.2,0,1,0,2.4,1.2,1.2,1.2,0,0,0,1.2,0Z" transform="translate(363.821 195.763)" fill="#fff"/><path d="M1.1,0A1.1,1.1,0,1,0,2.2,1.1,1.1,1.1,0,0,0,1.1,0Z" transform="translate(365.23 205.03)" fill="#fff"/><path d="M1.1,0A1.1,1.1,0,1,0,2.2,1.1,1.1,1.1,0,0,0,1.1,0Z" transform="translate(366.102 214.245)" fill="#fff"/><path d="M.719,0a.722.722,0,1,0,.723.72A.719.719,0,0,0,.719,0Z" transform="translate(366.918 223.867)" fill="#fff"/><path d="M.618,0a.618.618,0,1,0,.619.619A.618.618,0,0,0,.618,0Z" transform="translate(367.019 233.225)" fill="#fff"/><path d="M.307,0A.31.31,0,1,0,.615.31.309.309,0,0,0,.307,0Z" transform="translate(366.894 242.778)" fill="#fff"/><path d="M.1,0A.1.1,0,0,0,.1.208a.105.105,0,0,0,.1-.1A.105.105,0,0,0,.1,0Z" transform="translate(366.224 252.198)" fill="#fff"/><path d="M.242,0A.24.24,0,1,0,.48.242.241.241,0,0,0,.242,0Z" transform="translate(22.445 86.446)" fill="#fff"/><path d="M.549,0A.55.55,0,1,0,1.1.549.55.55,0,0,0,.549,0Z" transform="translate(35.513 73.348)" fill="#fff"/><path d="M.893,0a.893.893,0,1,0,.891.894A.893.893,0,0,0,.893,0Z" transform="translate(42.274 67.073)" fill="#fff"/><path d="M.341,0A.342.342,0,0,0,0,.344.342.342,0,1,0,.341,0Z" transform="translate(50.189 62.015)" fill="#fff"/><path d="M1.375,0A1.374,1.374,0,1,0,2.747,1.373,1.373,1.373,0,0,0,1.375,0Z" transform="translate(56.765 55.714)" fill="#fff"/><path d="M1.92,0A1.921,1.921,0,1,0,3.842,1.92,1.92,1.92,0,0,0,1.92,0Z" transform="translate(64.055 50.242)" fill="#fff"/><path d="M1.783,0A1.784,1.784,0,1,0,3.569,1.784,1.784,1.784,0,0,0,1.783,0Z" transform="translate(72.242 45.812)" fill="#fff"/><path d="M2.437,0A2.436,2.436,0,1,0,4.873,2.437,2.437,2.437,0,0,0,2.437,0Z" transform="translate(79.836 40.957)" fill="#fff"/><ellipse cx="2.161" cy="2.161" rx="2.161" ry="2.161" transform="translate(88.539 37.405)" fill="#fff"/><path d="M2.471,0A2.472,2.472,0,1,0,4.943,2.472,2.473,2.473,0,0,0,2.471,0Z" transform="translate(96.818 33.649)" fill="#fff"/><path d="M2.607,0A2.608,2.608,0,1,0,5.214,2.608,2.608,2.608,0,0,0,2.607,0Z" transform="translate(105.419 30.455)" fill="#fff"/><ellipse cx="2.573" cy="2.573" rx="2.573" ry="2.573" transform="translate(114.316 27.828)" fill="#fff"/><path d="M2.78,0A2.78,2.78,0,1,0,5.558,2.781,2.781,2.781,0,0,0,2.78,0Z" transform="translate(123.085 25.359)" fill="#fff"/><path d="M2.506,0A2.5,2.5,0,1,0,5.012,2.5,2.506,2.506,0,0,0,2.506,0Z" transform="translate(132.426 23.78)" fill="#fff"/><path d="M2.954,0A2.952,2.952,0,1,0,5.9,2.952,2.952,2.952,0,0,0,2.954,0Z" transform="translate(141.122 21.884)" fill="#fff"/><path d="M2.948,0A2.951,2.951,0,1,0,5.9,2.951,2.95,2.95,0,0,0,2.948,0Z" transform="translate(150.322 20.849)" fill="#fff"/><path d="M3.124,0A3.123,3.123,0,1,0,6.247,3.122,3.123,3.123,0,0,0,3.124,0Z" transform="translate(159.382 20.055)" fill="#fff"/><path d="M3.121,0A3.123,3.123,0,1,0,6.244,3.124,3.122,3.122,0,0,0,3.121,0Z" transform="translate(168.637 19.847)" fill="#fff"/><path d="M2.813,0A2.814,2.814,0,1,0,5.626,2.813,2.813,2.813,0,0,0,2.813,0Z" transform="translate(178.199 20.364)" fill="#fff"/><path d="M3.157,0A3.158,3.158,0,1,0,6.316,3.159,3.16,3.16,0,0,0,3.157,0Z" transform="translate(187.088 20.641)" fill="#fff"/><path d="M2.676,0A2.676,2.676,0,1,0,5.353,2.677,2.677,2.677,0,0,0,2.676,0Z" transform="translate(196.768 22.159)" fill="#fff"/><path d="M3.4,0a3.4,3.4,0,1,0,3.4,3.4A3.4,3.4,0,0,0,3.4,0Z" transform="translate(205.188 22.887)" fill="#fff"/><path d="M3.844,0A3.843,3.843,0,1,0,7.686,3.844,3.844,3.844,0,0,0,3.844,0Z" transform="translate(213.809 24.296)" fill="#fff"/><path d="M3.605,0a3.6,3.6,0,1,0,3.6,3.6A3.6,3.6,0,0,0,3.605,0Z" transform="translate(223.024 26.799)" fill="#fff"/><ellipse cx="3.637" cy="3.637" rx="3.637" ry="3.637" transform="translate(231.855 29.427)" fill="#fff"/><path d="M3.09,0A3.089,3.089,0,1,0,6.178,3.09,3.089,3.089,0,0,0,3.09,0Z" transform="translate(241.139 33.031)" fill="#fff"/><ellipse cx="3.569" cy="3.569" rx="3.569" ry="3.569" transform="translate(249.249 35.998)" fill="#fff"/><path d="M3.394,0a3.4,3.4,0,1,0,3.4,3.4A3.395,3.395,0,0,0,3.394,0Z" transform="translate(257.85 39.998)" fill="#fff"/><path d="M2.986,0A2.984,2.984,0,1,0,5.972,2.984,2.983,2.983,0,0,0,2.986,0Z" transform="translate(266.507 44.611)" fill="#fff"/><path d="M2.989,0A2.987,2.987,0,1,0,5.977,2.986,2.99,2.99,0,0,0,2.989,0Z" transform="translate(274.554 49.177)" fill="#fff"/><path d="M3.225,0A3.226,3.226,0,1,0,6.451,3.226,3.226,3.226,0,0,0,3.225,0Z" transform="translate(282.154 53.861)" fill="#fff"/><path d="M3.33,0A3.329,3.329,0,1,0,6.66,3.33,3.329,3.329,0,0,0,3.33,0Z" transform="translate(289.658 59.029)" fill="#fff"/><path d="M3.4,0A3.4,3.4,0,1,0,6.793,3.4,3.4,3.4,0,0,0,3.4,0Z" transform="translate(296.954 64.568)" fill="#fff"/><path d="M3.4,0A3.4,3.4,0,1,0,6.8,3.4,3.4,3.4,0,0,0,3.4,0Z" transform="translate(304.058 70.499)" fill="#fff"/><path d="M3.5,0A3.5,3.5,0,1,0,7,3.5,3.5,3.5,0,0,0,3.5,0Z" transform="translate(310.79 76.641)" fill="#fff"/><ellipse cx="3.362" cy="3.362" rx="3.362" ry="3.362" transform="translate(317.469 83.324)" fill="#fff"/><path d="M3.359,0A3.364,3.364,0,1,0,6.724,3.362,3.36,3.36,0,0,0,3.359,0Z" transform="translate(323.717 90.155)" fill="#fff"/><path d="M3.33,0A3.329,3.329,0,1,0,6.66,3.33,3.331,3.331,0,0,0,3.33,0Z" transform="translate(329.68 97.294)" fill="#fff"/><path d="M3.434,0A3.432,3.432,0,1,0,6.865,3.432,3.434,3.434,0,0,0,3.434,0Z" transform="translate(335.184 104.555)" fill="#fff"/><path d="M2.434,0A2.436,2.436,0,1,0,4.871,2.436,2.435,2.435,0,0,0,2.434,0Z" transform="translate(341.451 113.16)" fill="#fff"/><path d="M2.434,0A2.437,2.437,0,1,0,4.871,2.437,2.435,2.435,0,0,0,2.434,0Z" transform="translate(346.376 120.995)" fill="#fff"/><path d="M2.162,0A2.163,2.163,0,1,0,4.324,2.163,2.163,2.163,0,0,0,2.162,0Z" transform="translate(351.216 129.319)" fill="#fff"/><path d="M1.989,0A1.991,1.991,0,1,0,3.981,1.991,1.99,1.99,0,0,0,1.989,0Z" transform="translate(355.59 137.737)" fill="#fff"/><path d="M1.648,0A1.648,1.648,0,1,0,3.3,1.648,1.649,1.649,0,0,0,1.648,0Z" transform="translate(359.76 146.507)" fill="#fff"/><path d="M1.717,0A1.716,1.716,0,1,0,3.434,1.717,1.718,1.718,0,0,0,1.717,0Z" transform="translate(363.137 155.029)" fill="#fff"/><path d="M1.717,0A1.716,1.716,0,1,0,3.431,1.715,1.716,1.716,0,0,0,1.717,0Z" transform="translate(366.195 163.766)" fill="#fff"/><path d="M.445,0A.447.447,0,1,0,.893.448.446.446,0,0,0,.445,0Z" transform="translate(370.127 173.9)" fill="#fff"/><ellipse cx="0.618" cy="0.618" rx="0.618" ry="0.618" transform="translate(372.215 182.702)" fill="#fff"/><path d="M.411,0A.412.412,0,1,0,.824.411.411.411,0,0,0,.411,0Z" transform="translate(374.279 191.978)" fill="#fff"/><path d="M.307,0A.306.306,0,0,0,0,.307.307.307,0,1,0,.307,0Z" transform="translate(375.832 201.223)" fill="#fff"/><path d="M.2,0A.206.206,0,1,0,.411.206.205.205,0,0,0,.2,0Z" transform="translate(376.969 210.522)" fill="#fff"/><path d="M.1,0A.1.1,0,0,0,0,.1a.1.1,0,0,0,.1.1.1.1,0,0,0,.1-.1A.1.1,0,0,0,.1,0Z" transform="translate(377.694 219.859)" fill="#fff"/><path d="M.344,0a.342.342,0,1,0,0,.685A.342.342,0,1,0,.344,0Z" transform="translate(43.75 53.947)" fill="#fff"/><ellipse cx="0.618" cy="0.618" rx="0.618" ry="0.618" transform="translate(51.067 48.374)" fill="#fff"/><path d="M.618,0a.618.618,0,1,0,.618.616A.618.618,0,0,0,.618,0Z" transform="translate(58.879 43.41)" fill="#fff"/><path d="M.549,0A.548.548,0,1,0,1.1.547.55.55,0,0,0,.549,0Z" transform="translate(66.963 38.85)" fill="#fff"/><path d="M1.581,0A1.579,1.579,0,1,0,3.16,1.579,1.581,1.581,0,0,0,1.581,0Z" transform="translate(74.138 33.539)" fill="#fff"/><path d="M.517,0A.516.516,0,0,0,0,.514.515.515,0,1,0,.517,0Z" transform="translate(83.584 30.678)" fill="#fff"/><path d="M1.613,0A1.612,1.612,0,1,0,3.226,1.615,1.615,1.615,0,0,0,1.613,0Z" transform="translate(91.028 26.013)" fill="#fff"/><path d="M1.616,0A1.613,1.613,0,1,0,3.228,1.613,1.614,1.614,0,0,0,1.616,0Z" transform="translate(99.713 22.818)" fill="#fff"/><path d="M.206,0a.206.206,0,1,0,0,.413A.209.209,0,0,0,.413.2.207.207,0,0,0,.206,0Z" transform="translate(109.937 21.402)" fill="#fff"/><path d="M.858,0a.858.858,0,1,0,.858.861A.858.858,0,0,0,.858,0Z" transform="translate(118.211 18.306)" fill="#fff"/><path d="M1.717,0A1.716,1.716,0,1,0,3.436,1.717,1.716,1.716,0,0,0,1.717,0Z" transform="translate(126.376 15.389)" fill="#fff"/><path d="M2.434,0A2.437,2.437,0,1,0,4.87,2.437,2.436,2.436,0,0,0,2.434,0Z" transform="translate(134.762 12.996)" fill="#fff"/><path d="M3.055,0A3.054,3.054,0,1,0,6.11,3.055,3.055,3.055,0,0,0,3.055,0Z" transform="translate(143.309 11.097)" fill="#fff"/><path d="M3.124,0A3.123,3.123,0,1,0,6.244,3.122,3.125,3.125,0,0,0,3.124,0Z" transform="translate(152.452 10.14)" fill="#fff"/><path d="M2.917,0A2.916,2.916,0,1,0,5.831,2.917,2.917,2.917,0,0,0,2.917,0Z" transform="translate(161.9 9.852)" fill="#fff"/><path d="M2.914,0A2.917,2.917,0,1,0,5.831,2.917,2.916,2.916,0,0,0,2.914,0Z" transform="translate(171.158 9.752)" fill="#fff"/><path d="M3.191,0A3.192,3.192,0,1,0,6.382,3.192,3.191,3.191,0,0,0,3.191,0Z" transform="translate(180.133 9.775)" fill="#fff"/><path d="M3.4,0A3.4,3.4,0,1,0,6.8,3.4,3.4,3.4,0,0,0,3.4,0Z" transform="translate(189.155 10.261)" fill="#fff"/><path d="M3.261,0A3.26,3.26,0,1,0,6.522,3.26,3.262,3.262,0,0,0,3.261,0Z" transform="translate(198.483 11.482)" fill="#fff"/><path d="M3.157,0A3.157,3.157,0,1,0,6.313,3.159,3.158,3.158,0,0,0,3.157,0Z" transform="translate(207.726 13.062)" fill="#fff"/><path d="M3.5,0A3.5,3.5,0,1,0,7,3.5,3.5,3.5,0,0,0,3.5,0Z" transform="translate(216.445 14.585)" fill="#fff"/><path d="M3.468,0A3.465,3.465,0,1,0,6.931,3.465,3.467,3.467,0,0,0,3.468,0Z" transform="translate(225.458 16.873)" fill="#fff"/><path d="M3.26,0A3.26,3.26,0,1,0,6.521,3.26,3.259,3.259,0,0,0,3.26,0Z" transform="translate(234.537 19.713)" fill="#fff"/><path d="M3.258,0A3.259,3.259,0,1,0,6.519,3.258,3.258,3.258,0,0,0,3.258,0Z" transform="translate(243.292 22.723)" fill="#fff"/><path d="M3.533,0A3.535,3.535,0,1,0,7.068,3.535,3.534,3.534,0,0,0,3.533,0Z" transform="translate(251.632 25.828)" fill="#fff"/><path d="M3.33,0A3.328,3.328,0,1,0,6.657,3.327,3.329,3.329,0,0,0,3.33,0Z" transform="translate(260.301 29.782)" fill="#fff"/><path d="M3.432,0A3.431,3.431,0,1,0,6.863,3.431,3.431,3.431,0,0,0,3.432,0Z" transform="translate(268.495 33.783)" fill="#fff"/><path d="M3.463,0A3.465,3.465,0,1,0,6.931,3.465,3.462,3.462,0,0,0,3.463,0Z" transform="translate(276.574 38.205)" fill="#fff"/><path d="M3.572,0A3.569,3.569,0,1,0,7.14,3.569,3.571,3.571,0,0,0,3.572,0Z" transform="translate(284.382 42.9)" fill="#fff"/><path d="M3.569,0A3.569,3.569,0,1,0,7.137,3.569,3.569,3.569,0,0,0,3.569,0Z" transform="translate(292.086 48.03)" fill="#fff"/><path d="M3.605,0a3.6,3.6,0,1,0,3.6,3.6A3.6,3.6,0,0,0,3.605,0Z" transform="translate(299.527 53.453)" fill="#fff"/><path d="M3.09,0A3.088,3.088,0,1,0,6.178,3.088,3.09,3.09,0,0,0,3.09,0Z" transform="translate(307.278 59.739)" fill="#fff"/><path d="M3.33,0A3.328,3.328,0,1,0,6.655,3.327,3.327,3.327,0,0,0,3.33,0Z" transform="translate(314.023 65.574)" fill="#fff"/><path d="M3.5,0A3.5,3.5,0,1,0,7,3.5,3.5,3.5,0,0,0,3.5,0Z" transform="translate(320.569 71.768)" fill="#fff"/><path d="M2.676,0A2.676,2.676,0,1,0,5.354,2.676,2.675,2.675,0,0,0,2.676,0Z" transform="translate(327.831 79.243)" fill="#fff"/><path d="M3.327,0A3.328,3.328,0,1,0,6.655,3.328,3.326,3.326,0,0,0,3.327,0Z" transform="translate(333.329 85.507)" fill="#fff"/><path d="M2.712,0A2.712,2.712,0,1,0,5.423,2.711,2.712,2.712,0,0,0,2.712,0Z" transform="translate(339.793 93.299)" fill="#fff"/><path d="M2.709,0A2.712,2.712,0,1,0,5.42,2.712,2.71,2.71,0,0,0,2.709,0Z" transform="translate(345.33 100.715)" fill="#fff"/><path d="M1.338,0A1.338,1.338,0,1,0,2.679,1.338,1.338,1.338,0,0,0,1.338,0Z" transform="translate(351.915 109.738)" fill="#fff"/><path d="M2.056,0A2.06,2.06,0,1,0,4.117,2.059,2.057,2.057,0,0,0,2.056,0Z" transform="translate(356.078 116.878)" fill="#fff"/><path d="M.618,0a.618.618,0,1,0,.618.619A.619.619,0,0,0,.618,0Z" transform="translate(362.059 126.385)" fill="#fff"/><path d="M1.3,0A1.3,1.3,0,1,0,2.607,1.3,1.3,1.3,0,0,0,1.3,0Z" transform="translate(365.568 133.95)" fill="#fff"/><path d="M.032,0A.031.031,0,0,0,0,.032.032.032,0,0,0,.032.067.035.035,0,0,0,.067.032.034.034,0,0,0,.032,0Z" transform="translate(370.675 143.643)" fill="#fff"/><path d="M.1,0A.1.1,0,0,0,0,.1a.1.1,0,0,0,.1.1A.1.1,0,0,0,.1,0Z" transform="translate(374.078 152.153)" fill="#fff"/><path d="M.206,0A.206.206,0,1,0,.413.206.207.207,0,0,0,.206,0Z" transform="translate(377.08 160.769)" fill="#fff"/><path d="M.445,0A.446.446,0,1,0,.893.445.446.446,0,0,0,.445,0Z" transform="translate(379.567 169.375)" fill="#fff"/><path d="M.032,0A.034.034,0,0,0,0,.034.034.034,0,0,0,.032.069.033.033,0,0,0,.066.034.032.032,0,0,0,.032,0Z" transform="translate(77.48 22.812)" fill="#fff"/><path d="M.035,0A.038.038,0,0,0,0,.035.038.038,0,0,0,.035.07a.035.035,0,0,0,0-.07Z" transform="translate(94.612 15.815)" fill="#fff"/><path d="M.206,0A.206.206,0,1,0,.413.206.206.206,0,0,0,.206,0Z" transform="translate(103.209 12.676)" fill="#fff"/><path d="M.105,0A.1.1,0,0,0,0,.1.106.106,0,0,0,.105.206.106.106,0,0,0,.206.1.1.1,0,0,0,.105,0Z" transform="translate(139.369 4.552)" fill="#fff"/><path d="M.105,0A.1.1,0,0,0,0,.1.1.1,0,0,0,.105.2a.1.1,0,0,0,.1-.1A.1.1,0,0,0,.105,0Z" transform="translate(148.554 3.422)" fill="#fff"/><ellipse cx="0.343" cy="0.343" rx="0.343" ry="0.343" transform="translate(157.54 2.425)" fill="#fff"/><path d="M1.061,0A1.063,1.063,0,1,0,2.127,1.064,1.062,1.062,0,0,0,1.061,0Z" transform="translate(166.068 1.329)" fill="#fff"/><ellipse cx="1.063" cy="1.063" rx="1.063" ry="1.063" transform="translate(175.323 1.329)" fill="#fff"/><path d="M.856,0a.858.858,0,1,0,.858.858A.858.858,0,0,0,.856,0Z" transform="translate(184.778 1.911)" fill="#fff"/><path d="M.856,0a.859.859,0,1,0,.861.859A.858.858,0,0,0,.856,0Z" transform="translate(194.002 2.665)" fill="#fff"/><path d="M.959,0A.961.961,0,1,0,1.92.96.961.961,0,0,0,.959,0Z" transform="translate(203.085 3.692)" fill="#fff"/><path d="M1.237,0A1.235,1.235,0,1,0,2.472,1.237,1.236,1.236,0,0,0,1.237,0Z" transform="translate(211.942 4.922)" fill="#fff"/><path d="M1.65,0A1.647,1.647,0,1,0,3.3,1.648,1.649,1.649,0,0,0,1.65,0Z" transform="translate(220.593 6.385)" fill="#fff"/><path d="M1.1,0A1.1,1.1,0,1,0,2.2,1.1,1.1,1.1,0,0,0,1.1,0Z" transform="translate(230.123 9.177)" fill="#fff"/><ellipse cx="3.569" cy="3.569" rx="3.569" ry="3.569" transform="translate(236.534 9.314)" fill="#fff"/><path d="M2.712,0A2.712,2.712,0,1,0,5.42,2.711,2.713,2.713,0,0,0,2.712,0Z" transform="translate(246.158 13.14)" fill="#fff"/><path d="M1.3,0a1.3,1.3,0,1,0,1.3,1.3A1.3,1.3,0,0,0,1.3,0Z" transform="translate(256.205 17.87)" fill="#fff"/><path d="M3.674,0A3.672,3.672,0,1,0,7.343,3.671,3.673,3.673,0,0,0,3.674,0Z" transform="translate(262.332 19.174)" fill="#fff"/><path d="M3.02,0A3.02,3.02,0,1,0,6.038,3.02,3.018,3.018,0,0,0,3.02,0Z" transform="translate(271.323 23.842)" fill="#fff"/><path d="M.992,0a1,1,0,1,0,1,1A.993.993,0,0,0,.992,0Z" transform="translate(281.518 30.219)" fill="#fff"/><path d="M1.887,0a1.887,1.887,0,1,0,1.89,1.888A1.887,1.887,0,0,0,1.887,0Z" transform="translate(288.608 34.01)" fill="#fff"/><path d="M.445,0A.446.446,0,1,0,.893.445.446.446,0,0,0,.445,0Z" transform="translate(297.835 40.454)" fill="#fff"/><path d="M3.156,0A3.156,3.156,0,1,0,6.315,3.157,3.157,3.157,0,0,0,3.156,0Z" transform="translate(302.7 43.061)" fill="#fff"/><path d="M1.816,0A1.818,1.818,0,1,0,3.637,1.819,1.815,1.815,0,0,0,1.816,0Z" transform="translate(311.392 50.022)" fill="#fff"/><path d="M2.093,0A2.093,2.093,0,1,0,4.186,2.093,2.093,2.093,0,0,0,2.093,0Z" transform="translate(318.234 55.664)" fill="#fff"/><path d="M3.02,0a3.02,3.02,0,1,0,3.02,3.02A3.018,3.018,0,0,0,3.02,0Z" transform="translate(324.178 60.94)" fill="#fff"/><path d="M.787,0a.79.79,0,1,0,.792.79A.789.789,0,0,0,.787,0Z" transform="translate(333.019 69.648)" fill="#fff"/><path d="M.24,0A.24.24,0,1,0,.482.24.24.24,0,0,0,.24,0Z" transform="translate(339.91 76.941)" fill="#fff"/><path d="M1.2,0A1.2,1.2,0,1,0,2.4,1.2,1.2,1.2,0,0,0,1.2,0Z" transform="translate(345.01 82.975)" fill="#fff"/><path d="M.037,0A.037.037,0,0,0,0,.035.035.035,0,0,0,.037.069.033.033,0,0,0,.069.035.035.035,0,0,0,.037,0Z" transform="translate(351.947 91.375)" fill="#fff"/><path d="M.31,0A.31.31,0,0,0,0,.307.309.309,0,1,0,.31,0Z" transform="translate(357.144 98.569)" fill="#fff"/><path d="M.1,0A.105.105,0,0,0,0,.1.1.1,0,0,0,.1.2a.1.1,0,0,0,.1-.1A.105.105,0,0,0,.1,0Z" transform="translate(362.51 106.457)" fill="#fff"/><path d="M.1,0A.1.1,0,0,0,0,.1.1.1,0,0,0,.1.2.1.1,0,0,0,.2.1.105.105,0,0,0,.1,0Z" transform="translate(367.357 114.343)" fill="#fff"/><path d="M.032,0A.033.033,0,0,0,0,.034.034.034,0,0,0,.032.069.035.035,0,0,0,.067.034.033.033,0,0,0,.032,0Z" transform="translate(379.974 139.165)" fill="#fff"/><path d="M.31,0A.31.31,0,1,0,.618.309.309.309,0,0,0,.31,0Z" transform="translate(242.098 2.489)" fill="#fff"/><path d="M.1,0A.105.105,0,0,0,0,.1a.1.1,0,0,0,.1.1.1.1,0,0,0,.1-.1A.1.1,0,0,0,.1,0Z" transform="translate(251.083 5.623)" fill="#fff"/><path d="M.032,0A.033.033,0,0,0,0,.034.034.034,0,0,0,.032.069.035.035,0,0,0,.069.034.034.034,0,0,0,.032,0Z" transform="translate(259.812 8.963)" fill="#fff"/><path d="M.242,0a.241.241,0,1,0,.24.242A.241.241,0,0,0,.242,0Z" transform="translate(268.131 12.36)" fill="#fff"/><path d="M.242,0A.24.24,0,1,0,.48.24.24.24,0,0,0,.242,0Z" transform="translate(276.508 16.295)" fill="#fff"/><path d="M.037,0A.035.035,0,0,0,0,.032.036.036,0,0,0,.037.066.032.032,0,0,0,.069.032.031.031,0,0,0,.037,0Z" transform="translate(284.931 20.761)" fill="#fff"/><path d="M.206,0A.208.208,0,0,0,0,.206a.207.207,0,0,0,.414,0A.209.209,0,0,0,.206,0Z" transform="translate(292.806 25.162)" fill="#fff"/><path d="M.1,0A.1.1,0,0,0,0,.1.1.1,0,0,0,.1.206.1.1,0,0,0,.206.1.1.1,0,0,0,.1,0Z" transform="translate(300.77 30.152)" fill="#fff"/><path d="M.1,0A.1.1,0,0,0,0,.1.1.1,0,0,0,.1.2.1.1,0,0,0,.2.1.1.1,0,0,0,.1,0Z" transform="translate(308.437 35.341)" fill="#fff"/><path d="M.1,0A.1.1,0,1,0,.1.2.1.1,0,0,0,.2.1.1.1,0,0,0,.1,0Z" transform="translate(315.892 40.826)" fill="#fff"/><path d="M.2,0A.2.2,0,0,0,0,.2.2.2,0,0,0,.2.411.206.206,0,1,0,.2,0Z" transform="translate(323.027 46.493)" fill="#fff"/><path d="M.032,0A.034.034,0,0,0,0,.035.034.034,0,0,0,.032.069.035.035,0,0,0,.069.035.035.035,0,0,0,.032,0Z" transform="translate(330.202 52.713)" fill="#fff"/><path d="M.035,0A.032.032,0,0,0,0,.032.034.034,0,0,0,.035.069.035.035,0,0,0,.069.032.033.033,0,0,0,.035,0Z" transform="translate(336.966 59.032)" fill="#fff"/><path d="M.037,0A.034.034,0,0,0,0,.035.034.034,0,0,0,.037.067.033.033,0,0,0,.069.035.034.034,0,0,0,.037,0Z" transform="translate(343.478 65.608)" fill="#fff"/><path d="M.034,0A.032.032,0,0,0,0,.034.032.032,0,0,0,.034.069.031.031,0,0,0,.066.034.032.032,0,0,0,.034,0Z" transform="translate(349.732 72.433)" fill="#fff"/><path d="M.032,0A.033.033,0,0,0,0,.032.035.035,0,0,0,.032.067.038.038,0,0,0,.069.032.037.037,0,0,0,.032,0Z" transform="translate(361.411 86.791)" fill="#fff"/><path d="M.035,0A.035.035,0,0,0,0,.035.037.037,0,0,0,.035.07.036.036,0,0,0,.069.035.034.034,0,0,0,.035,0Z" transform="translate(279.109 6.195)" fill="#fff"/><path d="M.037,0A.034.034,0,0,0,0,.032.035.035,0,0,0,.037.067.034.034,0,0,0,.069.032.032.032,0,0,0,.037,0Z" transform="translate(287.371 10.368)" fill="#fff"/><path d="M.035,0A.037.037,0,0,0,0,.037.034.034,0,0,0,.035.07S.069.055.069.037A.039.039,0,0,0,.035,0Z" transform="translate(295.473 14.841)" fill="#fff"/><path d="M.032,0A.034.034,0,0,0,0,.037.032.032,0,0,0,.032.069.035.035,0,0,0,.067.037.036.036,0,0,0,.032,0Z" transform="translate(303.402 19.619)" fill="#fff"/><path d="M.034,0A.034.034,0,0,0,0,.034.034.034,0,0,0,.034.069.032.032,0,0,0,.066.034.032.032,0,0,0,.034,0Z" transform="translate(311.144 24.691)" fill="#fff"/><path d="M.034,0A.034.034,0,0,0,0,.034.036.036,0,0,0,.034.07.033.033,0,0,0,.066.034.031.031,0,0,0,.034,0Z" transform="translate(318.693 30.047)" fill="#fff"/><path d="M.034,0A.036.036,0,0,0,0,.037.034.034,0,0,0,.034.069.031.031,0,0,0,.066.037.033.033,0,0,0,.034,0Z" transform="translate(326.036 35.679)" fill="#fff"/><path d="M.035,0A.035.035,0,0,0,0,.035.033.033,0,0,0,.035.069.034.034,0,0,0,.069.035.035.035,0,0,0,.035,0Z" transform="translate(353.152 60.841)" fill="#fff"/><path d="M.035,0A.037.037,0,0,0,0,.035.036.036,0,0,0,.035.069.037.037,0,0,0,.072.035.037.037,0,0,0,.035,0Z" transform="translate(359.318 67.742)" fill="#fff"/><path d="M.034,0A.034.034,0,0,0,0,.034.034.034,0,1,0,.034,0Z" transform="translate(365.224 74.87)" fill="#fff"/><path d="M.037,0A.035.035,0,0,0,0,.034.034.034,0,0,0,.037.069.033.033,0,0,0,.069.034.034.034,0,0,0,.037,0Z" transform="translate(289.796 0)" fill="#fff"/><path d="M.135,0A.135.135,0,0,0,0,.138.134.134,0,0,0,.135.272.134.134,0,0,0,.271.138.136.136,0,0,0,.135,0Z" transform="translate(335.957 30.435)" fill="#fff"/><path d="M.037,0A.035.035,0,0,0,0,.032.036.036,0,0,0,.037.069.037.037,0,0,0,.069.032.035.035,0,0,0,.037,0Z" transform="translate(362.796 56.103)" fill="#fff"/><path d="M.032,0A.033.033,0,0,0,0,.035.034.034,0,0,0,.032.069.036.036,0,0,0,.069.035.035.035,0,0,0,.032,0Z" transform="translate(368.886 63.072)" fill="#fff"/><path d="M.032,0A.033.033,0,0,0,0,.034.033.033,0,0,0,.032.067.033.033,0,0,0,.067.034.033.033,0,0,0,.032,0Z" transform="translate(331.562 13.912)" fill="#fff"/><path d="M.034,0A.034.034,0,0,0,0,.034.035.035,0,0,0,.034.069.035.035,0,0,0,.069.034.033.033,0,0,0,.034,0Z" transform="translate(338.894 19.557)" fill="#fff"/><path d="M.035,0A.035.035,0,0,0,0,.037.033.033,0,0,0,.035.069.032.032,0,0,0,.067.037.034.034,0,0,0,.035,0Z" transform="translate(389.721 73.085)" fill="#fff"/><path d="M.035,0A.033.033,0,0,0,0,.034a.034.034,0,1,0,.069,0A.033.033,0,0,0,.035,0Z" transform="translate(394.979 80.703)" fill="#fff"/></g></g></svg>