<svg xmlns="http://www.w3.org/2000/svg" width="15" height="15" viewBox="0 0 15 15">
  <path id="Edit" d="M35.875,39h-8.75A3.129,3.129,0,0,1,24,35.875v-8.75A3.129,3.129,0,0,1,27.125,24h5a.625.625,0,1,1,0,1.25h-5a1.877,1.877,0,0,0-1.875,1.875v8.75a1.877,1.877,0,0,0,1.875,1.875h8.75a1.877,1.877,0,0,0,1.875-1.875v-5a.625.625,0,0,1,1.25,0v5A3.129,3.129,0,0,1,35.875,39Zm1.774-10.984.8-.815A1.875,1.875,0,0,0,35.8,24.546l-.818.805Zm-.877.891-4.827,4.907A.625.625,0,0,1,31.5,34H29.625A.625.625,0,0,1,29,33.375V31.5a.624.624,0,0,1,.187-.446l4.907-4.827Z" transform="translate(-24 -24)"/>
</svg>
