<svg xmlns="http://www.w3.org/2000/svg" width="107.504" height="400" viewBox="0 0 107.504 400"><g transform="translate(-173.202 -47.34)"><path d="M217.387,98.589c.519,8.355,1.318,16.714-20.913,24.73-16.143,1.277-13.016,13.212-13.468,23.605-.6,13.884.722,27.8.257,41.693a66.521,66.521,0,0,1-3.078,16.293c-2.381,6.818-1.976,13.775-1.8,21.039.206,8.252-.342,16.507-.513,24.759-1.283,6.714-3.391,13.714-4.673,20.427.334,3.578,2.163,5.931,3.262,8.437l6.414,5.388,2.822,2.823c.417-.982.486-1.912-.642-3.464-1.173-1.613-2.052-3.421-3.078-5.131q-.193-3.4-.384-6.8c.151-2.642,1.074-4.831,2.051-3.72,1.135,1.289.541,2.964,1.1,4.588-1.323,2.934-1.313,5.677-.2,7.086q1.732-3.786,3.464-7.569a106.283,106.283,0,0,0-1.527-10.877c-.531-2.748-1.925-5.2-1.665-8.411a99.468,99.468,0,0,1,2.037-13.938c2.493-11.389,9.583-24.042,8.209-34-1.721-12.471,1.606-30.193,1.539-43.36,1.582,8.938,3.125,17.882,4.746,26.812,1.219,6.717,1.417,13.317-1.539,19.371-7.987,16.356-11.955,33.047-9.748,49.776,2.552,19.347,8.655,44.634,11.8,63.895a34.891,34.891,0,0,1-.385,12.572c-6.17,29.881,11.357,58.729,13.981,88.638-1.455,1.73-1.651,3.584-.9,4.875-1.866,6.735-2.062,6.212-5.188,9.4-2.639,2.689-2.509,2.98-2.693,3.982-1.834,2.135,1.066,2.229,1.654,1.964a1.886,1.886,0,0,0,2.6.518c.1,1.019,2.18,1.111,3.252.529.328.884,3.066.884,3.534-.189.254,1.656,5.919,1.321,5.9-.812,2.036-.339,1.289-4.341,1.2-7.253q.226-8.6.451-17.2c-1.551-16.543-1.051-32.629-.754-48.76-.449-10.057-.535-13.587-1.346-23.622a73.617,73.617,0,0,1,.561-15.927c.582-4.383.6-8.824.9-13.234.953-18.159,1.327-42.941-.112-61.4a9.289,9.289,0,0,0,2.413.265h.054a9.3,9.3,0,0,0,2.414-.265c-1.44,18.458-1.067,43.24-.112,61.4.3,4.411.315,8.852.9,13.234a73.679,73.679,0,0,1,.56,15.927c-.811,10.034-.9,13.564-1.345,23.622.3,16.131.8,32.217-.755,48.76q.226,8.6.451,17.2c-.092,2.912-.838,6.915,1.2,7.253-.019,2.133,5.647,2.469,5.9.812.468,1.073,3.2,1.073,3.534.189,1.071.583,3.155.49,3.251-.529a1.887,1.887,0,0,0,2.6-.518c.589.265,3.487.171,1.654-1.964-.184-1-.054-1.293-2.694-3.982-3.126-3.186-3.321-2.663-5.188-9.4.753-1.291.558-3.145-.9-4.875,2.625-29.909,20.152-58.757,13.981-88.638a34.89,34.89,0,0,1-.384-12.572c3.144-19.261,9.247-44.548,11.8-63.895,2.207-16.729-1.761-33.42-9.748-49.776-2.957-6.054-2.758-12.654-1.539-19.371,1.62-8.93,3.163-17.874,4.745-26.812-.065,13.168,3.26,30.89,1.539,43.36-1.374,9.955,5.716,22.608,8.209,34a99.623,99.623,0,0,1,2.038,13.938c.261,3.215-1.135,5.663-1.665,8.411a105.979,105.979,0,0,0-1.527,10.877q1.731,3.784,3.462,7.569c1.115-1.409,1.126-4.152-.2-7.086.557-1.624-.037-3.3,1.1-4.588.978-1.111,1.9,1.078,2.052,3.72q-.193,3.4-.385,6.8c-1.026,1.71-1.9,3.519-3.078,5.131-1.128,1.552-1.058,2.481-.641,3.464l2.822-2.823q3.206-2.694,6.413-5.388c1.1-2.506,2.928-4.859,3.263-8.437-1.283-6.713-3.391-13.713-4.674-20.427-.171-8.252-.719-16.507-.514-24.759.182-7.264.586-14.221-1.8-21.039a66.57,66.57,0,0,1-3.078-16.293c-.465-13.89.861-27.808.257-41.693-.452-10.393,2.676-22.328-13.467-23.605-22.51-8.116-21.41-16.584-20.895-25.043a29.43,29.43,0,0,1-6.426,3.108,13.262,13.262,0,0,1-3.055.459c-.1,0-.2,0-.305,0h-.047c-.1,0-.2,0-.305,0a13.279,13.279,0,0,1-3.056-.459A31.73,31.73,0,0,1,217.387,98.589Z" transform="translate(0 1.964)" fill="#e5b295" fill-rule="evenodd"/><path d="M234.16,51.622c-4.784-7.046-21.64-6.372-28.273,9.441a46.032,46.032,0,0,0-3.258,26.287c-.51,11.525-3.81,15.514-7.893,17.394,2.834-.359,5.749-.018,9.325-5.557.045,6.288-1.566,10.24-4.375,13.317,3.124-1,5.358-2.45,6.287-4.549a11.427,11.427,0,0,1-1.07,7.894,11.3,11.3,0,0,0,6.019-4.683,7.25,7.25,0,0,1-1.872,5.352c3.466-1.018,5.652-3.887,7.029-6.751.9-3.061.669-6.138.478-9.215a31.729,31.729,0,0,0,5.957,2.8,13.279,13.279,0,0,0,3.056.459c.1,0,.2,0,.305,0h.047c.1,0,.2,0,.305,0a13.261,13.261,0,0,0,3.055-.459,29.43,29.43,0,0,0,6.426-3.108c-.294,4.814-.774,9.628,3.012,14.381a27.857,27.857,0,0,1,.428-6.532,14.84,14.84,0,0,0,5.619,9.768,33.232,33.232,0,0,1-2.006-10.436,10.452,10.452,0,0,0,6.956,5.085,12.144,12.144,0,0,1-2.408-6.957,5.664,5.664,0,0,0,4.281,2.943,12.037,12.037,0,0,1-3.084-6.9c1.188,1.365,4.208,3.009,5.914,2.694a17.771,17.771,0,0,1-5.638-12.517c-.428-8.061-.088-16.145-.133-24.217C248.307,53.543,239.539,47.365,234.16,51.622Z" transform="translate(0.83 0)" fill="#93644d" fill-rule="evenodd"/><path d="M233.919,431.587c.358-1.514.116-1.8-1.859-2.776C234.375,429.345,235.436,430.093,233.919,431.587Z" transform="translate(2.269 14.706)" fill="#ba843d"/><path d="M216.164,431.587c-.359-1.514-.117-1.8,1.858-2.776C215.707,429.345,214.646,430.093,216.164,431.587Z" transform="translate(1.629 14.706)" fill="#ba843d"/><path d="M240.014,92.612c-1.66,5.9-5.411,7.969-11.306,10.2a13.261,13.261,0,0,1-3.055.459c-.1,0-.2,0-.305,0H225.3c-.1,0-.2,0-.305,0a13.278,13.278,0,0,1-3.056-.459c-8.521-3.222-12.565-6.112-12.282-20.715.038-2.016.1-3.936.2-5.754,3.423-4.768,7.6-6.192,11.446-7.711,5.2-2.057,10.6-2.031,12.336-7.295,3.855,2.618,5.324,7.8,6.376,15.542Z" transform="translate(1.405 0.539)" fill="#e5b295" fill-rule="evenodd"/><path d="M237.285,431.758c.288-1.215.094-1.444-1.49-2.226C237.652,429.959,238.16,430.444,237.285,431.758Z" transform="translate(2.413 14.733)" fill="#ba843d"/><path d="M212.772,431.758c-.288-1.215-.093-1.444,1.49-2.226C212.407,429.959,211.9,430.444,212.772,431.758Z" transform="translate(1.509 14.733)" fill="#ba843d"/><path d="M240.393,431.373c.005-1.248-.236-1.427-1.956-1.831C240.342,429.538,240.947,429.9,240.393,431.373Z" transform="translate(2.515 14.734)" fill="#ba843d"/><path d="M209.674,431.373c-.005-1.248.236-1.427,1.956-1.831C209.725,429.538,209.121,429.9,209.674,431.373Z" transform="translate(1.398 14.734)" fill="#ba843d"/><path d="M242.936,430.76c.005-1.151-.217-1.315-1.8-1.688C242.89,429.069,243.447,429.4,242.936,430.76Z" transform="translate(2.619 14.716)" fill="#ba843d"/><path d="M207.125,430.76c-.005-1.151.217-1.315,1.8-1.688C207.171,429.069,206.614,429.4,207.125,430.76Z" transform="translate(1.301 14.716)" fill="#ba843d"/><path d="M244.823,429.216c-.661-.939-1.159-.915-2.227-1.065C243.837,427.956,244.394,428.153,244.823,429.216Z" transform="translate(2.675 14.678)" fill="#ba843d"/><path d="M205.247,429.216c.662-.939,1.159-.915,2.228-1.065C206.233,427.956,205.676,428.153,205.247,429.216Z" transform="translate(1.235 14.678)" fill="#ba843d"/><g transform="translate(177.278 100.24)"><path d="M215.747,98.589c1.557,3.095,6.536,7.563,9.616,7.507h.046c.1,0,.2,0,.305,0,4.152,0,6.872-3.192,9.185-7.823a29.428,29.428,0,0,1-6.425,3.108,13.262,13.262,0,0,1-3.055.459c-.1,0-.2,0-.305,0h-.047c-.1,0-.2,0-.305,0a13.278,13.278,0,0,1-3.056-.459A31.73,31.73,0,0,1,215.747,98.589Z" transform="translate(-175.638 -98.276)" fill="#dd916b" fill-rule="evenodd"/><path d="M196.947,147.87a.407.407,0,0,1,.511-.265c-5.927,26.768,17.572,20.828,21.821,18.546a.407.407,0,0,1-.178.547C202.913,174.969,191.6,164.719,196.947,147.87Z" transform="translate(-176.415 -96.375)" fill="#dd916b"/><path d="M254.236,147.87a.407.407,0,0,0-.511-.265c5.927,26.768-17.572,20.828-21.821,18.546a.407.407,0,0,0,.178.547C248.269,174.969,259.585,164.719,254.236,147.87Z" transform="translate(-175.017 -96.375)" fill="#dd916b"/><path d="M192.809,147.507c2.132,1.258,4.146,6.671,3.935,11.915a.407.407,0,1,1-.814-.032A27.085,27.085,0,0,0,192.809,147.507Z" transform="translate(-176.523 -96.378)" fill="#dd916b"/><path d="M257.64,147.507c-2.132,1.258-4.146,6.671-3.935,11.915a.407.407,0,1,0,.814-.032A27.07,27.07,0,0,1,257.64,147.507Z" transform="translate(-174.176 -96.378)" fill="#dd916b"/><path d="M198.6,123.3c-.225-.005-1.044-.292-1.038-.517s.835-.3,1.059-.3c7.682-.169,10.766.734,17.2,1.528.223.027,3.778.524,3.751.748C219.526,125.141,201.754,122.955,198.6,123.3Z" transform="translate(-176.339 -97.343)" fill="#dd916b"/><path d="M221.509,125.829c-.267-.461.029-1.456.706-.409,1.315,1.835,3.118,2.8,5.179,1.428a.408.408,0,0,1,.567-.1C227.73,127.08,224.712,131.342,221.509,125.829Z" transform="translate(-175.42 -97.247)" fill="#dd916b"/><path d="M215.01,242.909c-.406-1.431,3.283,4.479,8.229,7.649C216.94,248.223,215.365,244.149,215.01,242.909Z" transform="translate(-175.668 -92.709)" fill="#dd916b"/><path d="M235.459,242.909c.407-1.431-3.282,4.479-8.229,7.649C233.531,248.223,235.105,244.149,235.459,242.909Z" transform="translate(-175.196 -92.709)" fill="#dd916b"/><path d="M249.82,123.3c.225-.005,1.044-.292,1.038-.517s-.835-.3-1.059-.3c-7.682-.169-10.766.734-17.2,1.528-.223.027-3.778.524-3.751.748C228.9,125.141,246.668,122.955,249.82,123.3Z" transform="translate(-175.133 -97.343)" fill="#dd916b"/><path d="M233.7,104.4c.051-.194-.02-.982-.239-1.046s-.507.622-.558.817c-2.116,6.534-2.021,9.453-2.884,15.207-.029.2-.45,3.4-.225,3.445C230.173,122.9,233.926,109.411,233.7,104.4Z" transform="translate(-175.099 -98.08)" fill="#dd916b"/><path d="M216.273,107.147c-.043-.164,0-.83.163-.884s.4.527.444.691c1.754,5.52.891,6.913,2.514,12.848a15.216,15.216,0,0,1,.241,2.91C219.346,122.776,216.2,111.38,216.273,107.147Z" transform="translate(-175.619 -97.968)" fill="#dd916b"/><path d="M241.073,318.523c.962-.857-3.6,2.013-9.095.072C236.966,322.129,240.238,319.264,241.073,318.523Z" transform="translate(-175.013 -89.792)" fill="#dd916b"/><path d="M207.812,317.5c-.963-.857,4.2,3.073,9.692,1.132C212.516,322.167,209.567,319.946,207.812,317.5Z" transform="translate(-175.949 -89.83)" fill="#dd916b"/><path d="M182.758,278.415a23.49,23.49,0,0,1-3.047-4.244c-.288-.914-3-6.835-2.528-5.3l1.773,5.625h0a.416.416,0,0,0,.078.142A22.764,22.764,0,0,0,182.758,278.415Z" transform="translate(-177.127 -91.709)" fill="#dd916b"/><path d="M267.477,278.415a23.457,23.457,0,0,0,3.048-4.244c.288-.914,3-6.835,2.528-5.3l-1.773,5.625h0a.4.4,0,0,1-.078.142A22.668,22.668,0,0,1,267.477,278.415Z" transform="translate(-173.644 -91.709)" fill="#dd916b"/></g></g></svg>