<svg id="female" xmlns="http://www.w3.org/2000/svg" width="8.957" height="18" viewBox="0 0 8.957 18">
  <circle id="Ellipse_413" data-name="Ellipse 413" cx="2.252" cy="2.252" r="2.252" transform="translate(2.201)" fill="#fff"/>
  <path id="Path_59736" data-name="Path 59736" d="M214.161,117.762l-1.922-4.682c-.11-.236-.207-.553-.659-.553H208.17a.882.882,0,0,0-.814.558l-2,4.646a.789.789,0,0,0,.354,1.053.777.777,0,0,0,1.043-.36l.15-.308s.047-.083.029.009c-.109.572-.409,2.293-.409,2.293a.522.522,0,0,0,.532.651h.869c.062,0,.051.047.051.047v3.459a.81.81,0,1,0,1.612,0V121.1a.031.031,0,0,1,.034-.033c.047,0,.165,0,.219,0,.03,0,.026.036.026.036v3.47a.81.81,0,1,0,1.613,0v-3.45s-.005-.056.061-.056h.935a.535.535,0,0,0,.545-.654s-.3-1.846-.381-2.349c-.023-.144.217.368.217.368a.657.657,0,0,0,.926.373A.789.789,0,0,0,214.161,117.762Z" transform="translate(-205.279 -107.46)" fill="#fff"/>
</svg>
