<svg xmlns="http://www.w3.org/2000/svg" width="68.521" height="101.477" viewBox="0 0 68.521 101.477"><g transform="translate(0 0)"><path d="M136.783,101.477H93.143A4.21,4.21,0,0,1,89,97.994L87.446,89.16A447.9,447.9,0,0,1,80.7,11.729V2.254A2.254,2.254,0,0,1,82.956,0H146.97a2.254,2.254,0,0,1,2.253,2.254v9.476a447.905,447.905,0,0,1-6.744,77.43l-1.551,8.835A4.21,4.21,0,0,1,136.783,101.477Z" transform="translate(-80.702 0)" fill="#cceffd"/></g><g transform="translate(8.789 32.115)"><path d="M125.24,157.29a1.494,1.494,0,0,0-1.493,1.567,440.854,440.854,0,0,0,6.066,54.054l.811,4.62a1.068,1.068,0,0,0,1.051.883h35.083a1.067,1.067,0,0,0,1.051-.883l.811-4.62a440.843,440.843,0,0,0,6.067-54.054,1.494,1.494,0,0,0-1.493-1.567Z" transform="translate(-123.746 -157.29)" fill="#75cff9"/></g><g transform="translate(49.955 0)"><path d="M341.68,0h-6.125a2.253,2.253,0,0,1,2.253,2.254v9.476a447.872,447.872,0,0,1-6.744,77.43l-1.55,8.835a4.21,4.21,0,0,1-4.147,3.482h6.125a4.21,4.21,0,0,0,4.147-3.482l1.55-8.835a447.9,447.9,0,0,0,6.744-77.43V2.253A2.253,2.253,0,0,0,341.68,0Z" transform="translate(-325.367 0)" fill="#aae2fa"/></g><g transform="translate(45.677 32.115)"><path d="M316.974,157.29h-6.125a1.494,1.494,0,0,1,1.493,1.566,440.859,440.859,0,0,1-6.067,54.054l-.811,4.62a1.068,1.068,0,0,1-1.051.883h6.125a1.068,1.068,0,0,0,1.051-.883l.811-4.62a440.859,440.859,0,0,0,6.066-54.054A1.494,1.494,0,0,0,316.974,157.29Z" transform="translate(-304.413 -157.29)" fill="#6cbff8"/></g></svg>