<svg xmlns="http://www.w3.org/2000/svg" xmlns:xlink="http://www.w3.org/1999/xlink" width="168.478" height="50" viewBox="0 0 168.478 50"><defs><linearGradient id="a" x1="0.849" y1="0.31" x2="0.361" y2="0.799" gradientUnits="objectBoundingBox"><stop offset="0" stop-color="#00a0ff"/><stop offset="0.007" stop-color="#00a1ff"/><stop offset="0.26" stop-color="#00beff"/><stop offset="0.512" stop-color="#00d2ff"/><stop offset="0.76" stop-color="#00dfff"/><stop offset="1" stop-color="#00e3ff"/></linearGradient><linearGradient id="b" x1="0.97" y1="0.436" x2="-1.177" y2="0.436" gradientUnits="objectBoundingBox"><stop offset="0" stop-color="#ffe000"/><stop offset="0.409" stop-color="#ffbd00"/><stop offset="0.775" stop-color="orange"/><stop offset="1" stop-color="#ff9c00"/></linearGradient><linearGradient id="c" x1="0.761" y1="0.213" x2="-0.443" y2="1.411" gradientUnits="objectBoundingBox"><stop offset="0" stop-color="#ff3a44"/><stop offset="1" stop-color="#c31162"/></linearGradient><linearGradient id="d" x1="-0.17" y1="-0.275" x2="0.367" y2="0.26" gradientUnits="objectBoundingBox"><stop offset="0" stop-color="#32a071"/><stop offset="0.068" stop-color="#2da771"/><stop offset="0.476" stop-color="#15cf74"/><stop offset="0.801" stop-color="#06e775"/><stop offset="1" stop-color="#00f076"/></linearGradient><linearGradient id="e" x1="0.624" y1="0.038" x2="-0.364" y2="1.027" gradientUnits="objectBoundingBox"><stop offset="0" stop-color="#cc2e36"/><stop offset="1" stop-color="#9c0e4e"/></linearGradient><linearGradient id="f" x1="5.233" y1="-7.998" x2="-1.121" y2="-1.634" gradientUnits="objectBoundingBox"><stop offset="0" stop-color="#008de0"/><stop offset="0.007" stop-color="#008de0"/><stop offset="0.26" stop-color="#00a7e0"/><stop offset="0.512" stop-color="#00b8e0"/><stop offset="0.76" stop-color="#00c4e0"/><stop offset="1" stop-color="#00c7e0"/></linearGradient><linearGradient id="g" x1="0.943" y1="-0.195" x2="-2.414" y2="-0.195" gradientUnits="objectBoundingBox"><stop offset="0" stop-color="#e0c500"/><stop offset="0.409" stop-color="#e0a600"/><stop offset="0.775" stop-color="#e09100"/><stop offset="1" stop-color="#e08900"/></linearGradient><linearGradient id="h" x1="0.944" y1="0.999" x2="-2.414" y2="0.999" gradientUnits="objectBoundingBox"><stop offset="0" stop-color="#ffe840"/><stop offset="0.409" stop-color="#ffce40"/><stop offset="0.775" stop-color="#ffbc40"/><stop offset="1" stop-color="#ffb540"/></linearGradient><linearGradient id="i" x1="5.219" y1="0.865" x2="-1.113" y2="6.933" gradientUnits="objectBoundingBox"><stop offset="0" stop-color="#40b8ff"/><stop offset="0.007" stop-color="#40b9ff"/><stop offset="0.26" stop-color="#40ceff"/><stop offset="0.512" stop-color="#40ddff"/><stop offset="0.76" stop-color="#40e7ff"/><stop offset="1" stop-color="#40eaff"/></linearGradient><linearGradient id="j" x1="-0.137" y1="-0.184" x2="0.304" y2="0.257" gradientUnits="objectBoundingBox"><stop offset="0" stop-color="#65b895"/><stop offset="0.068" stop-color="#62bd95"/><stop offset="0.476" stop-color="#50db97"/><stop offset="0.801" stop-color="#44ed98"/><stop offset="1" stop-color="#40f498"/></linearGradient></defs><path d="M162.238,50H6.24A6.263,6.263,0,0,1,0,43.75V6.25A6.263,6.263,0,0,1,6.24,0h156a6.263,6.263,0,0,1,6.24,6.25v37.5a6.263,6.263,0,0,1-6.24,6.25"/><path d="M926.2,156.986a3.388,3.388,0,0,1-.93,2.5,3.628,3.628,0,0,1-2.751,1.11,3.918,3.918,0,1,1,0-7.836,3.856,3.856,0,0,1,1.537.315,3.087,3.087,0,0,1,1.171.838l-.658.66a2.527,2.527,0,0,0-2.05-.89,3,3,0,1,0,2.091,5.154,2.361,2.361,0,0,0,.628-1.519h-2.719v-.9h3.629a3.2,3.2,0,0,1,.052.566" transform="translate(-867.018 -144.182)" fill="#fff"/><path d="M924.1,154.886h-.125a3.262,3.262,0,0,1-.893,2.415h0a3.5,3.5,0,0,1-2.661,1.071,3.793,3.793,0,1,1,0-7.586,3.734,3.734,0,0,1,1.488.3,2.967,2.967,0,0,1,1.125.8l.1-.081-.088-.088-.658.66.088.088.1-.08a2.655,2.655,0,0,0-2.146-.935,3.121,3.121,0,1,0,2.18,5.367,2.489,2.489,0,0,0,.664-1.6l.012-.136h-2.731v-.651h3.5v-.125l-.123.022a3.058,3.058,0,0,1,.05.544h.25a3.31,3.31,0,0,0-.054-.588l-.018-.1h-3.858v1.151h2.844v-.125l-.124-.011a2.24,2.24,0,0,1-.592,1.442,2.854,2.854,0,0,1-3.961,0,3.018,3.018,0,0,1,0-4.146,2.716,2.716,0,0,1,1.958-.8,2.4,2.4,0,0,1,1.954.845l.088.1.754-.756.081-.081-.074-.088a3.206,3.206,0,0,0-1.217-.872,3.981,3.981,0,0,0-1.586-.325,4.043,4.043,0,1,0,0,8.086,3.756,3.756,0,0,0,2.841-1.149l-.09-.086.088.088a3.515,3.515,0,0,0,.966-2.592H924.1m5.752-3.133h-3.41v2.378h3.075v.9h-3.075v2.378h3.41v.921h-4.371v-7.5h4.371v.921" transform="translate(-864.923 -142.082)" fill="#fff"/><path d="M1080.243,154.576v-.125h-3.535v2.628h3.075v.651h-3.075v2.628h3.41v.671H1076v-7.25h4.122v.8h.125v0h.125V153.53h-4.621v7.75h4.621v-1.171h-3.41v-2.128h3.075v-1.151h-3.075V154.7h3.41v-.125h-.125m4.057,6.579h-.963v-6.579h-2.091v-.921h5.146v.921H1084.3v6.579" transform="translate(-1015.314 -144.905)" fill="#fff"/><path d="M1174.6,161.155v-.125h-.838v-6.579h-2.091v-.671h4.9v.671h-2.091v6.7h.125v0h.125V154.7h2.091V153.53h-5.4V154.7h2.091v6.579h1.212v-.125h-.125m5.814,0v-7.5h.962v7.5h-.962" transform="translate(-1105.615 -144.905)" fill="#fff"/><path d="M1329.414,161.155h.125V153.78h.712v7.25h-.837v.125h0v.125h1.087v-7.75h-1.211v7.75h.125v-.125m5.23,0h-.963v-6.579h-2.091v-.921h5.145v.921h-2.092v6.579" transform="translate(-1254.612 -144.905)" fill="#fff"/><path d="M1371.194,160.432v-.125h-.838v-6.579h-2.091v-.671h4.9v.671h-2.091v6.7h.125v0h.125v-6.454h2.091v-1.171h-5.395v1.171h2.091v6.579h1.212v-.125h-.125m7.052-1.6a2.876,2.876,0,0,0,4.068,0,3.2,3.2,0,0,0,0-4.306,2.876,2.876,0,0,0-4.068,0,3.2,3.2,0,0,0,0,4.306Zm4.78.628a3.883,3.883,0,0,1-5.49,0,4.056,4.056,0,0,1,0-5.561,3.87,3.87,0,0,1,5.485,0,4.043,4.043,0,0,1,0,5.557Z" transform="translate(-1291.162 -144.182)" fill="#fff"/><path d="M1517.566,156.735l-.089.088a3,3,0,0,0,4.246,0,3.324,3.324,0,0,0,0-4.482,3,3,0,0,0-4.246,0,3.329,3.329,0,0,0,0,4.482l.089-.088.089-.088a3.079,3.079,0,0,1,0-4.13,2.752,2.752,0,0,1,3.891,0,3.076,3.076,0,0,1,0,4.13,2.752,2.752,0,0,1-3.891,0Zm4.78.628-.089-.087a3.76,3.76,0,0,1-5.312,0l0,0,0,0a3.932,3.932,0,0,1,0-5.388,3.746,3.746,0,0,1,5.307.005,3.919,3.919,0,0,1,0,5.382l.089.087.09.087a4.168,4.168,0,0,0,0-5.73,3.994,3.994,0,0,0-5.665,0h0a4.182,4.182,0,0,0,0,5.736l0,0,0,0a4.007,4.007,0,0,0,5.669,0Zm2.454.969v-7.5h1.171l3.639,5.834h.042l-.042-1.445v-4.389h.963v7.5h-1l-3.807-6.117h-.042l.042,1.446v4.671h-.961" transform="translate(-1430.483 -142.082)" fill="#fff"/><path d="M954.834,161.155h.125V153.78h.977l3.639,5.834h.239l-.045-1.572V153.78h.713v7.25h-.81l-3.807-6.117h-.239l.045,1.573v4.544h-.836v.125h0v.125h1.086v-4.8l-.041-1.447-.125,0v.125h.041v-.125l-.106.066,3.844,6.176h1.2v-7.75h-1.212v4.516l.041,1.447.125,0v-.125h-.041v.125l.106-.066-3.676-5.893h-1.365v7.75h.125v-.125m39.137,21.25H996.3V166.779h-2.329Zm20.975-10-2.669,6.775h-.08l-2.771-6.775h-2.509l4.155,9.469-2.369,5.267h2.43l6.4-14.736Zm-13.206,8.223c-.764,0-1.827-.382-1.827-1.327,0-1.206,1.325-1.669,2.469-1.669a4.138,4.138,0,0,1,2.128.523A2.825,2.825,0,0,1,1001.74,180.63Zm.281-8.564a4.37,4.37,0,0,0-4.154,2.393l2.067.864a2.206,2.206,0,0,1,2.128-1.146,2.243,2.243,0,0,1,2.448,2.011v.161a5.143,5.143,0,0,0-2.429-.6c-2.228,0-4.5,1.226-4.5,3.518a3.607,3.607,0,0,0,3.874,3.438,3.286,3.286,0,0,0,2.971-1.528h.08v1.206h2.248v-5.991C1006.757,173.614,1004.69,172.066,1002.021,172.066Zm-14.392,2.244h-3.312v-5.356h3.312a2.679,2.679,0,1,1,0,5.356Zm-.06-7.531h-5.58V182.4h2.327v-5.92h3.252a4.86,4.86,0,1,0,0-9.706Zm-30.427,13.854a3.234,3.234,0,0,1,0-6.444,3.249,3.249,0,0,1,0,6.444Zm2.674-7.351h-.08a3.676,3.676,0,0,0-2.795-1.188,5.322,5.322,0,0,0,0,10.633,3.617,3.617,0,0,0,2.795-1.208h.08v.765c0,2.034-1.086,3.122-2.835,3.122a2.939,2.939,0,0,1-2.674-1.893l-2.03.846a5.059,5.059,0,0,0,4.7,3.142c2.734,0,5.046-1.611,5.046-5.538v-9.545h-2.212Zm3.82,9.122h2.332V166.778h-2.332Zm5.77-5.155a2.914,2.914,0,0,1,2.774-3.1,2.053,2.053,0,0,1,1.97,1.128Zm7.238-1.772a4.934,4.934,0,0,0-4.544-3.383,5.049,5.049,0,0,0-5.006,5.316,5.2,5.2,0,0,0,5.267,5.316,5.279,5.279,0,0,0,4.424-2.356l-1.81-1.208a3.03,3.03,0,0,1-2.614,1.47,2.7,2.7,0,0,1-2.574-1.611l7.1-2.94ZM920.1,173.726v2.255h5.388a4.71,4.71,0,0,1-1.227,2.839,5.51,5.51,0,0,1-4.162,1.651,6,6,0,0,1,0-12,5.738,5.738,0,0,1,4.061,1.611l1.588-1.591a7.847,7.847,0,0,0-5.649-2.276,8.257,8.257,0,1,0,0,16.513,7.3,7.3,0,0,0,7.7-7.592,7.329,7.329,0,0,0-.121-1.41Zm13.826,6.907a3.231,3.231,0,1,1,3-3.222A3.074,3.074,0,0,1,933.927,180.633Zm0-8.538a5.316,5.316,0,1,0,5.328,5.316A5.236,5.236,0,0,0,933.927,172.095Zm11.623,8.538a3.231,3.231,0,1,1,3-3.222A3.074,3.074,0,0,1,945.549,180.633Zm0-8.538a5.316,5.316,0,1,0,5.328,5.316A5.236,5.236,0,0,0,945.549,172.095Z" transform="translate(-860.517 -144.905)" fill="#fff"/><path d="M222.21,162.54a2.416,2.416,0,0,0-.669,1.848v27.28a2.506,2.506,0,0,0,.578,1.756l.093.089h0a1.6,1.6,0,0,0,1.1.406,2.871,2.871,0,0,0,1.4-.419l18.115-10.309,6.222-3.542a2.329,2.329,0,0,0,1.308-1.621v0a2.328,2.328,0,0,0-1.308-1.622l-6.223-3.541-18.114-10.309a2.876,2.876,0,0,0-1.4-.42,1.6,1.6,0,0,0-1.1.406Z" transform="translate(-209.095 -153.026)" fill="#00c1ff"/><path d="M.785-520.593l-.093-.089a2.505,2.505,0,0,1-.578-1.756v-27.28a2.416,2.416,0,0,1,.669-1.848l15.462,15.487L.785-520.593" transform="translate(12.331 561.08)" fill="url(#a)"/><path d="M5.841-174.24.686-179.4l5.154-5.163,6.223,3.541a2.328,2.328,0,0,1,1.308,1.622v0a2.329,2.329,0,0,1-1.308,1.621L5.841-174.24" transform="translate(27.891 204.405)" fill="url(#b)"/><path d="M1.543-267.124a1.6,1.6,0,0,1-1.1-.406h0L15.9-283.017l5.155,5.164L2.941-267.544a2.87,2.87,0,0,1-1.4.419" transform="translate(12.676 308.018)" fill="url(#c)"/><path d="M15.652-267.712.19-283.2a1.605,1.605,0,0,1,1.1-.406,2.876,2.876,0,0,1,1.4.42l18.114,10.309-5.154,5.163" transform="translate(12.924 292.713)" fill="url(#d)"/><path d="M1.986-184.182a1.607,1.607,0,0,1-1.1-.407h0l0,0-.08-.079-.008-.008.093-.093a1.6,1.6,0,0,0,1.1.406,2.87,2.87,0,0,0,1.4-.419L21.5-195.094l.116.116-.118.067L3.383-184.6a2.98,2.98,0,0,1-1.284.417l-.114,0" transform="translate(12.233 225.259)" fill="url(#e)"/><path d="M.693-33.367a2.5,2.5,0,0,1-.578-1.756v-.182a2.506,2.506,0,0,0,.578,1.756l.093.089-.093.093" transform="translate(12.331 73.947)" fill="url(#f)"/><path d="M.758-88.849l-.116-.116,6.222-3.541a2.329,2.329,0,0,0,1.308-1.621,1.55,1.55,0,0,1-.144.645,2.68,2.68,0,0,1-1.164,1.159L.758-88.849" transform="translate(33.09 119.13)" fill="url(#g)"/><path d="M8.164-89.405a2.328,2.328,0,0,0-1.308-1.622L.633-94.568l.116-.116h0l6.106,3.475a2.195,2.195,0,0,1,1.308,1.8" transform="translate(33.098 114.406)" fill="url(#h)"/><path d="M.115-32.819v-.191c0-.069,0-.136.005-.2v0a.009.009,0,0,1,0,0v-.007a2.384,2.384,0,0,1,.572-1.534l.091.092a2.417,2.417,0,0,0-.669,1.848" transform="translate(12.331 44.18)" fill="url(#i)"/><path d="M21.5-183.991,3.383-194.3a2.876,2.876,0,0,0-1.4-.42,1.605,1.605,0,0,0-1.1.406l-.091-.092q.043-.045.089-.087l0,0a1.6,1.6,0,0,1,1.092-.406h.009a2.875,2.875,0,0,1,1.4.421l18.231,10.375h0l-.116.116" transform="translate(12.234 203.829)" fill="url(#j)"/></svg>