<svg xmlns="http://www.w3.org/2000/svg" xmlns:xlink="http://www.w3.org/1999/xlink" width="699" height="100" viewBox="0 0 699 100"><defs><clipPath id="a"><rect width="699" height="100" fill="none"/></clipPath></defs><g clip-path="url(#a)"><g transform="translate(18 -236)"><path d="M20,0H36L16,100H0Z" transform="translate(-18 236)" fill="#2c2c2c"/></g><g transform="translate(59 -236)"><path d="M20,0H36L16,100H0Z" transform="translate(-18 236)" fill="#2c2c2c"/></g><g transform="translate(100 -236)"><path d="M20,0H36L16,100H0Z" transform="translate(-18 236)" fill="#2c2c2c"/></g><g transform="translate(141 -236)"><path d="M20,0H36L16,100H0Z" transform="translate(-18 236)" fill="#2c2c2c"/></g><g transform="translate(182 -236)"><path d="M20,0H36L16,100H0Z" transform="translate(-18 236)" fill="#2c2c2c"/></g><g transform="translate(223 -236)"><path d="M20,0H36L16,100H0Z" transform="translate(-18 236)" fill="#2c2c2c"/></g><g transform="translate(264 -236)"><path d="M20,0H36L16,100H0Z" transform="translate(-18 236)" fill="#2c2c2c"/></g><g transform="translate(305 -236)"><path d="M20,0H36L16,100H0Z" transform="translate(-18 236)" fill="#2c2c2c"/></g><g transform="translate(346 -236)"><path d="M20,0H36L16,100H0Z" transform="translate(-18 236)" fill="#2c2c2c"/></g><g transform="translate(387 -236)"><path d="M20,0H36L16,100H0Z" transform="translate(-18 236)" fill="#2c2c2c"/></g><g transform="translate(428 -236)"><path d="M20,0H36L16,100H0Z" transform="translate(-18 236)" fill="#2c2c2c"/></g><g transform="translate(469 -236)"><path d="M20,0H36L16,100H0Z" transform="translate(-18 236)" fill="#2c2c2c"/></g><g transform="translate(510 -236)"><path d="M20,0H36L16,100H0Z" transform="translate(-18 236)" fill="#2c2c2c"/></g><g transform="translate(551 -236)"><path d="M20,0H36L16,100H0Z" transform="translate(-18 236)" fill="#2c2c2c"/></g><g transform="translate(592 -236)"><path d="M20,0H36L16,100H0Z" transform="translate(-18 236)" fill="#2c2c2c"/></g><g transform="translate(633 -236)"><path d="M20,0H36L16,100H0Z" transform="translate(-18 236)" fill="#2c2c2c"/></g><g transform="translate(674 -236)"><path d="M20,0H36L16,100H0Z" transform="translate(-18 236)" fill="#2c2c2c"/></g><g transform="translate(715 -236)"><path d="M20,0H36L16,100H0Z" transform="translate(-18 236)" fill="#2c2c2c"/></g></g></svg>