<svg xmlns="http://www.w3.org/2000/svg" xmlns:xlink="http://www.w3.org/1999/xlink" width="60.166" height="55" viewBox="0 0 60.166 55">
  <defs>
    <filter id="heart" x="0" y="0" width="60.166" height="55" filterUnits="userSpaceOnUse">
      <feOffset dy="3" input="SourceAlpha"/>
      <feGaussianBlur stdDeviation="5" result="blur"/>
      <feFlood flood-opacity="0.161"/>
      <feComposite operator="in" in2="blur"/>
      <feComposite in="SourceGraphic"/>
    </filter>
  </defs>
  <g transform="matrix(1, 0, 0, 1, 0, 0)" filter="url(#heart)">
    <path id="heart-2" data-name="heart" d="M22.153,43.839a8.169,8.169,0,0,0-7.07,4.439,8.169,8.169,0,0,0-7.07-4.439A7.889,7.889,0,0,0,0,51.918c0,4.995,4.358,8.4,10.865,13.546,3.186,2.519,3.391,2.711,4.218,3.375.675-.542,1.048-.869,4.218-3.375,6.507-5.15,10.865-8.551,10.865-13.546A7.889,7.889,0,0,0,22.153,43.839Z" transform="translate(15 -31.84)" fill="#fff"/>
  </g>
</svg>
