<svg xmlns="http://www.w3.org/2000/svg" viewBox="0 0 346.13 384"><defs><style>.cls-1{fill:#b1b1b1;}</style></defs><g id="Layer_2" data-name="Layer 2"><g id="Layer_1-2" data-name="Layer 1"><path class="cls-1" d="M345.29,282.54c-3.7-18.85-20.22-32.85-40.94-34.68-7-.62-7.68-1.34-7.68-8.5,0-19.25.06-38.49,0-57.73,0-8.12.27-16.31-.74-24.33-6.31-50-32.72-85.19-78.8-105.51-.88-.39-1.72-.86-2.47-1.24,2.41-18.18-3-33-18.17-43.18-5.32-3.55-12.05-5-18.13-7.37H167.85a14.48,14.48,0,0,1-2.08.69A42.06,42.06,0,0,0,131,42.81c0,2.49,1.18,5.61.07,7.28-1.21,1.83-4.46,2.26-6.79,3.37-47.95,22.86-73.36,60.69-74.65,114-.59,24.35-.09,48.72-.11,73.09,0,5.5-1.18,6.84-6.69,7.17a45.49,45.49,0,0,0-29.05,12.15A42.39,42.39,0,0,0,2.89,306.59c6.29,16.43,22,27.69,39.46,27.83,23.57.18,47.14.05,70.71.05h4.51c.29,1.21.55,2.16.75,3.13,4.64,22.94,18.31,37.64,40.52,44.51,2.47.76,5,1.26,7.51,1.89h12.73a14.74,14.74,0,0,1,2.12-.64,55.75,55.75,0,0,0,46.22-43.28c.4-1.79.71-3.61,1.1-5.61h4.32c23.44,0,46.89.13,70.34,0A43.28,43.28,0,0,0,345.29,282.54ZM163.58,27.65a17.42,17.42,0,0,1,19.67.36C187.7,31.16,192,38.6,190,44H156.1C154.92,37.86,157.8,31.41,163.58,27.65ZM175.3,359.17c-15.33,1.07-30.82-10.71-32-24.53h59.36C203.21,345.49,189,358.2,175.3,359.17Zm146-66.42c-.65,9.82-8.86,16.95-19.76,17q-64.17,0-128.34,0t-128.34,0c-7.58,0-13.66-2.7-17.61-9.3-6.6-11.06.26-25.19,13.32-27.46,3.19-.56,6.49-.43,9.66-1.06a29.53,29.53,0,0,0,24-29.41c.11-25.61-.54-51.25.19-76.85C75.54,126.33,94,96.8,128.72,78.85c52.22-27,115.05-1.61,136.35,54.06A104.51,104.51,0,0,1,272,171q-.12,35.63,0,71.23c0,14.81,9.56,26.62,23.72,29.62,2.66.57,5.45.49,8.17.84C315,274.15,322,282.28,321.33,292.75Z"/><path class="cls-1" d="M345.42,133.61c.1,8.66-4.33,14-10.28,14.85a12.42,12.42,0,0,1-13.84-8.88c-2.94-9.12-5.4-18.45-9-27.31-6.74-16.6-16.85-31.12-29.42-43.87-3.14-3.19-5.21-6.74-4.63-11.33A11.74,11.74,0,0,1,286.4,46.8c5.06-1.75,9.57-.46,13.34,3.36A167.28,167.28,0,0,1,339.25,113C341.87,120.52,343.83,128.26,345.42,133.61Z"/><path class="cls-1" d="M63.57,68.06a144.88,144.88,0,0,0-38.23,69.63c-1.65,7.07-6.08,10.82-12.36,10.88-8.41.07-14.28-7.31-11.76-16C4.52,121.27,8,109.89,12.64,99.05,20.41,80.86,31.88,65,45.74,50.88c5.74-5.85,13.39-6.32,18.57-1.17S69.2,62.3,63.57,68.06Z"/></g></g></svg>