<svg xmlns="http://www.w3.org/2000/svg" xmlns:xlink="http://www.w3.org/1999/xlink" width="114.161" height="300" viewBox="0 0 114.161 300"><defs><linearGradient id="a" x1="0.5" y1="0.002" x2="0.5" y2="0.989" gradientUnits="objectBoundingBox"><stop offset="0" stop-color="#eab19c"/><stop offset="0.109" stop-color="#ecb7a4"/><stop offset="0.137" stop-color="#e8a992"/><stop offset="0.162" stop-color="#edbead"/><stop offset="0.341" stop-color="#eec2b2"/><stop offset="0.405" stop-color="#efc4b4"/><stop offset="0.462" stop-color="#efc5b5"/><stop offset="0.497" stop-color="#efc6b6"/><stop offset="0.525" stop-color="#efc4b3"/><stop offset="0.684" stop-color="#edbdab"/><stop offset="0.691" stop-color="#ebb7a4"/><stop offset="0.702" stop-color="#ebb5a1"/><stop offset="0.74" stop-color="#edbba9"/><stop offset="1" stop-color="#eab19c"/></linearGradient><linearGradient id="b" x1="0.5" y1="0.047" x2="0.5" y2="0.277" gradientUnits="objectBoundingBox"><stop offset="0" stop-color="#f7ad85"/><stop offset="0.214" stop-color="#f6ab83"/><stop offset="0.291" stop-color="#f6a77c"/><stop offset="0.346" stop-color="#f59f70"/><stop offset="0.36" stop-color="#f59c6c"/><stop offset="0.38" stop-color="#f59e6f"/><stop offset="0.496" stop-color="#f6a67b"/><stop offset="0.651" stop-color="#f6ab82"/><stop offset="1" stop-color="#f7ad85"/></linearGradient><linearGradient id="c" x1="0.5" y1="0.012" x2="0.5" y2="0.977" gradientUnits="objectBoundingBox"><stop offset="0" stop-color="#35c3ff"/><stop offset="0.204" stop-color="#2dc8ef"/><stop offset="0.387" stop-color="#3ebcf1"/><stop offset="1" stop-color="#37a1f6"/></linearGradient><radialGradient id="d" cx="0.5" cy="0.5" r="0.5" gradientTransform="translate(0)" gradientUnits="objectBoundingBox"><stop offset="0" stop-color="#25aae2"/><stop offset="0.135" stop-color="#29ace2"/><stop offset="0.291" stop-color="#37b1e4"/><stop offset="0.459" stop-color="#4fbbe8"/><stop offset="0.634" stop-color="#70c9ed"/><stop offset="0.815" stop-color="#9adaf4"/><stop offset="1" stop-color="#cdf0fc"/></radialGradient><radialGradient id="e" cx="0.5" cy="0.5" r="0.5" xlink:href="#d"/><radialGradient id="f" cx="0.5" cy="0.5" r="0.5" gradientTransform="matrix(1, 0, 0, 1, 0, 0)" xlink:href="#d"/><radialGradient id="g" cx="0.5" cy="0.5" r="0.5" xlink:href="#d"/><radialGradient id="i" cx="0.5" cy="0.5" r="0.5" xlink:href="#d"/><radialGradient id="j" cx="0.5" cy="0.5" r="0.5" xlink:href="#d"/><radialGradient id="k" cx="0.5" cy="0.5" r="0.5" xlink:href="#d"/><radialGradient id="m" cx="0.5" cy="0.5" r="0.5" xlink:href="#d"/><radialGradient id="n" cx="0.5" cy="0.5" r="0.5" xlink:href="#d"/><radialGradient id="p" cx="0.5" cy="0.5" r="0.5" xlink:href="#d"/><radialGradient id="r" cx="0.5" cy="0.5" r="0.5" gradientTransform="matrix(1, 0, 0, 1, 0, 0)" xlink:href="#d"/><radialGradient id="s" cx="0.5" cy="0.5" r="0.5" xlink:href="#d"/><radialGradient id="u" cx="0.5" cy="0.5" r="0.5" xlink:href="#d"/><radialGradient id="v" cx="0.5" cy="0.5" r="0.5" gradientTransform="matrix(1, 0, 0, 1, 0, 0)" xlink:href="#d"/><radialGradient id="x" cx="0.5" cy="0.5" r="0.5" xlink:href="#d"/><radialGradient id="z" cx="0.5" cy="0.5" r="0.5" xlink:href="#d"/><radialGradient id="aa" cx="0.5" cy="0.5" r="0.5" xlink:href="#d"/><radialGradient id="ab" cx="0.5" cy="0.5" r="0.5" xlink:href="#d"/><radialGradient id="ac" cx="0.5" cy="0.5" r="0.5" gradientTransform="matrix(1, 0, 0, 1, 0, 0)" xlink:href="#d"/><radialGradient id="ae" cx="0.5" cy="0.5" r="0.5" xlink:href="#d"/><radialGradient id="af" cx="0.5" cy="0.5" r="0.5" xlink:href="#d"/><radialGradient id="ag" cx="0.5" cy="0.5" r="0.5" gradientTransform="matrix(1, 0, 0, 1, 0, 0)" xlink:href="#d"/><radialGradient id="ah" cx="0.5" cy="0.5" r="0.5" xlink:href="#d"/><radialGradient id="ai" cx="0.5" cy="0.5" r="0.5" xlink:href="#d"/><radialGradient id="aj" cx="0.5" cy="0.5" r="0.5" gradientTransform="matrix(1, 0, 0, 1, 0, 0)" xlink:href="#d"/><radialGradient id="ak" cx="0.5" cy="0.5" r="0.5" xlink:href="#d"/><radialGradient id="al" cx="0.5" cy="0.5" r="0.5" xlink:href="#d"/><radialGradient id="am" cx="0.5" cy="0.5" r="0.5" xlink:href="#d"/><radialGradient id="an" cx="0.5" cy="0.5" r="0.5" xlink:href="#d"/><radialGradient id="ao" cx="0.5" cy="0.5" r="0.5" gradientTransform="matrix(1, 0, 0, 1, 0, 0)" xlink:href="#d"/><radialGradient id="aq" cx="0.5" cy="0.5" r="0.5" xlink:href="#d"/><radialGradient id="ar" cx="0.5" cy="0.5" r="0.5" xlink:href="#d"/><radialGradient id="as" cx="0.5" cy="0.5" r="0.5" xlink:href="#d"/><radialGradient id="at" cx="0.5" cy="0.5" r="0.5" gradientTransform="matrix(1, 0, 0, 1, 0, 0)" xlink:href="#d"/><radialGradient id="au" cx="0.5" cy="0.5" r="0.5" xlink:href="#d"/><radialGradient id="av" cx="0.5" cy="0.5" r="0.5" xlink:href="#d"/><radialGradient id="aw" cx="0.5" cy="0.5" r="0.5" xlink:href="#d"/><radialGradient id="ax" cx="0.5" cy="0.5" r="0.5" xlink:href="#d"/><radialGradient id="ay" cx="0.5" cy="0.5" r="0.5" xlink:href="#d"/><radialGradient id="az" cx="0.5" cy="0.5" r="0.5" xlink:href="#d"/><radialGradient id="ba" cx="0.5" cy="0.5" r="0.5" xlink:href="#d"/><radialGradient id="bd" cx="0.5" cy="0.5" r="0.5" xlink:href="#d"/><radialGradient id="bg" cx="0.5" cy="0.5" r="0.5" xlink:href="#d"/><radialGradient id="bi" cx="0.5" cy="0.5" r="0.5" xlink:href="#d"/><radialGradient id="bj" cx="0.5" cy="0.5" r="0.5" xlink:href="#d"/><radialGradient id="bk" cx="0.5" cy="0.5" r="0.5" xlink:href="#d"/><radialGradient id="bm" cx="0.5" cy="0.5" r="0.5" xlink:href="#d"/><radialGradient id="bn" cx="0.5" cy="0.5" r="0.5" xlink:href="#d"/><radialGradient id="bp" cx="0.5" cy="0.5" r="0.5" xlink:href="#d"/><radialGradient id="bt" cx="0.5" cy="0.5" r="0.5" xlink:href="#d"/><radialGradient id="bv" cx="0.5" cy="0.5" r="0.5" xlink:href="#d"/><radialGradient id="bw" cx="0.5" cy="0.5" r="0.5" xlink:href="#d"/><radialGradient id="bx" cx="0.5" cy="0.5" r="0.5" xlink:href="#d"/><radialGradient id="bz" cx="0.5" cy="0.5" r="0.5" gradientTransform="matrix(1, 0, 0, 1, 0, 0)" xlink:href="#d"/><radialGradient id="ca" cx="0.5" cy="0.5" r="0.5" xlink:href="#d"/><radialGradient id="cb" cx="0.5" cy="0.5" r="0.5" gradientTransform="matrix(1, 0, 0, 1, 0, 0)" xlink:href="#d"/><radialGradient id="cc" cx="0.5" cy="0.5" r="0.5" xlink:href="#d"/><radialGradient id="cd" cx="0.5" cy="0.5" r="0.5" xlink:href="#d"/><radialGradient id="ce" cx="0.5" cy="0.5" r="0.5" gradientTransform="matrix(1, 0, 0, 1, 0, 0)" xlink:href="#d"/><radialGradient id="cn" cx="0.5" cy="0.5" r="0.5" xlink:href="#d"/><radialGradient id="cq" cx="0.5" cy="0.5" r="0.5" xlink:href="#d"/><radialGradient id="cr" cx="0.5" cy="0.5" r="0.5" xlink:href="#d"/><radialGradient id="cs" cx="0.5" cy="0.5" r="0.5" xlink:href="#d"/><radialGradient id="ct" cx="0.5" cy="0.5" r="0.5" xlink:href="#d"/></defs><g transform="translate(0)"><g transform="translate(0)"><path d="M151.352,217.709c-.839-2.755-1.363-5.432-2.291-7.811s-3.015-7.13-3.509-8.795c-.37-1.248-1.148-4.232-1.236-4.559a36.522,36.522,0,0,1-.922-9.389c0-11.272-2.316-21-3.551-23.624s-2.008-4.632-3.448-15.286,1.338-8.9,0-21.771-11.22-15.13-15.646-16.16-13.484-4.761-15.235-6.1c-.862-.66-1-4.017-.917-7.252a21.423,21.423,0,0,0,2.544-7.21c.213.271.656.771,1.057.8.551.042,1.356-1.695,1.61-2.627a14.61,14.61,0,0,0,.212-5.3c-.381-1.186-1.271-.254-1.567.213a1.637,1.637,0,0,1-.568.462c.083-1.569.162-3.137.389-4.694a18.452,18.452,0,0,0-.8-8.984c-2.2-6.246-10.765-6.683-11.955-6.713h0c-1.189.031-9.759.467-11.954,6.713a18.452,18.452,0,0,0-.8,8.984c.227,1.557.306,3.125.39,4.694a1.637,1.637,0,0,1-.568-.462c-.3-.466-1.187-1.4-1.568-.213a14.628,14.628,0,0,0,.212,5.3c.255.932,1.06,2.669,1.61,2.627.4-.032.845-.532,1.058-.8a21.423,21.423,0,0,0,2.543,7.21c.083,3.235-.053,6.592-.917,7.252-1.75,1.338-10.808,5.069-15.234,6.1s-14.308,3.294-15.646,16.16,1.441,11.118,0,21.771-2.213,12.66-3.449,15.286-3.551,12.352-3.551,23.624a36.52,36.52,0,0,1-.922,9.389c-.089.327-.859,3.311-1.229,4.559-.494,1.664-2.58,6.416-3.509,8.795s-1.452,5.056-2.291,7.811a25.532,25.532,0,0,0-1.253,5.182c.01.94.36,1.3.871,1.509.814.336,1.514-.773,2.128-2.557.485-1.407,1.2-4.364,1.692-5.316.227-.441.158.268-.017.926-.46,1.734-1.623,5.313-2.187,7.324-.551,1.965-.828,3.953-.228,4.578a1.2,1.2,0,0,0,2.013-.258c.559-.981.776-2.95,1.176-4.331.715-2.472,2.433-7.566,2.433-7.566s-1.737,6.253-2.4,8.508c-.065.217-.577,2.551-.757,4.023-.178,1.456.248,2.737,1.336,2.535,2.064-.386,2.19-4.436,2.939-7.237s2.167-7.32,2.167-7.32-1.141,5.661-1.9,8.767-.417,5.068.942,4.463,2.04-2.7,2.27-3.909.835-3.51,1.234-5.482,1.825-7.678,2.583-7.508.611,4.481,2.9,6.563,3.819.254,3.125-1.2a23.564,23.564,0,0,1-2.373-7.466A15.509,15.509,0,0,0,54.93,204.9a5.73,5.73,0,0,1-.837-1.176,1.852,1.852,0,0,1-.161-.751c.4-1.49.9-3.026.9-3.026,1.534-4.756,5.235-16.179,7.634-23.135,3.088-8.955,2.007-12.043,2.47-15.9.3-2.5,2.94-8.778,4.841-15.49,2.88,6.03,5.84,14.913,4.066,23.674C70.73,184.482,71.7,180,70.73,184.482a126.908,126.908,0,0,0-2.648,14.84c-1.09,11.288-1.938,22.719-.146,33.894.653,4.076,3.024,27.675,2.875,28.493-.559,3.075-2.376,9.505-3.075,13.139s-.344,9.086-.064,19.009,1.537,17.612,1.957,23.063c.36,4.68-.327,16.643-.529,19.936a6.5,6.5,0,0,1-.328,1.693,32.286,32.286,0,0,1-1.8,4.372,58.54,58.54,0,0,1-5.545,8.579c-1.046,1.046-2.733,3.57-1.151,4.289.555.252.837.013.837.013a1.764,1.764,0,0,0,.654,1.936,1.959,1.959,0,0,0,.915.144,1.755,1.755,0,0,0,2.354,1.412s.4,1.4,1.612,1.465a2.717,2.717,0,0,0,1.173-.144c.344-.137.722-.53,1.134-1.5a1.637,1.637,0,0,0,1.233,1.857c1.544.6,3.374-.1,4.316-2.093s.837-2.354,1.621-4.08.419-6.225.994-8.056,2.249-2.458,2.406-3.975a20.757,20.757,0,0,0-.081-4.291c.036-.009.108-6.841.108-6.841l.2-3.049a114.086,114.086,0,0,1,1.773-14.041c1.487-7.787,3.553-20.689,4.179-28.512.838-10.483,1.817-19.289,2.375-20.967.025-.074.061-.181.1-.315A100.518,100.518,0,0,0,92.5,245.024c.239-2.118.461-4.455.634-6.966.761-11.023.415-17.023,2.387-17.311,1.972.288,1.626,6.288,2.386,17.311.173,2.511.394,4.849.634,6.966a100.459,100.459,0,0,0,4.318,19.725c.043.134.078.241.1.315.559,1.678,1.538,10.484,2.376,20.967.626,7.823,2.692,20.725,4.179,28.512a114.24,114.24,0,0,1,1.773,14.041l.2,3.049s.074,6.832.109,6.841a20.752,20.752,0,0,0-.081,4.291c.157,1.517,1.831,2.144,2.406,3.975s.209,6.329.994,8.056.68,2.093,1.621,4.08,2.772,2.694,4.315,2.093a1.638,1.638,0,0,0,1.233-1.857c.411.974.79,1.367,1.134,1.5a2.714,2.714,0,0,0,1.173.144c1.215-.063,1.612-1.465,1.612-1.465a1.754,1.754,0,0,0,2.354-1.412,1.963,1.963,0,0,0,.916-.144,1.764,1.764,0,0,0,.654-1.936s.282.239.837-.013c1.582-.719-.105-3.243-1.151-4.289a58.536,58.536,0,0,1-5.545-8.579,32.282,32.282,0,0,1-1.8-4.372,6.536,6.536,0,0,1-.327-1.693c-.2-3.294-.889-15.256-.529-19.936.419-5.451,1.677-13.139,1.957-23.063s.634-15.375-.064-19.009-2.516-10.064-3.075-13.139c-.149-.817,2.222-24.417,2.876-28.493,1.792-11.175.944-22.606-.146-33.894a127.065,127.065,0,0,0-2.648-14.84c-.975-4.482,0,0-3.117-15.392-1.774-8.761,1.186-17.643,4.065-23.674,1.9,6.712,4.541,12.986,4.841,15.49.463,3.86-.617,6.949,2.471,15.9,2.4,6.957,6.1,18.38,7.634,23.135l.768,2a2.635,2.635,0,0,1-.018,1.775,5.757,5.757,0,0,1-.836,1.176,15.5,15.5,0,0,0-3.465,7.039,23.592,23.592,0,0,1-2.372,7.466c-.7,1.453.834,3.281,3.124,1.2s2.143-6.394,2.9-6.563,2.184,5.537,2.583,7.508,1,4.268,1.235,5.482.911,3.3,2.27,3.909,1.7-1.358.942-4.463-1.9-8.767-1.9-8.767,1.42,4.519,2.168,7.32.874,6.851,2.939,7.237c1.087.2,1.514-1.078,1.336-2.535-.18-1.473-.693-3.806-.757-4.023-.665-2.255-2.4-8.508-2.4-8.508s1.718,5.094,2.434,7.566c.4,1.381.618,3.35,1.175,4.331a1.2,1.2,0,0,0,2.013.258c.6-.625.323-2.613-.228-4.578-.564-2.011-1.726-5.591-2.187-7.324-.175-.658-.244-1.367-.017-.926.491.952,1.208,3.909,1.693,5.316.614,1.783,1.315,2.893,2.128,2.557.512-.211.862-.569.871-1.509A25.533,25.533,0,0,0,151.352,217.709Z" transform="translate(-38.444 -61.175)" fill="url(#a)"/><path d="M151.352,217.709c-.839-2.755-1.363-5.432-2.291-7.811s-3.015-7.13-3.509-8.795c-.37-1.248-1.148-4.232-1.236-4.559a36.522,36.522,0,0,1-.922-9.389c0-11.272-2.316-21-3.551-23.624s-2.008-4.632-3.448-15.286,1.338-8.9,0-21.771-11.22-15.13-15.646-16.16-13.484-4.761-15.235-6.1c-.862-.66-1-4.017-.917-7.252a21.423,21.423,0,0,0,2.544-7.21c.213.271.656.771,1.057.8.551.042,1.356-1.695,1.61-2.627a14.61,14.61,0,0,0,.212-5.3c-.381-1.186-1.271-.254-1.567.213a1.637,1.637,0,0,1-.568.462c.083-1.569.162-3.137.389-4.694a18.452,18.452,0,0,0-.8-8.984c-2.2-6.246-10.765-6.683-11.955-6.713h0c-1.189.031-9.759.467-11.954,6.713a18.452,18.452,0,0,0-.8,8.984c.227,1.557.306,3.125.39,4.694a1.637,1.637,0,0,1-.568-.462c-.3-.466-1.187-1.4-1.568-.213a14.628,14.628,0,0,0,.212,5.3c.255.932,1.06,2.669,1.61,2.627.4-.032.845-.532,1.058-.8a21.423,21.423,0,0,0,2.543,7.21c.083,3.235-.053,6.592-.917,7.252-1.75,1.338-10.808,5.069-15.234,6.1s-14.308,3.294-15.646,16.16,1.441,11.118,0,21.771-2.213,12.66-3.449,15.286-3.551,12.352-3.551,23.624a36.52,36.52,0,0,1-.922,9.389c-.089.327-.859,3.311-1.229,4.559-.494,1.664-2.58,6.416-3.509,8.795s-1.452,5.056-2.291,7.811a25.532,25.532,0,0,0-1.253,5.182c.01.94.36,1.3.871,1.509.814.336,1.514-.773,2.128-2.557.485-1.407,1.2-4.364,1.692-5.316.227-.441.158.268-.017.926-.46,1.734-1.623,5.313-2.187,7.324-.551,1.965-.828,3.953-.228,4.578a1.2,1.2,0,0,0,2.013-.258c.559-.981.776-2.95,1.176-4.331.715-2.472,2.433-7.566,2.433-7.566s-1.737,6.253-2.4,8.508c-.065.217-.577,2.551-.757,4.023-.178,1.456.248,2.737,1.336,2.535,2.064-.386,2.19-4.436,2.939-7.237s2.167-7.32,2.167-7.32-1.141,5.661-1.9,8.767-.417,5.068.942,4.463,2.04-2.7,2.27-3.909.835-3.51,1.234-5.482,1.825-7.678,2.583-7.508.611,4.481,2.9,6.563,3.819.254,3.125-1.2a23.564,23.564,0,0,1-2.373-7.466A15.509,15.509,0,0,0,54.93,204.9a5.73,5.73,0,0,1-.837-1.176,1.852,1.852,0,0,1-.161-.751c.4-1.49.9-3.026.9-3.026,1.534-4.756,5.235-16.179,7.634-23.135,3.088-8.955,2.007-12.043,2.47-15.9.3-2.5,2.94-8.778,4.841-15.49,2.88,6.03,5.84,14.913,4.066,23.674C70.73,184.482,71.7,180,70.73,184.482a126.908,126.908,0,0,0-2.648,14.84c-1.09,11.288-1.938,22.719-.146,33.894.653,4.076,3.024,27.675,2.875,28.493-.559,3.075-2.376,9.505-3.075,13.139s-.344,9.086-.064,19.009,1.537,17.612,1.957,23.063c.36,4.68-.327,16.643-.529,19.936a6.5,6.5,0,0,1-.328,1.693,32.286,32.286,0,0,1-1.8,4.372,58.54,58.54,0,0,1-5.545,8.579c-1.046,1.046-2.733,3.57-1.151,4.289.555.252.837.013.837.013a1.764,1.764,0,0,0,.654,1.936,1.959,1.959,0,0,0,.915.144,1.755,1.755,0,0,0,2.354,1.412s.4,1.4,1.612,1.465a2.717,2.717,0,0,0,1.173-.144c.344-.137.722-.53,1.134-1.5a1.637,1.637,0,0,0,1.233,1.857c1.544.6,3.374-.1,4.316-2.093s.837-2.354,1.621-4.08.419-6.225.994-8.056,2.249-2.458,2.406-3.975a20.757,20.757,0,0,0-.081-4.291c.036-.009.108-6.841.108-6.841l.2-3.049a114.086,114.086,0,0,1,1.773-14.041c1.487-7.787,3.553-20.689,4.179-28.512.838-10.483,1.817-19.289,2.375-20.967.025-.074.061-.181.1-.315A100.518,100.518,0,0,0,92.5,245.024c.239-2.118.461-4.455.634-6.966.761-11.023.415-17.023,2.387-17.311,1.972.288,1.626,6.288,2.386,17.311.173,2.511.394,4.849.634,6.966a100.459,100.459,0,0,0,4.318,19.725c.043.134.078.241.1.315.559,1.678,1.538,10.484,2.376,20.967.626,7.823,2.692,20.725,4.179,28.512a114.24,114.24,0,0,1,1.773,14.041l.2,3.049s.074,6.832.109,6.841a20.752,20.752,0,0,0-.081,4.291c.157,1.517,1.831,2.144,2.406,3.975s.209,6.329.994,8.056.68,2.093,1.621,4.08,2.772,2.694,4.315,2.093a1.638,1.638,0,0,0,1.233-1.857c.411.974.79,1.367,1.134,1.5a2.714,2.714,0,0,0,1.173.144c1.215-.063,1.612-1.465,1.612-1.465a1.754,1.754,0,0,0,2.354-1.412,1.963,1.963,0,0,0,.916-.144,1.764,1.764,0,0,0,.654-1.936s.282.239.837-.013c1.582-.719-.105-3.243-1.151-4.289a58.536,58.536,0,0,1-5.545-8.579,32.282,32.282,0,0,1-1.8-4.372,6.536,6.536,0,0,1-.327-1.693c-.2-3.294-.889-15.256-.529-19.936.419-5.451,1.677-13.139,1.957-23.063s.634-15.375-.064-19.009-2.516-10.064-3.075-13.139c-.149-.817,2.222-24.417,2.876-28.493,1.792-11.175.944-22.606-.146-33.894a127.065,127.065,0,0,0-2.648-14.84c-.975-4.482,0,0-3.117-15.392-1.774-8.761,1.186-17.643,4.065-23.674,1.9,6.712,4.541,12.986,4.841,15.49.463,3.86-.617,6.949,2.471,15.9,2.4,6.957,6.1,18.38,7.634,23.135l.768,2a2.635,2.635,0,0,1-.018,1.775,5.757,5.757,0,0,1-.836,1.176,15.5,15.5,0,0,0-3.465,7.039,23.592,23.592,0,0,1-2.372,7.466c-.7,1.453.834,3.281,3.124,1.2s2.143-6.394,2.9-6.563,2.184,5.537,2.583,7.508,1,4.268,1.235,5.482.911,3.3,2.27,3.909,1.7-1.358.942-4.463-1.9-8.767-1.9-8.767,1.42,4.519,2.168,7.32.874,6.851,2.939,7.237c1.087.2,1.514-1.078,1.336-2.535-.18-1.473-.693-3.806-.757-4.023-.665-2.255-2.4-8.508-2.4-8.508s1.718,5.094,2.434,7.566c.4,1.381.618,3.35,1.175,4.331a1.2,1.2,0,0,0,2.013.258c.6-.625.323-2.613-.228-4.578-.564-2.011-1.726-5.591-2.187-7.324-.175-.658-.244-1.367-.017-.926.491.952,1.208,3.909,1.693,5.316.614,1.783,1.315,2.893,2.128,2.557.512-.211.862-.569.871-1.509A25.533,25.533,0,0,0,151.352,217.709Z" transform="translate(-38.444 -61.175)" fill="url(#b)"/><path d="M131.512,140.512c-2.314.883-4.9,2.578-7.409,2.617-3.311.053-5.574-1.045-8.42-2.429-5.054-2.457-9.489.687-10.5,1.246-3.667,2.031-7.021.681-10.468-1.21-2.042-1.121-5.614-3.22-8.049-2.24-1.81.729-3.527,1.848-5.438,2.327-4.955,1.241-8.53-.556-13.313-1.349-3.922-.651-6.677.69-9.586,2.19a40.757,40.757,0,0,0,.153,11.267H140.07a39.372,39.372,0,0,0,.242-10.258C137.425,141.182,135.091,139.147,131.512,140.512Z" transform="translate(-42.199 -75.619)" fill="#bee7fb"/><path d="M111.962,61.854a19.573,19.573,0,0,0-12.892,0c-9.065,2.931-8.13,6.917-7.971,10.9a45.67,45.67,0,0,0,1.234,8.929c.038.154.038.311.07.465a12.5,12.5,0,0,1,1.073,4.879c.518.078,1.29-.8,1.234-1.419-.091-1-.325-2.322-.515-4.788-.079-1.031.171-2.94.259-4.934.234-5.314,1.174-5.321,4.852-6.21a7.056,7.056,0,0,1,5.022.445,2.207,2.207,0,0,0,2.378,0,7.056,7.056,0,0,1,5.022-.445c3.678.889,4.618.9,4.852,6.21.088,1.993.338,3.9.259,4.934-.19,2.466-.424,3.785-.515,4.788-.057.62.715,1.5,1.234,1.419a12.516,12.516,0,0,1,1.072-4.879c.032-.154.032-.311.07-.465a45.669,45.669,0,0,0,1.234-8.929C120.093,68.771,121.028,64.785,111.962,61.854Z" transform="translate(-48.52 -60.762)" fill="#282f39"/><g transform="translate(0.289 156.727)"><path d="M64.2,257.626a1.847,1.847,0,0,1,.4-2.956.935.935,0,0,1,.445.428,8.259,8.259,0,0,1,.683,1.5A1.261,1.261,0,0,1,64.2,257.626Z" transform="translate(-43.557 -254.67)" fill="#f7e0d8"/><path d="M49.677,268.944s.311-2.093,1.358-1.918c1.279.213.832,1.662.506,2.211S49.877,269.823,49.677,268.944Z" transform="translate(-40.886 -257.037)" fill="#f7e0d8"/><path d="M44.54,270.519s.328-2.2,1.381-2.069c1.172.146.843,1.755.586,2.339S44.846,271.368,44.54,270.519Z" transform="translate(-39.901 -257.311)" fill="#f7e0d8"/><path d="M41.122,267.627s.3-2.045,1.284-1.923c1.089.137.783,1.63.544,2.174S41.406,268.415,41.122,267.627Z" transform="translate(-39.246 -256.785)" fill="#f7e0d8"/><path d="M38.8,261.168s.255-1.705,1.07-1.6c.908.113.653,1.359.454,1.812S39.037,261.826,38.8,261.168Z" transform="translate(-38.801 -255.608)" fill="#f7e0d8"/></g><g transform="translate(91.744 156.727)"><path d="M153.482,257.626a1.847,1.847,0,0,0-.4-2.956.936.936,0,0,0-.445.428,8.26,8.26,0,0,0-.683,1.5A1.261,1.261,0,0,0,153.482,257.626Z" transform="translate(-151.953 -254.67)" fill="#f7e0d8"/><path d="M167.983,268.944s-.311-2.093-1.358-1.918c-1.279.213-.832,1.662-.507,2.211S167.783,269.823,167.983,268.944Z" transform="translate(-154.603 -257.037)" fill="#f7e0d8"/><path d="M173.119,270.519s-.327-2.2-1.38-2.069c-1.172.146-.843,1.755-.587,2.339S172.814,271.368,173.119,270.519Z" transform="translate(-155.587 -257.311)" fill="#f7e0d8"/><path d="M176.575,267.627s-.3-2.045-1.284-1.923c-1.089.137-.783,1.63-.544,2.174S176.291,268.415,176.575,267.627Z" transform="translate(-156.28 -256.785)" fill="#f7e0d8"/><path d="M178.977,261.168s-.255-1.705-1.071-1.6c-.908.113-.653,1.359-.453,1.812S178.74,261.826,178.977,261.168Z" transform="translate(-156.806 -255.608)" fill="#f7e0d8"/></g><g transform="translate(21.474 293.18)"><path d="M76.732,429.2a2.764,2.764,0,0,0,3.06.586s.242-.933-1.115-1.2C76.953,428.246,76.732,429.2,76.732,429.2Z" transform="translate(-67.259 -424.457)" fill="#f7e0d8"/><path d="M72.184,429.3a1.32,1.32,0,0,0,2.078.51s.441-.812-.88-1.118C72.282,428.435,72.184,429.3,72.184,429.3Z" transform="translate(-66.387 -424.482)" fill="#f7e0d8"/><path d="M68.988,427.794a1.09,1.09,0,0,0,1.716.422s.365-.672-.727-.924C69.069,427.081,68.988,427.794,68.988,427.794Z" transform="translate(-65.774 -424.215)" fill="#f7e0d8"/><path d="M66.749,425.961a.981.981,0,0,0,1.486.564s.4-.558-.548-.9C66.9,425.334,66.749,425.961,66.749,425.961Z" transform="translate(-65.345 -423.888)" fill="#f7e0d8"/><path d="M65.012,423.776s.441.872,1.195.479c0,0,.129-.424-.44-.7A.592.592,0,0,0,65.012,423.776Z" transform="translate(-65.012 -423.495)" fill="#f7e0d8"/></g><g transform="translate(80.132 293.18)"><path d="M140.663,429.2a2.763,2.763,0,0,1-3.06.585s-.243-.932,1.115-1.2C140.442,428.246,140.663,429.2,140.663,429.2Z" transform="translate(-137.586 -424.457)" fill="#f7e0d8"/><path d="M145.43,429.3a1.319,1.319,0,0,1-2.077.509s-.441-.811.88-1.118C145.333,428.435,145.43,429.3,145.43,429.3Z" transform="translate(-138.678 -424.482)" fill="#f7e0d8"/><path d="M148.716,427.794a1.091,1.091,0,0,1-1.717.422s-.365-.672.727-.924C148.635,427.081,148.716,427.794,148.716,427.794Z" transform="translate(-139.38 -424.215)" fill="#f7e0d8"/><path d="M151,425.961a.98.98,0,0,1-1.486.564s-.4-.558.547-.9C150.852,425.334,151,425.961,151,425.961Z" transform="translate(-139.858 -423.888)" fill="#f7e0d8"/><path d="M152.827,423.776s-.442.872-1.195.479c0,0-.129-.424.439-.7A.593.593,0,0,1,152.827,423.776Z" transform="translate(-140.277 -423.495)" fill="#f7e0d8"/></g><g transform="translate(37.631 80.571)"><path d="M87.676,160.959c1.268.569,2.139,1.38,1.946,1.811s-1.379.32-2.647-.248-2.139-1.38-1.945-1.811S86.408,160.391,87.676,160.959Z" transform="translate(-85.003 -160.448)" fill="#dc9c90"/></g><g transform="translate(71.991 80.571)"><path d="M129.486,160.959c-1.268.569-2.139,1.38-1.945,1.811s1.378.32,2.646-.248,2.139-1.38,1.945-1.811S130.754,160.391,129.486,160.959Z" transform="translate(-127.514 -160.448)" fill="#dc9c90"/></g><path d="M149.061,224.981c-.929-2.379-3.015-7.13-3.509-8.795-.37-1.248-1.148-4.232-1.236-4.559a36.523,36.523,0,0,1-.922-9.389c0-11.272-2.316-21-3.551-23.624s-2.008-4.632-3.448-15.286c-1.32-9.754.894-9.128.251-18.825a13.3,13.3,0,0,0-3.421-1.38c-4.566-.415-6.43,3.422-11.041,2.648-5.449-.915-10.054-3.9-15.6-1.993a19.162,19.162,0,0,1-12.332.525c-2.879-.885-5.706-2.228-8.8-1.545-2.427.536-4.822,1.167-7.251,1.7-7.021,1.549-9.248-1.6-13.628-2.537-3.846-.826-6.587-.051-10.059,1.01-1,11.372,1.518,10.14.131,20.4-1.441,10.654-2.213,12.66-3.449,15.286s-3.551,12.352-3.551,23.624a36.52,36.52,0,0,1-.922,9.389c-.089.327-.859,3.311-1.229,4.559-.494,1.664-2.58,6.416-3.509,8.795s-1.452,5.056-2.291,7.811a25.534,25.534,0,0,0-1.253,5.182c.01.94.36,1.3.871,1.509.814.336,1.514-.773,2.128-2.556.485-1.407,1.2-4.364,1.692-5.316.227-.44.158.268-.017.925-.46,1.735-1.623,5.314-2.187,7.325-.551,1.965-.828,3.953-.228,4.578a1.2,1.2,0,0,0,2.013-.258c.559-.981.776-2.95,1.176-4.332.715-2.472,2.433-7.565,2.433-7.565s-1.737,6.253-2.4,8.508c-.065.217-.577,2.551-.757,4.023-.178,1.456.248,2.738,1.336,2.535,2.064-.386,2.19-4.436,2.939-7.237s2.167-7.32,2.167-7.32-1.141,5.661-1.9,8.767-.417,5.068.942,4.463,2.04-2.7,2.27-3.91.835-3.51,1.234-5.482,1.825-7.678,2.583-7.509.611,4.482,2.9,6.564c2.067,1.879,3.509.573,3.26-.769v-.006a.356.356,0,0,0-.025-.115,1.751,1.751,0,0,0-.111-.309,23.587,23.587,0,0,1-2.373-7.466,15.509,15.509,0,0,0-3.464-7.039,5.734,5.734,0,0,1-.837-1.176,1.852,1.852,0,0,1-.161-.751c.4-1.49.9-3.026.9-3.026,1.534-4.756,5.235-16.179,7.634-23.135,3.088-8.955,2.007-12.043,2.47-15.9.3-2.5,2.94-8.778,4.841-15.49,2.88,6.03,5.84,14.913,4.066,23.674-3.117,15.392-2.143,10.91-3.117,15.392a126.909,126.909,0,0,0-2.648,14.84c-1.09,11.288-1.938,22.719-.146,33.894.653,4.076,3.024,27.675,2.875,28.492-.559,3.075-2.375,9.505-3.075,13.139s-.344,9.086-.064,19.009S69.21,326.552,69.63,332c.36,4.68-.327,16.643-.529,19.936a6.5,6.5,0,0,1-.328,1.693,32.179,32.179,0,0,1-1.8,4.372,58.535,58.535,0,0,1-5.545,8.579c-1.046,1.046-2.733,3.57-1.151,4.289.555.252.837.013.837.013a1.764,1.764,0,0,0,.654,1.936,1.959,1.959,0,0,0,.915.144,1.755,1.755,0,0,0,2.354,1.412s.4,1.4,1.612,1.464a2.716,2.716,0,0,0,1.173-.144c.344-.137.722-.53,1.134-1.5a1.637,1.637,0,0,0,1.233,1.857c1.543.6,3.374-.1,4.315-2.093s.837-2.354,1.621-4.08.419-6.225.994-8.056,2.249-2.458,2.406-3.975a20.871,20.871,0,0,0-.081-4.291c.036-.009.108-6.841.108-6.841l.2-3.049a114.085,114.085,0,0,1,1.773-14.041c1.487-7.787,3.553-20.689,4.179-28.512.838-10.483,1.816-19.289,2.375-20.967.025-.074.061-.181.1-.315A100.517,100.517,0,0,0,92.5,260.107c.239-2.118.461-4.455.634-6.966.761-11.023.415-17.023,2.387-17.311,1.972.288,1.626,6.288,2.386,17.311.174,2.511.394,4.849.634,6.966a100.459,100.459,0,0,0,4.318,19.725c.043.134.078.241.1.315.559,1.678,1.538,10.484,2.376,20.967.626,7.823,2.692,20.725,4.179,28.512a114.239,114.239,0,0,1,1.773,14.041l.2,3.049s.074,6.832.109,6.841a20.751,20.751,0,0,0-.081,4.291c.157,1.517,1.831,2.144,2.406,3.975s.209,6.329.994,8.056.68,2.092,1.621,4.08,2.772,2.694,4.315,2.093a1.638,1.638,0,0,0,1.233-1.857c.411.974.79,1.367,1.134,1.5a2.713,2.713,0,0,0,1.173.144c1.215-.063,1.612-1.464,1.612-1.464a1.754,1.754,0,0,0,2.354-1.412,1.962,1.962,0,0,0,.916-.144,1.764,1.764,0,0,0,.654-1.936s.282.239.837-.013c1.582-.719-.105-3.244-1.151-4.289A58.531,58.531,0,0,1,124.07,358a32.28,32.28,0,0,1-1.8-4.372,6.535,6.535,0,0,1-.327-1.693c-.2-3.294-.889-15.256-.529-19.936.419-5.451,1.677-13.139,1.957-23.063s.634-15.375-.064-19.009-2.516-10.064-3.075-13.139c-.149-.817,2.222-24.417,2.876-28.492,1.792-11.175.944-22.606-.146-33.894a127.235,127.235,0,0,0-2.648-14.84c-.975-4.482,0,0-3.117-15.392-1.774-8.761,1.185-17.643,4.065-23.674,1.9,6.712,4.541,12.986,4.841,15.49.463,3.86-.617,6.949,2.471,15.9,2.4,6.957,6.1,18.38,7.634,23.135l.768,2a2.635,2.635,0,0,1-.018,1.775,5.761,5.761,0,0,1-.836,1.176,15.5,15.5,0,0,0-3.465,7.039,23.593,23.593,0,0,1-2.372,7.466c-.7,1.453.834,3.281,3.124,1.2s2.143-6.394,2.9-6.564,2.184,5.537,2.583,7.509,1,4.268,1.235,5.482.911,3.3,2.27,3.91,1.7-1.358.942-4.463-1.9-8.767-1.9-8.767,1.42,4.519,2.168,7.32.874,6.851,2.939,7.237c1.087.2,1.514-1.079,1.336-2.535-.18-1.473-.693-3.806-.757-4.023-.665-2.255-2.4-8.508-2.4-8.508s1.718,5.094,2.434,7.565c.4,1.382.618,3.351,1.175,4.332a1.2,1.2,0,0,0,2.013.258c.6-.625.323-2.613-.228-4.578-.564-2.011-1.726-5.591-2.187-7.325-.175-.657-.244-1.366-.017-.925.491.952,1.208,3.909,1.693,5.316.614,1.783,1.315,2.893,2.128,2.556.512-.211.862-.569.871-1.509a25.482,25.482,0,0,0-1.253-5.182C150.513,230.036,149.989,227.359,149.061,224.981Z" transform="translate(-38.444 -76.258)" fill="url(#c)"/><g transform="translate(6.14 69.211)" opacity="0.55"><g transform="translate(35.479 69.535)"><path d="M95.7,235.305a2.882,2.882,0,1,1-2.882-2.881A2.882,2.882,0,0,1,95.7,235.305Z" transform="translate(-89.936 -232.424)" fill="url(#d)"/><path d="M93.039,234.036a2.733,2.733,0,0,1,1.592.508.225.225,0,0,0,.323-.3,2.258,2.258,0,0,0-3.832,0,.225.225,0,0,0,.323.3A2.736,2.736,0,0,1,93.039,234.036Z" transform="translate(-90.157 -232.57)" fill="#fffffd"/><path d="M92.925,237.456a3.093,3.093,0,0,1-2.02-.766c-.221-.189-.514.09-.377.363a2.606,2.606,0,0,0,4.792,0c.138-.273-.154-.552-.377-.363A3.089,3.089,0,0,1,92.925,237.456Z" transform="translate(-90.043 -233.23)" fill="#fffffd"/></g><g transform="translate(30.089 139.508)"><circle cx="2.882" cy="2.882" r="2.882" fill="url(#e)"/><path d="M86.37,320.61a2.734,2.734,0,0,1,1.592.509.225.225,0,0,0,.323-.3,2.257,2.257,0,0,0-3.832,0,.225.225,0,0,0,.323.3A2.739,2.739,0,0,1,86.37,320.61Z" transform="translate(-83.488 -319.144)" fill="#fffffd"/><path d="M86.256,324.031a3.093,3.093,0,0,1-2.019-.766c-.222-.19-.515.09-.377.363a2.607,2.607,0,0,0,4.792,0c.138-.273-.154-.553-.377-.363A3.093,3.093,0,0,1,86.256,324.031Z" transform="translate(-83.374 -319.804)" fill="#fffffd"/></g><g transform="translate(31.092 175.608)"><path d="M88.806,365.81a2.149,2.149,0,1,1-2.149-2.149A2.15,2.15,0,0,1,88.806,365.81Z" transform="translate(-84.508 -363.661)" fill="url(#f)"/><path d="M86.822,364.863a2.041,2.041,0,0,1,1.187.379.168.168,0,0,0,.242-.221,1.683,1.683,0,0,0-2.857,0,.167.167,0,0,0,.241.221A2.041,2.041,0,0,1,86.822,364.863Z" transform="translate(-84.673 -363.77)" fill="#fffffd"/><path d="M86.737,367.414a2.308,2.308,0,0,1-1.506-.571c-.165-.142-.383.067-.28.271a1.943,1.943,0,0,0,3.572,0c.1-.2-.116-.412-.28-.271A2.308,2.308,0,0,1,86.737,367.414Z" transform="translate(-84.588 -364.262)" fill="#fffffd"/></g><g transform="translate(13.373 33.87)"><path d="M67.178,190.6a2.3,2.3,0,1,1-2.3-2.3A2.3,2.3,0,0,1,67.178,190.6Z" transform="translate(-62.585 -188.298)" fill="url(#g)"/><path d="M65.057,189.583a2.186,2.186,0,0,1,1.27.406.179.179,0,0,0,.258-.237,1.8,1.8,0,0,0-3.054,0,.179.179,0,0,0,.258.237A2.184,2.184,0,0,1,65.057,189.583Z" transform="translate(-62.761 -188.414)" fill="#fffffd"/><path d="M64.966,192.31a2.466,2.466,0,0,1-1.609-.611c-.176-.151-.41.071-.3.289a2.077,2.077,0,0,0,3.819,0c.11-.218-.124-.441-.3-.289A2.466,2.466,0,0,1,64.966,192.31Z" transform="translate(-62.67 -188.941)" fill="#fffffd"/></g><g transform="translate(82.722 1.625)"><path d="M154.152,151.285a2.882,2.882,0,1,1-2.882-2.882A2.882,2.882,0,0,1,154.152,151.285Z" transform="translate(-148.387 -148.403)" fill="url(#f)"/><path d="M151.49,150.015a2.739,2.739,0,0,1,1.593.509.225.225,0,0,0,.323-.3,2.257,2.257,0,0,0-3.832,0,.225.225,0,0,0,.323.3A2.734,2.734,0,0,1,151.49,150.015Z" transform="translate(-148.608 -148.549)" fill="#fffffd"/><path d="M151.376,153.436a3.093,3.093,0,0,1-2.019-.766c-.222-.19-.515.09-.377.363a2.607,2.607,0,0,0,4.792,0c.137-.273-.155-.553-.377-.363A3.093,3.093,0,0,1,151.376,153.436Z" transform="translate(-148.494 -149.209)" fill="#fffffd"/></g><g transform="translate(17.359 5.85)"><circle cx="2.882" cy="2.882" r="2.882" fill="url(#i)"/><path d="M70.62,155.242a2.735,2.735,0,0,1,1.592.509.225.225,0,0,0,.323-.3,2.258,2.258,0,0,0-3.832,0,.225.225,0,0,0,.323.3A2.735,2.735,0,0,1,70.62,155.242Z" transform="translate(-67.738 -153.776)" fill="#fffffd"/><path d="M70.506,158.663a3.1,3.1,0,0,1-2.02-.766c-.221-.19-.514.09-.377.363a2.607,2.607,0,0,0,4.792,0c.137-.273-.155-.553-.377-.363A3.1,3.1,0,0,1,70.506,158.663Z" transform="translate(-67.624 -154.437)" fill="#fffffd"/></g><g transform="translate(65.292 119.285)"><path d="M132.586,296.859a2.882,2.882,0,1,1-2.881-2.882A2.882,2.882,0,0,1,132.586,296.859Z" transform="translate(-126.822 -293.977)" fill="url(#j)"/><path d="M129.925,295.589a2.735,2.735,0,0,1,1.592.509.225.225,0,0,0,.323-.3,2.257,2.257,0,0,0-3.832,0,.225.225,0,0,0,.323.3A2.735,2.735,0,0,1,129.925,295.589Z" transform="translate(-127.043 -294.123)" fill="#fffffd"/><path d="M129.81,299.01a3.092,3.092,0,0,1-2.019-.767c-.221-.189-.514.091-.377.364a2.607,2.607,0,0,0,4.792,0c.137-.273-.155-.553-.377-.364A3.092,3.092,0,0,1,129.81,299.01Z" transform="translate(-126.929 -294.783)" fill="#fffffd"/></g><g transform="translate(66.56 164.572)"><path d="M134.155,352.889a2.882,2.882,0,1,1-2.881-2.882A2.881,2.881,0,0,1,134.155,352.889Z" transform="translate(-128.391 -350.007)" fill="url(#k)"/><path d="M131.494,351.62a2.734,2.734,0,0,1,1.592.508.225.225,0,0,0,.323-.3,2.258,2.258,0,0,0-3.832,0,.225.225,0,0,0,.323.3A2.734,2.734,0,0,1,131.494,351.62Z" transform="translate(-128.612 -350.153)" fill="#fffffd"/><path d="M131.38,355.04a3.1,3.1,0,0,1-2.02-.766c-.221-.189-.514.09-.377.363a2.607,2.607,0,0,0,4.792,0c.138-.273-.155-.552-.377-.363A3.094,3.094,0,0,1,131.38,355.04Z" transform="translate(-128.498 -350.813)" fill="#fffffd"/></g><g transform="translate(67.431 71.601)"><path d="M135.232,237.862a2.882,2.882,0,1,1-2.882-2.882A2.883,2.883,0,0,1,135.232,237.862Z" transform="translate(-129.468 -234.98)" fill="url(#f)"/><path d="M132.571,236.592a2.734,2.734,0,0,1,1.592.509.225.225,0,0,0,.323-.3,2.258,2.258,0,0,0-3.831,0,.225.225,0,0,0,.323.3A2.734,2.734,0,0,1,132.571,236.592Z" transform="translate(-129.689 -235.126)" fill="#fffffd"/><path d="M132.457,240.014a3.093,3.093,0,0,1-2.019-.766c-.222-.189-.515.09-.377.363a2.607,2.607,0,0,0,4.792,0c.137-.273-.155-.552-.377-.363A3.093,3.093,0,0,1,132.457,240.014Z" transform="translate(-129.575 -235.786)" fill="#fffffd"/></g><g transform="translate(38.453 97.036)"><path d="M97.516,268.4a1.95,1.95,0,1,1-1.95-1.95A1.95,1.95,0,0,1,97.516,268.4Z" transform="translate(-93.615 -266.449)" fill="url(#m)"/><path d="M95.715,267.54a1.85,1.85,0,0,1,1.077.344.152.152,0,0,0,.219-.2,1.528,1.528,0,0,0-2.593,0,.152.152,0,0,0,.218.2A1.852,1.852,0,0,1,95.715,267.54Z" transform="translate(-93.765 -266.548)" fill="#fffffd"/><path d="M95.638,269.855a2.094,2.094,0,0,1-1.367-.518c-.15-.129-.348.061-.255.245a1.763,1.763,0,0,0,3.243,0c.093-.184-.105-.373-.255-.245A2.1,2.1,0,0,1,95.638,269.855Z" transform="translate(-93.687 -266.995)" fill="#fffffd"/></g><g transform="translate(64.408 131.963)"><path d="M129.629,311.613a1.95,1.95,0,1,1-1.95-1.95A1.95,1.95,0,0,1,129.629,311.613Z" transform="translate(-125.728 -309.663)" fill="url(#n)"/><path d="M127.828,310.754a1.85,1.85,0,0,1,1.077.344.152.152,0,0,0,.219-.2,1.527,1.527,0,0,0-2.593,0,.152.152,0,0,0,.219.2A1.848,1.848,0,0,1,127.828,310.754Z" transform="translate(-125.878 -309.762)" fill="#fffffd"/><path d="M127.751,313.069a2.091,2.091,0,0,1-1.367-.519c-.15-.128-.348.061-.255.246a1.764,1.764,0,0,0,3.243,0c.093-.184-.105-.373-.255-.246A2.092,2.092,0,0,1,127.751,313.069Z" transform="translate(-125.8 -310.209)" fill="#fffffd"/></g><g transform="translate(99.224 76.615)"><circle cx="1.334" cy="1.334" r="1.334" fill="url(#f)"/><path d="M170.239,241.93a1.264,1.264,0,0,1,.737.236.1.1,0,0,0,.149-.138,1.046,1.046,0,0,0-1.773,0,.1.1,0,0,0,.15.138A1.264,1.264,0,0,1,170.239,241.93Z" transform="translate(-168.905 -241.251)" fill="#fffffd"/><path d="M170.186,243.513a1.431,1.431,0,0,1-.934-.355c-.1-.088-.238.041-.175.168a1.206,1.206,0,0,0,2.218,0c.064-.127-.072-.256-.175-.168A1.431,1.431,0,0,1,170.186,243.513Z" transform="translate(-168.852 -241.557)" fill="#fffffd"/></g><g transform="translate(31.637 106.069)"><path d="M87.85,278.96a1.334,1.334,0,1,1-1.334-1.334A1.334,1.334,0,0,1,87.85,278.96Z" transform="translate(-85.183 -277.626)" fill="url(#p)"/><path d="M86.619,278.372a1.27,1.27,0,0,1,.737.236.1.1,0,0,0,.15-.138,1.046,1.046,0,0,0-1.773,0,.1.1,0,0,0,.15.138A1.27,1.27,0,0,1,86.619,278.372Z" transform="translate(-85.285 -277.694)" fill="#fffffd"/><path d="M86.566,279.955a1.431,1.431,0,0,1-.934-.355c-.1-.087-.238.042-.175.168a1.206,1.206,0,0,0,2.218,0c.063-.126-.072-.256-.175-.168A1.433,1.433,0,0,1,86.566,279.955Z" transform="translate(-85.232 -277.999)" fill="#fffffd"/></g><g transform="translate(90.729 46.263)"><circle cx="2.053" cy="2.053" r="2.053" fill="url(#f)"/><path d="M160.5,204.779a1.946,1.946,0,0,1,1.134.363.16.16,0,0,0,.23-.212,1.608,1.608,0,0,0-2.729,0,.16.16,0,0,0,.23.212A1.947,1.947,0,0,1,160.5,204.779Z" transform="translate(-158.451 -203.735)" fill="#fffffd"/><path d="M160.422,207.216a2.2,2.2,0,0,1-1.438-.546c-.158-.135-.367.064-.268.259a1.856,1.856,0,0,0,3.412,0c.1-.195-.11-.394-.268-.259A2.2,2.2,0,0,1,160.422,207.216Z" transform="translate(-158.37 -204.206)" fill="#fffffd"/></g><g transform="translate(53.697 64.487)"><path d="M116.582,228.231a2.053,2.053,0,1,1-2.053-2.053A2.053,2.053,0,0,1,116.582,228.231Z" transform="translate(-112.476 -226.178)" fill="url(#r)"/><path d="M114.686,227.326a1.947,1.947,0,0,1,1.134.363.16.16,0,0,0,.23-.212,1.608,1.608,0,0,0-2.729,0,.16.16,0,0,0,.23.212A1.947,1.947,0,0,1,114.686,227.326Z" transform="translate(-112.634 -226.282)" fill="#fffffd"/><path d="M114.605,229.763a2.2,2.2,0,0,1-1.438-.546c-.158-.135-.367.064-.268.259a1.856,1.856,0,0,0,3.412,0c.1-.195-.11-.394-.268-.259A2.2,2.2,0,0,1,114.605,229.763Z" transform="translate(-112.552 -226.752)" fill="#fffffd"/></g><g transform="translate(40.67 44.746)"><circle cx="2.053" cy="2.053" r="2.053" fill="url(#s)"/><path d="M98.569,202.9a1.954,1.954,0,0,1,1.134.362.16.16,0,0,0,.23-.211,1.608,1.608,0,0,0-2.729,0,.16.16,0,0,0,.23.211A1.955,1.955,0,0,1,98.569,202.9Z" transform="translate(-96.516 -201.858)" fill="#fffffd"/><path d="M98.488,205.339a2.207,2.207,0,0,1-1.439-.546c-.158-.135-.366.064-.268.258a1.856,1.856,0,0,0,3.413,0c.1-.194-.111-.393-.268-.258A2.2,2.2,0,0,1,98.488,205.339Z" transform="translate(-96.435 -202.328)" fill="#fffffd"/></g><g transform="translate(60.89 43.357)"><circle cx="2.053" cy="2.053" r="2.053" fill="url(#s)"/><path d="M123.584,201.184a1.948,1.948,0,0,1,1.135.362.16.16,0,0,0,.23-.212,1.608,1.608,0,0,0-2.729,0,.16.16,0,0,0,.23.212A1.948,1.948,0,0,1,123.584,201.184Z" transform="translate(-121.532 -200.139)" fill="#fffffd"/><path d="M123.5,203.621a2.205,2.205,0,0,1-1.438-.546c-.158-.135-.366.064-.268.259a1.857,1.857,0,0,0,3.413,0c.1-.195-.111-.394-.268-.259A2.208,2.208,0,0,1,123.5,203.621Z" transform="translate(-121.451 -200.61)" fill="#fffffd"/></g><g transform="translate(72.366 3.889)"><path d="M139.679,153.257a2.053,2.053,0,1,1-2.053-2.053A2.053,2.053,0,0,1,139.679,153.257Z" transform="translate(-135.574 -151.204)" fill="url(#u)"/><path d="M137.783,152.352a1.951,1.951,0,0,1,1.135.363.16.16,0,0,0,.229-.212,1.608,1.608,0,0,0-2.729,0,.16.16,0,0,0,.23.212A1.948,1.948,0,0,1,137.783,152.352Z" transform="translate(-135.731 -151.308)" fill="#fffffd"/><path d="M137.7,154.789a2.2,2.2,0,0,1-1.438-.546c-.158-.134-.366.065-.268.259a1.857,1.857,0,0,0,3.413,0c.1-.195-.111-.394-.268-.259A2.2,2.2,0,0,1,137.7,154.789Z" transform="translate(-135.65 -151.778)" fill="#fffffd"/></g><g transform="translate(50.49 22.271)"><path d="M112.613,176a2.053,2.053,0,1,1-2.052-2.052A2.053,2.053,0,0,1,112.613,176Z" transform="translate(-108.508 -173.948)" fill="url(#v)"/><path d="M110.718,175.1a1.948,1.948,0,0,1,1.134.362.16.16,0,0,0,.23-.212,1.608,1.608,0,0,0-2.729,0,.16.16,0,0,0,.23.212A1.951,1.951,0,0,1,110.718,175.1Z" transform="translate(-108.665 -174.052)" fill="#fffffd"/><path d="M110.637,177.532a2.2,2.2,0,0,1-1.439-.546c-.158-.135-.366.064-.268.259a1.857,1.857,0,0,0,3.413,0c.1-.195-.111-.394-.268-.259A2.2,2.2,0,0,1,110.637,177.532Z" transform="translate(-108.584 -174.522)" fill="#fffffd"/></g><g transform="translate(12.146 16.866)"><circle cx="2.053" cy="2.053" r="2.053" fill="url(#s)"/><path d="M63.277,168.408a1.941,1.941,0,0,1,1.134.363.16.16,0,0,0,.23-.212,1.608,1.608,0,0,0-2.729,0,.16.16,0,0,0,.23.212A1.945,1.945,0,0,1,63.277,168.408Z" transform="translate(-61.225 -167.364)" fill="#fffffd"/><path d="M63.2,170.845a2.2,2.2,0,0,1-1.438-.546c-.158-.135-.367.065-.269.259a1.856,1.856,0,0,0,3.413,0c.1-.194-.11-.394-.268-.259A2.2,2.2,0,0,1,63.2,170.845Z" transform="translate(-61.143 -167.834)" fill="#fffffd"/></g><g transform="translate(52.034 50.662)"><circle cx="1.574" cy="1.574" r="1.574" fill="url(#x)"/><path d="M112.113,209.955a1.493,1.493,0,0,1,.87.278.123.123,0,0,0,.177-.162,1.233,1.233,0,0,0-2.093,0,.123.123,0,0,0,.177.162A1.5,1.5,0,0,1,112.113,209.955Z" transform="translate(-110.539 -209.154)" fill="#fffffd"/><path d="M112.051,211.824a1.689,1.689,0,0,1-1.1-.419c-.121-.1-.28.049-.205.2a1.424,1.424,0,0,0,2.618,0c.075-.149-.085-.3-.206-.2A1.689,1.689,0,0,1,112.051,211.824Z" transform="translate(-110.477 -209.514)" fill="#fffffd"/></g><g transform="translate(69.675 61.487)"><circle cx="1.574" cy="1.574" r="1.574" fill="url(#f)"/><path d="M133.939,223.348a1.5,1.5,0,0,1,.871.278.123.123,0,0,0,.176-.162,1.234,1.234,0,0,0-2.093,0,.123.123,0,0,0,.177.162A1.5,1.5,0,0,1,133.939,223.348Z" transform="translate(-132.365 -222.547)" fill="#fffffd"/><path d="M133.877,225.217a1.686,1.686,0,0,1-1.1-.419c-.121-.1-.281.049-.206.2a1.424,1.424,0,0,0,2.618,0c.075-.15-.085-.3-.206-.2A1.69,1.69,0,0,1,133.877,225.217Z" transform="translate(-132.303 -222.908)" fill="#fffffd"/></g><g transform="translate(8.47 44.545)"><circle cx="1.574" cy="1.574" r="1.574" fill="url(#z)"/><path d="M58.215,202.386a1.5,1.5,0,0,1,.87.278.123.123,0,0,0,.177-.162,1.233,1.233,0,0,0-2.093,0,.123.123,0,0,0,.177.162A1.493,1.493,0,0,1,58.215,202.386Z" transform="translate(-56.641 -201.585)" fill="#fffffd"/><path d="M58.153,204.255a1.689,1.689,0,0,1-1.1-.419c-.121-.1-.28.049-.205.2a1.423,1.423,0,0,0,2.617,0c.076-.149-.084-.3-.205-.2A1.689,1.689,0,0,1,58.153,204.255Z" transform="translate(-56.578 -201.945)" fill="#fffffd"/></g><g transform="translate(3.142 66.594)"><path d="M53.077,230.359a1.574,1.574,0,1,1-1.574-1.574A1.574,1.574,0,0,1,53.077,230.359Z" transform="translate(-49.928 -228.785)" fill="url(#aa)"/><path d="M51.624,229.666a1.5,1.5,0,0,1,.87.278.123.123,0,0,0,.176-.162,1.232,1.232,0,0,0-2.093,0,.123.123,0,0,0,.176.162A1.5,1.5,0,0,1,51.624,229.666Z" transform="translate(-50.049 -228.865)" fill="#fffffd"/><path d="M51.561,231.535a1.689,1.689,0,0,1-1.1-.419c-.121-.1-.281.049-.206.2a1.424,1.424,0,0,0,2.618,0c.075-.149-.085-.3-.206-.2A1.689,1.689,0,0,1,51.561,231.535Z" transform="translate(-49.986 -229.225)" fill="#fffffd"/></g><g transform="translate(85.988 20.14)"><path d="M154.559,172.376a1.066,1.066,0,1,1-1.066-1.065A1.066,1.066,0,0,1,154.559,172.376Z" transform="translate(-152.428 -171.311)" fill="url(#ab)"/><path d="M153.575,171.907a1.009,1.009,0,0,1,.589.188.083.083,0,0,0,.12-.11.834.834,0,0,0-1.417,0,.083.083,0,0,0,.12.11A1.009,1.009,0,0,1,153.575,171.907Z" transform="translate(-152.51 -171.365)" fill="#fffffd"/><path d="M153.533,173.172a1.142,1.142,0,0,1-.746-.284c-.082-.07-.19.033-.14.134a.964.964,0,0,0,1.772,0c.051-.1-.057-.2-.139-.134A1.142,1.142,0,0,1,153.533,173.172Z" transform="translate(-152.468 -171.609)" fill="#fffffd"/></g><g transform="translate(62.489 0.78)"><path d="M125.485,148.423a1.065,1.065,0,1,1-1.065-1.065A1.065,1.065,0,0,1,125.485,148.423Z" transform="translate(-123.354 -147.358)" fill="url(#ac)"/><path d="M124.5,147.953a1.011,1.011,0,0,1,.588.188.083.083,0,0,0,.12-.11.835.835,0,0,0-1.416,0,.083.083,0,0,0,.12.11A1.011,1.011,0,0,1,124.5,147.953Z" transform="translate(-123.436 -147.412)" fill="#fffffd"/><path d="M124.459,149.218a1.145,1.145,0,0,1-.747-.284c-.082-.069-.19.033-.139.134a.964.964,0,0,0,1.772,0c.051-.1-.057-.2-.139-.134A1.145,1.145,0,0,1,124.459,149.218Z" transform="translate(-123.393 -147.656)" fill="#fffffd"/></g><g transform="translate(15.255 26.275)"><circle cx="1.065" cy="1.065" r="1.065" fill="url(#f)"/><path d="M66.061,179.5a1.007,1.007,0,0,1,.588.188.083.083,0,0,0,.12-.11.834.834,0,0,0-1.417,0,.083.083,0,0,0,.12.11A1.01,1.01,0,0,1,66.061,179.5Z" transform="translate(-64.995 -178.955)" fill="#fffffd"/><path d="M66.019,180.762a1.143,1.143,0,0,1-.747-.284c-.082-.069-.19.033-.139.134a.964.964,0,0,0,1.772,0c.051-.1-.057-.2-.14-.134A1.141,1.141,0,0,1,66.019,180.762Z" transform="translate(-64.953 -179.199)" fill="#fffffd"/></g><g transform="translate(8.892 37.377)"><path d="M59.172,193.7a1.065,1.065,0,1,1-1.065-1.065A1.065,1.065,0,0,1,59.172,193.7Z" transform="translate(-57.041 -192.637)" fill="url(#ae)"/><path d="M58.188,193.232a1.011,1.011,0,0,1,.588.188.083.083,0,0,0,.12-.11.835.835,0,0,0-1.417,0,.083.083,0,0,0,.12.11A1.015,1.015,0,0,1,58.188,193.232Z" transform="translate(-57.123 -192.691)" fill="#fffffd"/><path d="M58.146,194.5a1.145,1.145,0,0,1-.747-.283c-.082-.07-.19.033-.139.134a.964.964,0,0,0,1.772,0c.051-.1-.057-.2-.14-.134A1.145,1.145,0,0,1,58.146,194.5Z" transform="translate(-57.08 -192.935)" fill="#fffffd"/></g><g transform="translate(5.513 50.529)"><path d="M54.992,209.974a1.066,1.066,0,1,1-1.066-1.065A1.066,1.066,0,0,1,54.992,209.974Z" transform="translate(-52.861 -208.909)" fill="url(#af)"/><path d="M54.008,209.5a1.015,1.015,0,0,1,.589.188.083.083,0,0,0,.12-.11.835.835,0,0,0-1.417,0,.083.083,0,0,0,.12.11A1.01,1.01,0,0,1,54.008,209.5Z" transform="translate(-52.943 -208.963)" fill="#fffffd"/><path d="M53.966,210.769a1.145,1.145,0,0,1-.746-.283c-.082-.07-.191.033-.14.134a.964.964,0,0,0,1.772,0c.051-.1-.057-.2-.139-.134A1.147,1.147,0,0,1,53.966,210.769Z" transform="translate(-52.9 -209.207)" fill="#fffffd"/></g><g transform="translate(7.834 61.232)"><path d="M57.863,223.217a1.065,1.065,0,1,1-1.065-1.065A1.065,1.065,0,0,1,57.863,223.217Z" transform="translate(-55.732 -222.152)" fill="url(#ag)"/><path d="M56.879,222.747a1.011,1.011,0,0,1,.588.188.083.083,0,0,0,.12-.11.835.835,0,0,0-1.417,0,.083.083,0,0,0,.12.11A1.015,1.015,0,0,1,56.879,222.747Z" transform="translate(-55.814 -222.206)" fill="#fffffd"/><path d="M56.837,224.012a1.147,1.147,0,0,1-.747-.283c-.082-.07-.19.033-.139.134a.964.964,0,0,0,1.772,0c.051-.1-.057-.2-.139-.134A1.149,1.149,0,0,1,56.837,224.012Z" transform="translate(-55.771 -222.45)" fill="#fffffd"/></g><g transform="translate(2.555 74.444)"><circle cx="1.065" cy="1.065" r="1.065" fill="url(#ah)"/><path d="M50.348,239.093a1.016,1.016,0,0,1,.589.188.083.083,0,0,0,.12-.11.835.835,0,0,0-1.417,0,.083.083,0,0,0,.12.11A1.011,1.011,0,0,1,50.348,239.093Z" transform="translate(-49.283 -238.552)" fill="#fffffd"/><path d="M50.306,240.358a1.145,1.145,0,0,1-.746-.283c-.082-.07-.191.033-.14.134a.964.964,0,0,0,1.772,0c.051-.1-.057-.2-.139-.134A1.147,1.147,0,0,1,50.306,240.358Z" transform="translate(-49.24 -238.796)" fill="#fffffd"/></g><g transform="translate(10.341 53.045)"><path d="M60.965,213.088a1.065,1.065,0,1,1-1.065-1.066A1.065,1.065,0,0,1,60.965,213.088Z" transform="translate(-58.834 -212.022)" fill="url(#ai)"/><path d="M59.981,212.618a1.01,1.01,0,0,1,.589.188.083.083,0,0,0,.119-.11.835.835,0,0,0-1.416,0,.083.083,0,0,0,.119.11A1.01,1.01,0,0,1,59.981,212.618Z" transform="translate(-58.916 -212.076)" fill="#fffffd"/><path d="M59.939,213.883a1.146,1.146,0,0,1-.747-.284c-.082-.07-.19.033-.139.134a.964.964,0,0,0,1.772,0c.051-.1-.057-.2-.139-.134A1.144,1.144,0,0,1,59.939,213.883Z" transform="translate(-58.873 -212.32)" fill="#fffffd"/></g><g transform="translate(29.361 17.348)"><path d="M84.5,168.921a1.065,1.065,0,1,1-1.065-1.065A1.065,1.065,0,0,1,84.5,168.921Z" transform="translate(-82.366 -167.856)" fill="url(#aj)"/><path d="M83.513,168.451a1.015,1.015,0,0,1,.589.188.083.083,0,0,0,.12-.11.835.835,0,0,0-1.417,0,.083.083,0,0,0,.12.11A1.013,1.013,0,0,1,83.513,168.451Z" transform="translate(-82.448 -167.91)" fill="#fffffd"/><path d="M83.471,169.716a1.141,1.141,0,0,1-.746-.284c-.082-.069-.191.034-.14.135a.964.964,0,0,0,1.772,0c.051-.1-.057-.2-.139-.135A1.143,1.143,0,0,1,83.471,169.716Z" transform="translate(-82.405 -168.154)" fill="#fffffd"/></g><g transform="translate(80.618 13.249)"><path d="M147.915,163.851a1.066,1.066,0,1,1-1.066-1.066A1.066,1.066,0,0,1,147.915,163.851Z" transform="translate(-145.784 -162.785)" fill="url(#ak)"/><path d="M146.931,163.381a1.01,1.01,0,0,1,.589.188.083.083,0,0,0,.12-.11.834.834,0,0,0-1.417,0,.083.083,0,0,0,.12.11A1.009,1.009,0,0,1,146.931,163.381Z" transform="translate(-145.866 -162.839)" fill="#fffffd"/><path d="M146.889,164.646a1.142,1.142,0,0,1-.746-.284c-.082-.07-.191.033-.14.134a.964.964,0,0,0,1.772,0c.051-.1-.057-.2-.139-.134A1.144,1.144,0,0,1,146.889,164.646Z" transform="translate(-145.823 -163.083)" fill="#fffffd"/></g><g transform="translate(66.132 22.642)"><path d="M129.992,175.472a1.065,1.065,0,1,1-1.065-1.065A1.066,1.066,0,0,1,129.992,175.472Z" transform="translate(-127.861 -174.407)" fill="url(#al)"/><path d="M129.008,175a1,1,0,0,1,.588.188.083.083,0,0,0,.12-.11.834.834,0,0,0-1.417,0,.083.083,0,0,0,.12.11A1.01,1.01,0,0,1,129.008,175Z" transform="translate(-127.943 -174.461)" fill="#fffffd"/><path d="M128.966,176.268a1.144,1.144,0,0,1-.747-.284c-.082-.07-.19.033-.139.134a.964.964,0,0,0,1.772,0c.051-.1-.057-.2-.14-.134A1.142,1.142,0,0,1,128.966,176.268Z" transform="translate(-127.9 -174.705)" fill="#fffffd"/></g><g transform="translate(42.373 21.206)"><path d="M100.6,173.7a1.066,1.066,0,1,1-1.066-1.065A1.066,1.066,0,0,1,100.6,173.7Z" transform="translate(-98.466 -172.63)" fill="url(#am)"/><path d="M99.613,173.225a1.009,1.009,0,0,1,.589.188.083.083,0,0,0,.12-.11.835.835,0,0,0-1.417,0,.083.083,0,0,0,.12.11A1,1,0,0,1,99.613,173.225Z" transform="translate(-98.548 -172.684)" fill="#fffffd"/><path d="M99.571,174.49a1.141,1.141,0,0,1-.746-.284c-.082-.069-.191.033-.14.134a.964.964,0,0,0,1.772,0c.051-.1-.057-.2-.139-.134A1.144,1.144,0,0,1,99.571,174.49Z" transform="translate(-98.505 -172.928)" fill="#fffffd"/></g><g transform="translate(91.188 35.927)"><path d="M160.992,191.909a1.065,1.065,0,1,1-1.065-1.066A1.065,1.065,0,0,1,160.992,191.909Z" transform="translate(-158.861 -190.843)" fill="url(#an)"/><path d="M160.008,191.439a1.011,1.011,0,0,1,.588.188.083.083,0,0,0,.12-.11.834.834,0,0,0-1.417,0,.083.083,0,0,0,.12.11A1.015,1.015,0,0,1,160.008,191.439Z" transform="translate(-158.943 -190.897)" fill="#fffffd"/><path d="M159.966,192.7a1.144,1.144,0,0,1-.747-.284c-.082-.07-.19.033-.139.134a.964.964,0,0,0,1.772,0c.051-.1-.057-.2-.14-.134A1.142,1.142,0,0,1,159.966,192.7Z" transform="translate(-158.9 -191.141)" fill="#fffffd"/></g><g transform="translate(91.188 54.762)"><path d="M160.992,215.212a1.065,1.065,0,1,1-1.065-1.065A1.065,1.065,0,0,1,160.992,215.212Z" transform="translate(-158.861 -214.147)" fill="url(#ao)"/><path d="M160.008,214.743a1.011,1.011,0,0,1,.588.187.083.083,0,0,0,.12-.11.835.835,0,0,0-1.417,0,.083.083,0,0,0,.12.11A1.015,1.015,0,0,1,160.008,214.743Z" transform="translate(-158.943 -214.201)" fill="#fffffd"/><path d="M159.966,216.007a1.143,1.143,0,0,1-.747-.283c-.082-.07-.19.033-.139.134a.964.964,0,0,0,1.772,0c.051-.1-.057-.2-.14-.134A1.141,1.141,0,0,1,159.966,216.007Z" transform="translate(-158.9 -214.445)" fill="#fffffd"/></g><g transform="translate(37.708)"><circle cx="1.065" cy="1.065" r="1.065" fill="url(#f)"/><path d="M93.841,146.989a1.009,1.009,0,0,1,.588.188.083.083,0,0,0,.12-.11.835.835,0,0,0-1.416,0,.083.083,0,0,0,.12.11A1.01,1.01,0,0,1,93.841,146.989Z" transform="translate(-92.776 -146.447)" fill="#fffffd"/><path d="M93.8,148.253a1.149,1.149,0,0,1-.747-.283c-.082-.07-.19.033-.139.134a.964.964,0,0,0,1.772,0c.051-.1-.057-.2-.139-.134A1.147,1.147,0,0,1,93.8,148.253Z" transform="translate(-92.733 -146.691)" fill="#fffffd"/></g><g transform="translate(95.707 82.961)"><path d="M166.583,250.1a1.065,1.065,0,1,1-1.065-1.065A1.066,1.066,0,0,1,166.583,250.1Z" transform="translate(-164.452 -249.035)" fill="url(#aq)"/><path d="M165.6,249.631a1,1,0,0,1,.588.188.083.083,0,0,0,.12-.11.834.834,0,0,0-1.417,0,.083.083,0,0,0,.12.11A1.01,1.01,0,0,1,165.6,249.631Z" transform="translate(-164.534 -249.089)" fill="#fffffd"/><path d="M165.557,250.9a1.143,1.143,0,0,1-.747-.284c-.082-.07-.19.033-.139.134a.964.964,0,0,0,1.772,0c.051-.1-.057-.2-.14-.134A1.141,1.141,0,0,1,165.557,250.9Z" transform="translate(-164.491 -249.333)" fill="#fffffd"/></g><g transform="translate(58.636 96.428)"><path d="M120.718,266.762a1.066,1.066,0,1,1-1.065-1.065A1.065,1.065,0,0,1,120.718,266.762Z" transform="translate(-118.587 -265.697)" fill="url(#ar)"/><path d="M119.735,266.293a1.012,1.012,0,0,1,.588.188.083.083,0,0,0,.12-.11.835.835,0,0,0-1.417,0,.083.083,0,0,0,.12.11A1.015,1.015,0,0,1,119.735,266.293Z" transform="translate(-118.669 -265.751)" fill="#fffffd"/><path d="M119.693,267.557a1.147,1.147,0,0,1-.747-.283c-.082-.07-.19.033-.139.134a.964.964,0,0,0,1.772,0c.051-.1-.057-.2-.14-.134A1.145,1.145,0,0,1,119.693,267.557Z" transform="translate(-118.627 -265.995)" fill="#fffffd"/></g><g transform="translate(70.848 181.752)"><path d="M135.827,372.329a1.065,1.065,0,1,1-1.065-1.066A1.065,1.065,0,0,1,135.827,372.329Z" transform="translate(-133.696 -371.263)" fill="url(#as)"/><path d="M134.843,371.859a1.01,1.01,0,0,1,.589.188.083.083,0,0,0,.119-.11.833.833,0,0,0-1.416,0,.083.083,0,0,0,.12.11A1.006,1.006,0,0,1,134.843,371.859Z" transform="translate(-133.778 -371.317)" fill="#fffffd"/><path d="M134.8,373.124a1.141,1.141,0,0,1-.746-.284c-.082-.069-.191.033-.14.134a.964.964,0,0,0,1.772,0c.051-.1-.057-.2-.139-.134A1.143,1.143,0,0,1,134.8,373.124Z" transform="translate(-133.735 -371.561)" fill="#fffffd"/></g><g transform="translate(74.465 213.226)"><path d="M140.3,411.269a1.066,1.066,0,1,1-1.066-1.065A1.067,1.067,0,0,1,140.3,411.269Z" transform="translate(-138.171 -410.204)" fill="url(#at)"/><path d="M139.318,410.8a1.014,1.014,0,0,1,.589.188.083.083,0,0,0,.12-.11.835.835,0,0,0-1.417,0,.083.083,0,0,0,.12.11A1.014,1.014,0,0,1,139.318,410.8Z" transform="translate(-138.253 -410.258)" fill="#fffffd"/><path d="M139.276,412.065a1.141,1.141,0,0,1-.746-.284c-.082-.07-.19.033-.14.134a.964.964,0,0,0,1.772,0c.051-.1-.057-.2-.139-.134A1.141,1.141,0,0,1,139.276,412.065Z" transform="translate(-138.211 -410.502)" fill="#fffffd"/></g><g transform="translate(29.709 211.311)"><path d="M84.928,408.9a1.066,1.066,0,1,1-1.065-1.066A1.065,1.065,0,0,1,84.928,408.9Z" transform="translate(-82.797 -407.835)" fill="url(#au)"/><path d="M83.945,408.432a1.013,1.013,0,0,1,.588.188.083.083,0,0,0,.12-.11.835.835,0,0,0-1.417,0,.083.083,0,0,0,.12.11A1.016,1.016,0,0,1,83.945,408.432Z" transform="translate(-82.879 -407.889)" fill="#fffffd"/><path d="M83.9,409.7a1.144,1.144,0,0,1-.747-.284c-.082-.07-.19.033-.139.134a.964.964,0,0,0,1.772,0c.051-.1-.057-.2-.14-.134A1.142,1.142,0,0,1,83.9,409.7Z" transform="translate(-82.837 -408.133)" fill="#fffffd"/></g><g transform="translate(23.712 213.485)"><path d="M77.508,411.591a1.066,1.066,0,1,1-1.065-1.066A1.065,1.065,0,0,1,77.508,411.591Z" transform="translate(-75.377 -410.525)" fill="url(#av)"/><path d="M76.525,411.121a1.008,1.008,0,0,1,.588.188.083.083,0,0,0,.12-.11.834.834,0,0,0-1.417,0,.083.083,0,0,0,.12.11A1.009,1.009,0,0,1,76.525,411.121Z" transform="translate(-75.459 -410.579)" fill="#fffffd"/><path d="M76.483,412.386a1.143,1.143,0,0,1-.747-.284c-.082-.07-.19.033-.139.134a.964.964,0,0,0,1.772,0c.051-.1-.057-.2-.14-.134A1.142,1.142,0,0,1,76.483,412.386Z" transform="translate(-75.417 -410.823)" fill="#fffffd"/></g><g transform="translate(20.707 218.951)"><path d="M73.79,418.352a1.065,1.065,0,1,1-1.065-1.065A1.065,1.065,0,0,1,73.79,418.352Z" transform="translate(-71.659 -417.287)" fill="url(#aw)"/><path d="M72.806,417.882a1.016,1.016,0,0,1,.589.188.083.083,0,0,0,.119-.11.835.835,0,0,0-1.416,0,.083.083,0,0,0,.12.11A1.011,1.011,0,0,1,72.806,417.882Z" transform="translate(-71.741 -417.341)" fill="#fffffd"/><path d="M72.764,419.147a1.149,1.149,0,0,1-.747-.283c-.082-.07-.19.033-.139.134a.964.964,0,0,0,1.772,0c.051-.1-.057-.2-.139-.134A1.148,1.148,0,0,1,72.764,419.147Z" transform="translate(-71.698 -417.585)" fill="#fffffd"/></g><g transform="translate(73.134 158.797)"><path d="M138.655,343.928a1.066,1.066,0,1,1-1.065-1.065A1.065,1.065,0,0,1,138.655,343.928Z" transform="translate(-136.524 -342.863)" fill="url(#ax)"/><path d="M137.672,343.459a1.013,1.013,0,0,1,.588.188.083.083,0,0,0,.12-.11.835.835,0,0,0-1.417,0,.083.083,0,0,0,.12.11A1.014,1.014,0,0,1,137.672,343.459Z" transform="translate(-136.606 -342.917)" fill="#fffffd"/><path d="M137.63,344.724a1.142,1.142,0,0,1-.747-.284c-.082-.07-.19.033-.139.134a.963.963,0,0,0,1.771,0c.051-.1-.057-.2-.139-.134A1.142,1.142,0,0,1,137.63,344.724Z" transform="translate(-136.564 -343.161)" fill="#fffffd"/></g><g transform="translate(63.054 146.084)"><path d="M126.184,328.2a1.066,1.066,0,1,1-1.066-1.066A1.066,1.066,0,0,1,126.184,328.2Z" transform="translate(-124.053 -327.133)" fill="url(#ay)"/><path d="M125.2,327.729a1.009,1.009,0,0,1,.589.188.083.083,0,0,0,.12-.11.835.835,0,0,0-1.417,0,.083.083,0,0,0,.12.11A1.009,1.009,0,0,1,125.2,327.729Z" transform="translate(-124.135 -327.187)" fill="#fffffd"/><path d="M125.158,328.994a1.141,1.141,0,0,1-.746-.284c-.082-.069-.19.033-.14.134a.964.964,0,0,0,1.772,0c.051-.1-.057-.2-.139-.134A1.141,1.141,0,0,1,125.158,328.994Z" transform="translate(-124.093 -327.431)" fill="#fffffd"/></g><g transform="translate(72.297 95.993)"><path d="M137.62,266.224a1.066,1.066,0,1,1-1.066-1.065A1.066,1.066,0,0,1,137.62,266.224Z" transform="translate(-135.489 -265.159)" fill="url(#az)"/><path d="M136.636,265.754a1.015,1.015,0,0,1,.589.188.083.083,0,0,0,.12-.11.835.835,0,0,0-1.417,0,.083.083,0,0,0,.12.11A1.015,1.015,0,0,1,136.636,265.754Z" transform="translate(-135.571 -265.213)" fill="#fffffd"/><path d="M136.594,267.019a1.145,1.145,0,0,1-.746-.283c-.082-.07-.19.033-.14.134a.964.964,0,0,0,1.772,0c.051-.1-.057-.2-.139-.134A1.146,1.146,0,0,1,136.594,267.019Z" transform="translate(-135.529 -265.457)" fill="#fffffd"/></g><g transform="translate(29.252 95.833)"><path d="M84.363,266.027a1.065,1.065,0,1,1-1.065-1.066A1.065,1.065,0,0,1,84.363,266.027Z" transform="translate(-82.232 -264.961)" fill="url(#ba)"/><path d="M83.379,265.557a1.009,1.009,0,0,1,.589.188.083.083,0,0,0,.119-.11.834.834,0,0,0-1.416,0,.083.083,0,0,0,.12.11A1,1,0,0,1,83.379,265.557Z" transform="translate(-82.314 -265.015)" fill="#fffffd"/><path d="M83.337,266.822a1.141,1.141,0,0,1-.746-.284c-.082-.069-.191.033-.14.134a.964.964,0,0,0,1.772,0c.051-.1-.057-.2-.139-.134A1.144,1.144,0,0,1,83.337,266.822Z" transform="translate(-82.271 -265.259)" fill="#fffffd"/></g><g transform="translate(56.06 85.807)"><circle cx="1.065" cy="1.065" r="1.065" fill="url(#f)"/><path d="M116.546,253.153a1.015,1.015,0,0,1,.589.187.083.083,0,0,0,.119-.11.834.834,0,0,0-1.416,0,.083.083,0,0,0,.12.11A1.01,1.01,0,0,1,116.546,253.153Z" transform="translate(-115.481 -252.611)" fill="#fffffd"/><path d="M116.5,254.417a1.141,1.141,0,0,1-.746-.283c-.082-.07-.191.033-.14.134a.964.964,0,0,0,1.772,0c.051-.1-.057-.2-.139-.134A1.143,1.143,0,0,1,116.5,254.417Z" transform="translate(-115.438 -252.855)" fill="#fffffd"/></g><g transform="translate(26.142 74.444)"><circle cx="1.065" cy="1.065" r="1.065" fill="url(#f)"/><path d="M79.532,239.093a1.015,1.015,0,0,1,.588.188.083.083,0,0,0,.12-.11.835.835,0,0,0-1.417,0,.083.083,0,0,0,.12.11A1.016,1.016,0,0,1,79.532,239.093Z" transform="translate(-78.466 -238.552)" fill="#fffffd"/><path d="M79.49,240.358a1.145,1.145,0,0,1-.747-.283c-.082-.07-.19.033-.14.134a.964.964,0,0,0,1.772,0c.051-.1-.057-.2-.139-.134A1.145,1.145,0,0,1,79.49,240.358Z" transform="translate(-78.424 -238.796)" fill="#fffffd"/></g><g transform="translate(57.04 112.383)"><circle cx="1.065" cy="1.065" r="1.065" fill="url(#bd)"/><path d="M117.76,286.033a1,1,0,0,1,.588.188.083.083,0,0,0,.12-.11.834.834,0,0,0-1.417,0,.083.083,0,0,0,.12.11A1.009,1.009,0,0,1,117.76,286.033Z" transform="translate(-116.694 -285.491)" fill="#fffffd"/><path d="M117.718,287.3a1.144,1.144,0,0,1-.747-.284c-.082-.07-.19.033-.139.134a.964.964,0,0,0,1.772,0c.051-.1-.057-.2-.14-.134A1.142,1.142,0,0,1,117.718,287.3Z" transform="translate(-116.652 -285.735)" fill="#fffffd"/></g><g transform="translate(30.702 130.761)"><circle cx="1.065" cy="1.065" r="1.065" transform="translate(0 0)" fill="url(#bd)"/><path d="M85.172,308.771a1.015,1.015,0,0,1,.589.187.083.083,0,0,0,.12-.11.835.835,0,0,0-1.417,0,.083.083,0,0,0,.12.11A1.014,1.014,0,0,1,85.172,308.771Z" transform="translate(-84.107 -308.229)" fill="#fffffd"/><path d="M85.13,310.036a1.141,1.141,0,0,1-.746-.284c-.082-.07-.19.033-.139.134a.964.964,0,0,0,1.772,0c.05-.1-.058-.2-.14-.134A1.142,1.142,0,0,1,85.13,310.036Z" transform="translate(-84.065 -308.473)" fill="#fffffd"/></g><g transform="translate(37.542 109.601)"><circle cx="1.066" cy="1.066" r="1.066" fill="url(#f)"/><path d="M93.635,282.591a1.015,1.015,0,0,1,.589.188.083.083,0,0,0,.12-.11.835.835,0,0,0-1.417,0,.083.083,0,0,0,.12.11A1.012,1.012,0,0,1,93.635,282.591Z" transform="translate(-92.57 -282.05)" fill="#fffffd"/><path d="M93.593,283.856a1.145,1.145,0,0,1-.746-.283c-.082-.07-.191.033-.14.134a.964.964,0,0,0,1.772,0c.051-.1-.057-.2-.139-.134A1.146,1.146,0,0,1,93.593,283.856Z" transform="translate(-92.527 -282.294)" fill="#fffffd"/></g><g transform="translate(70.417 111.596)"><path d="M135.293,285.528a1.065,1.065,0,1,1-1.065-1.065A1.065,1.065,0,0,1,135.293,285.528Z" transform="translate(-133.162 -284.463)" fill="url(#bg)"/><path d="M134.309,285.058a1.012,1.012,0,0,1,.588.188.083.083,0,0,0,.12-.11.834.834,0,0,0-1.416,0,.083.083,0,0,0,.119.11A1.016,1.016,0,0,1,134.309,285.058Z" transform="translate(-133.244 -284.517)" fill="#fffffd"/><path d="M134.267,286.323a1.149,1.149,0,0,1-.747-.283c-.082-.07-.19.033-.139.134a.964.964,0,0,0,1.772,0c.051-.1-.057-.2-.139-.134A1.147,1.147,0,0,1,134.267,286.323Z" transform="translate(-133.201 -284.761)" fill="#fffffd"/></g><g transform="translate(33.988 149.67)"><path d="M90.222,332.636a1.065,1.065,0,1,1-1.065-1.066A1.065,1.065,0,0,1,90.222,332.636Z" transform="translate(-88.091 -331.57)" fill="url(#ba)"/><path d="M89.238,332.166a1.01,1.01,0,0,1,.589.188.083.083,0,0,0,.12-.11.834.834,0,0,0-1.417,0,.083.083,0,0,0,.12.11A1.006,1.006,0,0,1,89.238,332.166Z" transform="translate(-88.173 -331.624)" fill="#fffffd"/><path d="M89.2,333.431a1.142,1.142,0,0,1-.746-.284c-.082-.07-.191.033-.14.134a.964.964,0,0,0,1.772,0c.051-.1-.057-.2-.139-.134A1.144,1.144,0,0,1,89.2,333.431Z" transform="translate(-88.13 -331.868)" fill="#fffffd"/></g><g transform="translate(33.719 168.946)"><path d="M89.89,356.484a1.066,1.066,0,1,1-1.065-1.065A1.066,1.066,0,0,1,89.89,356.484Z" transform="translate(-87.759 -355.419)" fill="url(#bi)"/><path d="M88.907,356.015a1.014,1.014,0,0,1,.588.188.083.083,0,0,0,.12-.11.835.835,0,0,0-1.417,0,.083.083,0,0,0,.12.11A1.015,1.015,0,0,1,88.907,356.015Z" transform="translate(-87.841 -355.473)" fill="#fffffd"/><path d="M88.865,357.28a1.142,1.142,0,0,1-.747-.284c-.082-.07-.19.033-.139.134a.963.963,0,0,0,1.771,0c.051-.1-.057-.2-.139-.134A1.142,1.142,0,0,1,88.865,357.28Z" transform="translate(-87.799 -355.717)" fill="#fffffd"/></g><g transform="translate(25.854 149.93)"><path d="M80.158,332.957a1.066,1.066,0,1,1-1.065-1.065A1.065,1.065,0,0,1,80.158,332.957Z" transform="translate(-78.027 -331.892)" fill="url(#bj)"/><path d="M79.175,332.487a1.015,1.015,0,0,1,.588.188.083.083,0,0,0,.12-.11.835.835,0,0,0-1.417,0,.083.083,0,0,0,.12.11A1.015,1.015,0,0,1,79.175,332.487Z" transform="translate(-78.109 -331.946)" fill="#fffffd"/><path d="M79.133,333.752a1.146,1.146,0,0,1-.747-.283c-.082-.07-.19.032-.139.133a.963.963,0,0,0,1.771,0c.052-.1-.057-.2-.139-.133A1.145,1.145,0,0,1,79.133,333.752Z" transform="translate(-78.067 -332.19)" fill="#fffffd"/></g><g transform="translate(30.197 185.758)"><path d="M85.532,377.286a1.066,1.066,0,1,1-1.066-1.066A1.066,1.066,0,0,1,85.532,377.286Z" transform="translate(-83.401 -376.22)" fill="url(#bk)"/><path d="M84.548,376.816a1.009,1.009,0,0,1,.589.188.083.083,0,0,0,.12-.11.834.834,0,0,0-1.417,0,.083.083,0,0,0,.12.11A1.009,1.009,0,0,1,84.548,376.816Z" transform="translate(-83.483 -376.274)" fill="#fffffd"/><path d="M84.506,378.081a1.142,1.142,0,0,1-.746-.284c-.083-.069-.191.033-.14.134a.964.964,0,0,0,1.772,0c.051-.1-.057-.2-.139-.134A1.144,1.144,0,0,1,84.506,378.081Z" transform="translate(-83.44 -376.518)" fill="#fffffd"/></g><g transform="translate(71.685 199.798)"><path d="M136.862,394.655a1.065,1.065,0,1,1-1.065-1.065A1.065,1.065,0,0,1,136.862,394.655Z" transform="translate(-134.731 -393.59)" fill="url(#as)"/><path d="M135.878,394.186a1.01,1.01,0,0,1,.589.188.083.083,0,0,0,.12-.11.834.834,0,0,0-1.417,0,.083.083,0,0,0,.12.11A1.006,1.006,0,0,1,135.878,394.186Z" transform="translate(-134.813 -393.644)" fill="#fffffd"/><path d="M135.836,395.451a1.141,1.141,0,0,1-.746-.284c-.082-.07-.191.033-.14.134a.964.964,0,0,0,1.772,0c.051-.1-.057-.2-.139-.134A1.144,1.144,0,0,1,135.836,395.451Z" transform="translate(-134.77 -393.888)" fill="#fffffd"/></g><g transform="translate(69.353 209.098)"><path d="M133.977,406.162a1.065,1.065,0,1,1-1.065-1.065A1.065,1.065,0,0,1,133.977,406.162Z" transform="translate(-131.846 -405.097)" fill="url(#bm)"/><path d="M132.993,405.692a1.015,1.015,0,0,1,.589.188.083.083,0,0,0,.12-.11.835.835,0,0,0-1.417,0,.083.083,0,0,0,.12.11A1.01,1.01,0,0,1,132.993,405.692Z" transform="translate(-131.928 -405.151)" fill="#fffffd"/><path d="M132.951,406.957a1.145,1.145,0,0,1-.746-.283c-.082-.07-.191.033-.14.134a.964.964,0,0,0,1.772,0c.051-.1-.057-.2-.139-.134A1.147,1.147,0,0,1,132.951,406.957Z" transform="translate(-131.885 -405.395)" fill="#fffffd"/></g><g transform="translate(26.835 191.693)"><path d="M81.372,384.628a1.065,1.065,0,1,1-1.065-1.065A1.065,1.065,0,0,1,81.372,384.628Z" transform="translate(-79.241 -383.563)" fill="url(#bn)"/><path d="M80.388,384.159a1.009,1.009,0,0,1,.589.188.083.083,0,0,0,.119-.11.834.834,0,0,0-1.416,0,.083.083,0,0,0,.12.11A1,1,0,0,1,80.388,384.159Z" transform="translate(-79.323 -383.617)" fill="#fffffd"/><path d="M80.346,385.424a1.141,1.141,0,0,1-.746-.284c-.082-.07-.191.033-.14.134a.964.964,0,0,0,1.772,0c.051-.1-.057-.2-.139-.134A1.143,1.143,0,0,1,80.346,385.424Z" transform="translate(-79.28 -383.861)" fill="#fffffd"/></g><g transform="translate(30.197 195.659)"><path d="M85.532,389.536a1.066,1.066,0,1,1-1.066-1.066A1.066,1.066,0,0,1,85.532,389.536Z" transform="translate(-83.401 -388.47)" fill="url(#bk)"/><path d="M84.548,389.066a1.008,1.008,0,0,1,.589.188.083.083,0,0,0,.12-.11.835.835,0,0,0-1.417,0,.083.083,0,0,0,.12.11A1.008,1.008,0,0,1,84.548,389.066Z" transform="translate(-83.483 -388.524)" fill="#fffffd"/><path d="M84.506,390.331a1.142,1.142,0,0,1-.746-.284c-.083-.07-.191.033-.14.134a.964.964,0,0,0,1.772,0c.051-.1-.057-.2-.139-.134A1.144,1.144,0,0,1,84.506,390.331Z" transform="translate(-83.44 -388.768)" fill="#fffffd"/></g><g transform="translate(26.835 171.16)"><path d="M81.372,359.223a1.065,1.065,0,1,1-1.065-1.065A1.065,1.065,0,0,1,81.372,359.223Z" transform="translate(-79.241 -358.158)" fill="url(#bp)"/><path d="M80.388,358.753a1.016,1.016,0,0,1,.589.188.083.083,0,0,0,.119-.11.834.834,0,0,0-1.416,0,.083.083,0,0,0,.12.11A1.011,1.011,0,0,1,80.388,358.753Z" transform="translate(-79.323 -358.212)" fill="#fffffd"/><path d="M80.346,360.018a1.141,1.141,0,0,1-.746-.284c-.082-.069-.191.034-.14.134a.964.964,0,0,0,1.772,0c.051-.1-.057-.2-.139-.134A1.143,1.143,0,0,1,80.346,360.018Z" transform="translate(-79.28 -358.456)" fill="#fffffd"/></g><g transform="translate(44.45 82.882)"><path d="M103.166,250a1.066,1.066,0,1,1-1.066-1.066A1.066,1.066,0,0,1,103.166,250Z" transform="translate(-101.035 -248.938)" fill="url(#r)"/><path d="M102.182,249.534a1.01,1.01,0,0,1,.589.188.083.083,0,0,0,.12-.11.834.834,0,0,0-1.417,0,.083.083,0,0,0,.12.11A1.009,1.009,0,0,1,102.182,249.534Z" transform="translate(-101.117 -248.992)" fill="#fffffd"/><path d="M102.14,250.8a1.141,1.141,0,0,1-.746-.284c-.082-.07-.191.033-.14.134a.964.964,0,0,0,1.772,0c.051-.1-.057-.2-.139-.134A1.142,1.142,0,0,1,102.14,250.8Z" transform="translate(-101.074 -249.236)" fill="#fffffd"/></g><g transform="translate(33.134 55.022)"><path d="M89.165,215.534a1.065,1.065,0,1,1-1.065-1.066A1.065,1.065,0,0,1,89.165,215.534Z" transform="translate(-87.034 -214.468)" fill="url(#aq)"/><path d="M88.181,215.064a1,1,0,0,1,.588.188.083.083,0,0,0,.12-.11.834.834,0,0,0-1.416,0,.083.083,0,0,0,.119.11A1.009,1.009,0,0,1,88.181,215.064Z" transform="translate(-87.116 -214.522)" fill="#fffffd"/><path d="M88.139,216.329a1.144,1.144,0,0,1-.747-.284c-.082-.07-.19.033-.139.134a.964.964,0,0,0,1.772,0c.051-.1-.057-.2-.139-.134A1.145,1.145,0,0,1,88.139,216.329Z" transform="translate(-87.073 -214.766)" fill="#fffffd"/></g><g transform="translate(68.734 49.486)"><circle cx="1.065" cy="1.065" r="1.065" fill="url(#f)"/><path d="M132.228,208.214a1.011,1.011,0,0,1,.588.188.083.083,0,0,0,.12-.11.835.835,0,0,0-1.416,0,.083.083,0,0,0,.12.11A1.011,1.011,0,0,1,132.228,208.214Z" transform="translate(-131.163 -207.673)" fill="#fffffd"/><path d="M132.186,209.479a1.149,1.149,0,0,1-.747-.283c-.082-.07-.19.033-.139.134a.964.964,0,0,0,1.772,0c.051-.1-.057-.2-.139-.134A1.147,1.147,0,0,1,132.186,209.479Z" transform="translate(-131.12 -207.917)" fill="#fffffd"/></g><g transform="translate(65.066 57.122)"><path d="M128.673,218.132a1.066,1.066,0,1,1-1.065-1.066A1.065,1.065,0,0,1,128.673,218.132Z" transform="translate(-126.542 -217.066)" fill="url(#bt)"/><path d="M127.69,217.662a1.015,1.015,0,0,1,.588.188.083.083,0,0,0,.12-.11.835.835,0,0,0-1.417,0,.083.083,0,0,0,.12.11A1.016,1.016,0,0,1,127.69,217.662Z" transform="translate(-126.624 -217.12)" fill="#fffffd"/><path d="M127.647,218.927a1.142,1.142,0,0,1-.746-.284c-.082-.07-.19.033-.139.134a.964.964,0,0,0,1.772,0c.051-.1-.057-.2-.14-.134A1.142,1.142,0,0,1,127.647,218.927Z" transform="translate(-126.582 -217.364)" fill="#fffffd"/></g><g transform="translate(33.25 43.279)"><circle cx="1.066" cy="1.066" r="1.066" fill="url(#f)"/><path d="M88.326,200.534a1.011,1.011,0,0,1,.588.188.083.083,0,0,0,.12-.11.835.835,0,0,0-1.416,0,.083.083,0,0,0,.119.11A1.015,1.015,0,0,1,88.326,200.534Z" transform="translate(-87.26 -199.993)" fill="#fffffd"/><path d="M88.284,201.8a1.147,1.147,0,0,1-.747-.283c-.082-.07-.19.033-.139.134a.964.964,0,0,0,1.772,0c.051-.1-.057-.2-.139-.134A1.149,1.149,0,0,1,88.284,201.8Z" transform="translate(-87.218 -200.237)" fill="#fffffd"/></g><g transform="translate(42.247 59.336)"><path d="M100.44,220.87a1.065,1.065,0,1,1-1.065-1.065A1.066,1.066,0,0,1,100.44,220.87Z" transform="translate(-98.309 -219.805)" fill="url(#bv)"/><path d="M99.456,220.4a1.011,1.011,0,0,1,.588.188.083.083,0,0,0,.12-.109.834.834,0,0,0-1.416,0,.082.082,0,0,0,.119.109A1.015,1.015,0,0,1,99.456,220.4Z" transform="translate(-98.391 -219.859)" fill="#fffffd"/><path d="M99.414,221.666a1.145,1.145,0,0,1-.747-.284c-.082-.07-.19.033-.139.134a.964.964,0,0,0,1.772,0c.051-.1-.057-.2-.14-.134A1.142,1.142,0,0,1,99.414,221.666Z" transform="translate(-98.348 -220.103)" fill="#fffffd"/></g><g transform="translate(58.636 77.84)"><path d="M120.718,243.764a1.066,1.066,0,1,1-1.065-1.065A1.065,1.065,0,0,1,120.718,243.764Z" transform="translate(-118.587 -242.699)" fill="url(#bw)"/><path d="M119.735,243.294a1.013,1.013,0,0,1,.588.188.083.083,0,0,0,.12-.11.835.835,0,0,0-1.417,0,.083.083,0,0,0,.12.11A1.015,1.015,0,0,1,119.735,243.294Z" transform="translate(-118.669 -242.753)" fill="#fffffd"/><path d="M119.693,244.559a1.144,1.144,0,0,1-.747-.284c-.082-.07-.19.034-.139.135a.964.964,0,0,0,1.772,0c.051-.1-.057-.2-.14-.135A1.142,1.142,0,0,1,119.693,244.559Z" transform="translate(-118.627 -242.997)" fill="#fffffd"/></g><g transform="translate(48.426 72.994)"><path d="M108.086,237.77a1.065,1.065,0,1,1-1.065-1.066A1.065,1.065,0,0,1,108.086,237.77Z" transform="translate(-105.955 -236.704)" fill="url(#bx)"/><path d="M107.1,237.3a1,1,0,0,1,.588.188.083.083,0,0,0,.12-.11.835.835,0,0,0-1.417,0,.083.083,0,0,0,.12.11A1.009,1.009,0,0,1,107.1,237.3Z" transform="translate(-106.037 -236.758)" fill="#fffffd"/><path d="M107.06,238.565a1.144,1.144,0,0,1-.747-.284c-.082-.07-.19.033-.139.134a.964.964,0,0,0,1.772,0c.051-.1-.057-.2-.14-.134A1.142,1.142,0,0,1,107.06,238.565Z" transform="translate(-105.994 -237.002)" fill="#fffffd"/></g><g transform="translate(27.947 3.743)"><path d="M82.748,152.089a1.066,1.066,0,1,1-1.066-1.065A1.066,1.066,0,0,1,82.748,152.089Z" transform="translate(-80.617 -151.024)" fill="url(#av)"/><path d="M81.764,151.62a1.009,1.009,0,0,1,.589.188.083.083,0,0,0,.12-.11.834.834,0,0,0-1.417,0,.083.083,0,0,0,.12.11A1.009,1.009,0,0,1,81.764,151.62Z" transform="translate(-80.699 -151.078)" fill="#fffffd"/><path d="M81.722,152.885a1.142,1.142,0,0,1-.746-.284c-.082-.07-.191.033-.139.134a.963.963,0,0,0,1.771,0c.051-.1-.057-.2-.139-.134A1.142,1.142,0,0,1,81.722,152.885Z" transform="translate(-80.657 -151.322)" fill="#fffffd"/></g><g transform="translate(13.133 0.107)"><path d="M64.42,147.59a1.065,1.065,0,1,1-1.065-1.065A1.065,1.065,0,0,1,64.42,147.59Z" transform="translate(-62.289 -146.525)" fill="url(#bz)"/><path d="M63.436,147.12a1.011,1.011,0,0,1,.588.188.083.083,0,0,0,.12-.11.835.835,0,0,0-1.417,0,.083.083,0,0,0,.12.11A1.015,1.015,0,0,1,63.436,147.12Z" transform="translate(-62.371 -146.579)" fill="#fffffd"/><path d="M63.394,148.385a1.147,1.147,0,0,1-.747-.283c-.082-.07-.19.033-.139.134a.964.964,0,0,0,1.772,0c.051-.1-.057-.2-.14-.134A1.145,1.145,0,0,1,63.394,148.385Z" transform="translate(-62.328 -146.823)" fill="#fffffd"/></g><g transform="translate(90.207 78.877)"><path d="M159.778,245.047a1.065,1.065,0,1,1-1.065-1.065A1.065,1.065,0,0,1,159.778,245.047Z" transform="translate(-157.647 -243.982)" fill="url(#ca)"/><path d="M158.794,244.578a1.01,1.01,0,0,1,.589.188.083.083,0,0,0,.12-.11.834.834,0,0,0-1.417,0,.083.083,0,0,0,.12.11A1,1,0,0,1,158.794,244.578Z" transform="translate(-157.729 -244.036)" fill="#fffffd"/><path d="M158.752,245.843a1.141,1.141,0,0,1-.746-.284c-.082-.07-.191.033-.14.134a.964.964,0,0,0,1.772,0c.051-.1-.057-.2-.139-.134A1.144,1.144,0,0,1,158.752,245.843Z" transform="translate(-157.687 -244.28)" fill="#fffffd"/></g><g transform="translate(84.03 37.465)"><path d="M153.154,194.32a1.575,1.575,0,1,1-1.575-1.574A1.574,1.574,0,0,1,153.154,194.32Z" transform="translate(-150.005 -192.746)" fill="url(#cb)"/><path d="M151.7,193.627a1.492,1.492,0,0,1,.87.278.123.123,0,0,0,.176-.162,1.233,1.233,0,0,0-2.093,0,.123.123,0,0,0,.177.162A1.489,1.489,0,0,1,151.7,193.627Z" transform="translate(-150.126 -192.826)" fill="#fffffd"/><path d="M151.638,195.5a1.689,1.689,0,0,1-1.1-.419c-.121-.1-.281.048-.205.2a1.424,1.424,0,0,0,2.618,0c.075-.15-.085-.3-.206-.2A1.689,1.689,0,0,1,151.638,195.5Z" transform="translate(-150.063 -193.186)" fill="#fffffd"/></g><g transform="translate(87.338 26.93)"><path d="M157.247,181.286a1.574,1.574,0,1,1-1.574-1.574A1.574,1.574,0,0,1,157.247,181.286Z" transform="translate(-154.098 -179.712)" fill="url(#cc)"/><path d="M155.793,180.593a1.5,1.5,0,0,1,.87.277.123.123,0,0,0,.177-.162,1.233,1.233,0,0,0-2.093,0,.122.122,0,0,0,.176.162A1.5,1.5,0,0,1,155.793,180.593Z" transform="translate(-154.219 -179.792)" fill="#fffffd"/><path d="M155.731,182.462a1.693,1.693,0,0,1-1.1-.419c-.121-.1-.281.049-.206.2a1.424,1.424,0,0,0,2.618,0c.075-.15-.085-.3-.205-.2A1.693,1.693,0,0,1,155.731,182.462Z" transform="translate(-154.156 -180.152)" fill="#fffffd"/></g><g transform="translate(94.743 67.758)"><path d="M166.409,231.8a1.574,1.574,0,1,1-1.574-1.574A1.574,1.574,0,0,1,166.409,231.8Z" transform="translate(-163.26 -230.225)" fill="url(#cd)"/><path d="M164.955,231.106a1.5,1.5,0,0,1,.871.278.123.123,0,0,0,.176-.162,1.233,1.233,0,0,0-2.093,0,.123.123,0,0,0,.177.162A1.5,1.5,0,0,1,164.955,231.106Z" transform="translate(-163.381 -230.305)" fill="#fffffd"/><path d="M164.893,232.975a1.691,1.691,0,0,1-1.1-.419c-.12-.1-.28.049-.205.2a1.424,1.424,0,0,0,2.618,0c.075-.149-.085-.3-.206-.2A1.689,1.689,0,0,1,164.893,232.975Z" transform="translate(-163.319 -230.665)" fill="#fffffd"/></g><g transform="translate(66.418 103.954)"><path d="M131.364,276.583a1.574,1.574,0,1,1-1.574-1.574A1.574,1.574,0,0,1,131.364,276.583Z" transform="translate(-128.215 -275.009)" fill="url(#ce)"/><path d="M129.91,275.89a1.5,1.5,0,0,1,.87.278.123.123,0,0,0,.176-.163,1.234,1.234,0,0,0-2.093,0,.123.123,0,0,0,.177.163A1.5,1.5,0,0,1,129.91,275.89Z" transform="translate(-128.336 -275.089)" fill="#fffffd"/><path d="M129.848,277.759a1.69,1.69,0,0,1-1.1-.419c-.12-.1-.28.049-.205.2a1.424,1.424,0,0,0,2.618,0c.075-.149-.085-.3-.206-.2A1.689,1.689,0,0,1,129.848,277.759Z" transform="translate(-128.274 -275.449)" fill="#fffffd"/></g><g transform="translate(70.808 145.575)"><circle cx="1.574" cy="1.574" r="1.574" fill="url(#f)"/><path d="M135.341,327.385a1.491,1.491,0,0,1,.87.278.123.123,0,0,0,.177-.162,1.233,1.233,0,0,0-2.093,0,.123.123,0,0,0,.176.162A1.491,1.491,0,0,1,135.341,327.385Z" transform="translate(-133.767 -326.583)" fill="#fffffd"/><path d="M135.279,329.254a1.693,1.693,0,0,1-1.1-.419c-.121-.1-.281.048-.206.2a1.424,1.424,0,0,0,2.618,0c.075-.15-.084-.3-.205-.2A1.694,1.694,0,0,1,135.279,329.254Z" transform="translate(-133.704 -326.944)" fill="#fffffd"/></g><g transform="translate(66.088 155.006)"><circle cx="1.574" cy="1.574" r="1.574" fill="url(#f)"/><path d="M129.5,339.053a1.5,1.5,0,0,1,.87.278.123.123,0,0,0,.177-.163,1.234,1.234,0,0,0-2.093,0,.123.123,0,0,0,.176.163A1.5,1.5,0,0,1,129.5,339.053Z" transform="translate(-127.928 -338.252)" fill="#fffffd"/><path d="M129.44,340.922a1.689,1.689,0,0,1-1.1-.419c-.121-.1-.281.049-.206.2a1.424,1.424,0,0,0,2.618,0c.075-.15-.085-.3-.205-.2A1.689,1.689,0,0,1,129.44,340.922Z" transform="translate(-127.865 -338.613)" fill="#fffffd"/></g><g transform="translate(70.339 191.827)"><circle cx="1.574" cy="1.574" r="1.574" fill="url(#f)"/><path d="M134.761,384.61a1.491,1.491,0,0,1,.87.278.123.123,0,0,0,.176-.163,1.234,1.234,0,0,0-2.093,0,.123.123,0,0,0,.177.163A1.489,1.489,0,0,1,134.761,384.61Z" transform="translate(-133.187 -383.808)" fill="#fffffd"/><path d="M134.7,386.478a1.694,1.694,0,0,1-1.1-.419c-.121-.1-.28.048-.205.2a1.424,1.424,0,0,0,2.618,0c.075-.15-.085-.3-.206-.2A1.693,1.693,0,0,1,134.7,386.478Z" transform="translate(-133.125 -384.169)" fill="#fffffd"/></g><g transform="translate(28.743 201.902)"><circle cx="1.574" cy="1.574" r="1.574" fill="url(#f)"/><path d="M83.3,397.075a1.492,1.492,0,0,1,.87.278.123.123,0,0,0,.176-.162,1.233,1.233,0,0,0-2.093,0,.123.123,0,0,0,.177.162A1.491,1.491,0,0,1,83.3,397.075Z" transform="translate(-81.723 -396.273)" fill="#fffffd"/><path d="M83.235,398.944a1.689,1.689,0,0,1-1.1-.419c-.121-.1-.28.049-.205.2a1.424,1.424,0,0,0,2.618,0c.075-.149-.085-.3-.206-.2A1.689,1.689,0,0,1,83.235,398.944Z" transform="translate(-81.661 -396.634)" fill="#fffffd"/></g><g transform="translate(76.098 219.084)"><circle cx="1.574" cy="1.574" r="1.574" fill="url(#f)"/><path d="M141.886,418.333a1.5,1.5,0,0,1,.87.278.123.123,0,0,0,.176-.162,1.233,1.233,0,0,0-2.093,0,.123.123,0,0,0,.177.162A1.5,1.5,0,0,1,141.886,418.333Z" transform="translate(-140.312 -417.532)" fill="#fffffd"/><path d="M141.824,420.2a1.687,1.687,0,0,1-1.1-.419c-.121-.1-.281.049-.206.2a1.425,1.425,0,0,0,2.618,0c.075-.149-.085-.3-.206-.2A1.689,1.689,0,0,1,141.824,420.2Z" transform="translate(-140.25 -417.893)" fill="#fffffd"/></g><g transform="translate(26.037 219.084)"><circle cx="1.574" cy="1.574" r="1.574" fill="url(#x)"/><path d="M79.949,418.333a1.5,1.5,0,0,1,.87.278.123.123,0,0,0,.176-.162,1.233,1.233,0,0,0-2.093,0,.123.123,0,0,0,.177.162A1.5,1.5,0,0,1,79.949,418.333Z" transform="translate(-78.375 -417.532)" fill="#fffffd"/><path d="M79.887,420.2a1.689,1.689,0,0,1-1.1-.419c-.12-.1-.28.049-.205.2a1.424,1.424,0,0,0,2.618,0c.075-.149-.085-.3-.206-.2A1.689,1.689,0,0,1,79.887,420.2Z" transform="translate(-78.313 -417.893)" fill="#fffffd"/></g><g transform="translate(66.702 174.98)"><circle cx="1.574" cy="1.574" r="1.574" fill="url(#f)"/><path d="M130.261,363.765a1.5,1.5,0,0,1,.87.278.123.123,0,0,0,.176-.162,1.233,1.233,0,0,0-2.093,0,.123.123,0,0,0,.177.162A1.494,1.494,0,0,1,130.261,363.765Z" transform="translate(-128.687 -362.964)" fill="#fffffd"/><path d="M130.2,365.634a1.689,1.689,0,0,1-1.1-.419c-.121-.1-.28.049-.205.2a1.424,1.424,0,0,0,2.618,0c.075-.149-.085-.3-.206-.2A1.689,1.689,0,0,1,130.2,365.634Z" transform="translate(-128.625 -363.325)" fill="#fffffd"/></g><g transform="translate(36.787 122.659)"><circle cx="1.574" cy="1.574" r="1.574" fill="url(#f)"/><path d="M93.249,299.032a1.491,1.491,0,0,1,.87.278.123.123,0,0,0,.177-.163,1.233,1.233,0,0,0-2.093,0,.123.123,0,0,0,.176.163A1.491,1.491,0,0,1,93.249,299.032Z" transform="translate(-91.675 -298.231)" fill="#fffffd"/><path d="M93.187,300.9a1.693,1.693,0,0,1-1.1-.419c-.121-.1-.281.048-.206.2a1.424,1.424,0,0,0,2.618,0c.075-.149-.084-.3-.205-.2A1.694,1.694,0,0,1,93.187,300.9Z" transform="translate(-91.612 -298.592)" fill="#fffffd"/></g><g transform="translate(29.225 117.508)"><path d="M85.347,293.353a1.574,1.574,0,1,1-1.574-1.575A1.574,1.574,0,0,1,85.347,293.353Z" transform="translate(-82.198 -291.778)" fill="url(#cn)"/><path d="M83.893,292.659a1.5,1.5,0,0,1,.87.278.123.123,0,0,0,.177-.161,1.233,1.233,0,0,0-2.093,0,.122.122,0,0,0,.176.161A1.5,1.5,0,0,1,83.893,292.659Z" transform="translate(-82.319 -291.858)" fill="#fffffd"/><path d="M83.831,294.528a1.69,1.69,0,0,1-1.1-.419c-.121-.1-.281.049-.206.2a1.424,1.424,0,0,0,2.618,0c.075-.149-.084-.3-.205-.2A1.69,1.69,0,0,1,83.831,294.528Z" transform="translate(-82.256 -292.219)" fill="#fffffd"/></g><g transform="translate(28.743 159.452)"><circle cx="1.574" cy="1.574" r="1.574" fill="url(#f)"/><path d="M83.3,344.554a1.5,1.5,0,0,1,.87.278.123.123,0,0,0,.176-.162,1.234,1.234,0,0,0-2.093,0,.123.123,0,0,0,.177.162A1.5,1.5,0,0,1,83.3,344.554Z" transform="translate(-81.723 -343.753)" fill="#fffffd"/><path d="M83.235,346.423a1.689,1.689,0,0,1-1.1-.419c-.121-.1-.28.049-.205.2a1.424,1.424,0,0,0,2.618,0c.075-.149-.085-.3-.206-.2A1.689,1.689,0,0,1,83.235,346.423Z" transform="translate(-81.661 -344.114)" fill="#fffffd"/></g><g transform="translate(27.775 85.941)"><circle cx="1.574" cy="1.574" r="1.574" fill="url(#x)"/><path d="M82.1,253.6a1.5,1.5,0,0,1,.871.278.123.123,0,0,0,.177-.162,1.234,1.234,0,0,0-2.093,0,.123.123,0,0,0,.176.162A1.5,1.5,0,0,1,82.1,253.6Z" transform="translate(-80.525 -252.802)" fill="#fffffd"/><path d="M82.037,255.472a1.688,1.688,0,0,1-1.1-.419c-.121-.1-.281.049-.206.2a1.423,1.423,0,0,0,2.618,0c.075-.149-.085-.3-.206-.2A1.689,1.689,0,0,1,82.037,255.472Z" transform="translate(-80.463 -253.163)" fill="#fffffd"/></g><g transform="translate(65.971 86.989)"><path d="M131.706,256.04a2.022,2.022,0,1,1-2.022-2.021A2.022,2.022,0,0,1,131.706,256.04Z" transform="translate(-127.662 -254.019)" fill="url(#cq)"/><path d="M129.838,255.149a1.916,1.916,0,0,1,1.117.357.158.158,0,0,0,.227-.208,1.584,1.584,0,0,0-2.688,0,.158.158,0,0,0,.227.208A1.916,1.916,0,0,1,129.838,255.149Z" transform="translate(-127.817 -254.121)" fill="#fffffd"/><path d="M129.758,257.549a2.17,2.17,0,0,1-1.416-.538c-.156-.133-.361.063-.264.255a1.828,1.828,0,0,0,3.361,0c.1-.192-.109-.387-.264-.255A2.17,2.17,0,0,1,129.758,257.549Z" transform="translate(-127.737 -254.584)" fill="#fffffd"/></g><g transform="translate(0 82.246)"><path d="M48.776,249.519a1.368,1.368,0,1,1-1.368-1.368A1.368,1.368,0,0,1,48.776,249.519Z" transform="translate(-46.04 -248.151)" fill="url(#cr)"/><path d="M47.512,248.917a1.3,1.3,0,0,1,.757.241.107.107,0,0,0,.154-.141,1.072,1.072,0,0,0-1.819,0,.107.107,0,0,0,.154.141A1.3,1.3,0,0,1,47.512,248.917Z" transform="translate(-46.145 -248.22)" fill="#fffffd"/><path d="M47.458,250.541a1.472,1.472,0,0,1-.959-.364c-.105-.09-.244.043-.179.172a1.238,1.238,0,0,0,2.275,0c.065-.129-.074-.262-.179-.172A1.468,1.468,0,0,1,47.458,250.541Z" transform="translate(-46.091 -248.534)" fill="#fffffd"/></g><g transform="translate(44.627 0.056)"><path d="M104.665,148.167a1.705,1.705,0,1,1-1.705-1.705A1.705,1.705,0,0,1,104.665,148.167Z" transform="translate(-101.254 -146.462)" fill="url(#cs)"/><path d="M103.09,147.416a1.619,1.619,0,0,1,.942.3.133.133,0,0,0,.192-.176,1.337,1.337,0,0,0-2.268,0,.133.133,0,0,0,.192.176A1.619,1.619,0,0,1,103.09,147.416Z" transform="translate(-101.385 -146.548)" fill="#fffffd"/><path d="M103.023,149.441a1.827,1.827,0,0,1-1.195-.453c-.132-.112-.3.053-.223.215a1.543,1.543,0,0,0,2.836,0c.081-.162-.092-.327-.223-.215A1.831,1.831,0,0,1,103.023,149.441Z" transform="translate(-101.317 -146.939)" fill="#fffffd"/></g><g transform="translate(7.112 77.766)"><path d="M57.527,243.952a1.344,1.344,0,1,1-1.344-1.344A1.344,1.344,0,0,1,57.527,243.952Z" transform="translate(-54.839 -242.608)" fill="url(#ct)"/><path d="M56.286,243.36a1.273,1.273,0,0,1,.743.238.105.105,0,0,0,.151-.139,1.054,1.054,0,0,0-1.788,0,.105.105,0,0,0,.151.139A1.273,1.273,0,0,1,56.286,243.36Z" transform="translate(-54.942 -242.676)" fill="#fffffd"/><path d="M56.233,244.956a1.443,1.443,0,0,1-.942-.358c-.1-.088-.24.042-.176.17a1.216,1.216,0,0,0,2.236,0c.064-.128-.073-.258-.176-.17A1.443,1.443,0,0,1,56.233,244.956Z" transform="translate(-54.889 -242.984)" fill="#fffffd"/></g></g></g><g transform="translate(21.48 64.082)"><path d="M81.52,143.431a18.7,18.7,0,0,0,3.665-.381,11.446,11.446,0,0,1,3.532-.534c-1.149-.179-2.556.953-3.635,1.244C83.4,144.214,83.01,143.934,81.52,143.431Z" transform="translate(-68.184 -140.517)" fill="#99d9f9"/><path d="M91.345,140.926c2.059-1.416,3.527-1.006,5.36.418C94.863,140.618,93.274,140.92,91.345,140.926Z" transform="translate(-70.068 -140.047)" fill="#99d9f9"/><path d="M114.773,143.956c1.819-.192,2.687-1.677,4.754-1.323C118.189,142.449,115.837,145.059,114.773,143.956Z" transform="translate(-74.56 -140.533)" fill="#99d9f9"/><path d="M120.063,143.15c1.1-.246,2-1.283,3.077-1.5a3.874,3.874,0,0,1,3.148.746C124.672,141.625,121.71,143.208,120.063,143.15Z" transform="translate(-75.574 -140.338)" fill="#99d9f9"/><path d="M141.224,144.7c2.112.087,3.793-1.426,5.976-1.426-.987-.042-1.544,1.12-2.41,1.451A5.541,5.541,0,0,1,141.224,144.7Z" transform="translate(-79.632 -140.666)" fill="#99d9f9"/><path d="M149.034,142.745c.791-.209,1.3-.963,2.138-1.125a2.794,2.794,0,0,1,2.413.68C151.925,141.586,150.685,142.971,149.034,142.745Z" transform="translate(-81.13 -140.339)" fill="#99d9f9"/><path d="M73.207,141.258c1.687-.114,3.1.952,4.546,1.634a4.8,4.8,0,0,1-2.532-.487C74.523,142.066,73.978,141.331,73.207,141.258Z" transform="translate(-66.59 -140.278)" fill="#99d9f9"/><path d="M65.02,140.527c1.056-.378,2.63-.757,3.629.006C67.447,140.512,66.1,140.123,65.02,140.527Z" transform="translate(-65.02 -140.055)" fill="#99d9f9"/><path d="M99.784,141.614c1.307-.366,2.274.35,3.352.792a3.672,3.672,0,0,1-1.621-.156C100.979,142.053,100.309,141.269,99.784,141.614Z" transform="translate(-71.686 -140.328)" fill="#99d9f9"/></g></g><g transform="translate(38.398 76.044)"><path d="M95.473,154.931v2.163l-4.5,9.794H87.689l4.361-9.436H88.71v1.669H85.951v-4.19Z" transform="translate(-85.951 -154.862)" fill="#fff"/><path d="M108.238,160.893c0,3.9-1.669,6.064-4.668,6.064-3.032,0-4.684-2.164-4.684-6.064s1.652-6.047,4.684-6.047C106.569,154.846,108.238,156.993,108.238,160.893Zm-6.371,0c0,2.725.494,3.867,1.7,3.867,1.193,0,1.687-1.141,1.687-3.867,0-2.742-.494-3.867-1.687-3.867C102.362,157.027,101.868,158.151,101.868,160.893Z" transform="translate(-88.431 -154.846)" fill="#fff"/><path d="M118.5,158.5c0,2.232-1.295,3.628-3.339,3.628s-3.339-1.4-3.339-3.628c0-2.214,1.295-3.611,3.339-3.611S118.5,156.285,118.5,158.5Zm-4.753,0c0,1.227.529,1.976,1.414,1.976s1.414-.749,1.414-1.976-.528-1.958-1.414-1.958S113.747,157.273,113.747,158.5Zm11.941-3.56-8.5,11.94h-2.844l8.5-11.94Zm2.589,8.381c0,2.232-1.294,3.628-3.338,3.628s-3.339-1.4-3.339-3.628c0-2.215,1.294-3.611,3.339-3.611S128.277,161.106,128.277,163.321Zm-4.752,0c0,1.226.529,1.975,1.414,1.975s1.414-.749,1.414-1.975-.529-1.959-1.414-1.959S123.525,162.094,123.525,163.321Z" transform="translate(-90.912 -154.854)" fill="#fff"/><g transform="translate(2.854 20.434)"><path d="M92.6,180.234v4.871h4.82v-4.871h3.117v11.941H97.42v-4.583H92.6v4.583H89.482V180.234Z" transform="translate(-89.482 -180.148)" fill="#fff"/><path d="M108.571,191.572c0-.356-.272-.563-.751-.563a3.1,3.1,0,0,0-1.823.837l-.647-1.268a4.625,4.625,0,0,1,2.724-1c1.334,0,2.3.7,2.3,1.738a3.55,3.55,0,0,1-1.278,2.2l-1.352,1.352h2.818v1.381h-5.015l-.01-1.137,2.395-2.46A1.961,1.961,0,0,0,108.571,191.572Z" transform="translate(-92.525 -181.941)" fill="#fff"/><path d="M125.587,186.175a6.465,6.465,0,0,1-12.912,0c0-3.475,2.76-6.047,6.456-6.047S125.587,182.718,125.587,186.175Zm-9.71.018a3.369,3.369,0,0,0,3.288,3.44,3.427,3.427,0,1,0-3.288-3.44Z" transform="translate(-93.929 -180.128)" fill="#fff"/></g></g></svg>