<svg xmlns="http://www.w3.org/2000/svg" width="34.531" height="38" viewBox="0 0 34.531 38">
  <g id="invitation" transform="translate(-23.371)">
    <path id="Path_67819" data-name="Path 67819" d="M47.7,321.1a1.531,1.531,0,0,0-1.983,0L29.929,334.517a1.524,1.524,0,0,0,1.044.414H62.442a1.524,1.524,0,0,0,1.044-.414Z" transform="translate(-6.071 -296.93)" fill="#ffdc00"/>
    <path id="Path_67820" data-name="Path 67820" d="M292.519,219.2l14.068,11.957a1.525,1.525,0,0,0,.487-1.118V209.086Z" transform="translate(-249.172 -193.568)" fill="#ffce00"/>
    <path id="Path_67821" data-name="Path 67821" d="M23.858,231.154,37.926,219.2,23.371,209.086v20.951A1.525,1.525,0,0,0,23.858,231.154Z" transform="translate(0 -193.568)" fill="#ffce00"/>
    <path id="Path_67822" data-name="Path 67822" d="M23.95,349.559,38.019,337.6l-.891-.619L23.471,348.589A1.527,1.527,0,0,0,23.95,349.559Z" transform="translate(-0.093 -311.973)" fill="#fbbd00"/>
    <path id="Path_67823" data-name="Path 67823" d="M306.587,349.559,292.519,337.6l.891-.619,13.656,11.606A1.527,1.527,0,0,1,306.587,349.559Z" transform="translate(-249.172 -311.973)" fill="#fbbd00"/>
    <path id="Path_67824" data-name="Path 67824" d="M27.719,159.3v6.716l-4.348-3.021Z" transform="translate(0 -147.475)" fill="#ff7e00"/>
    <path id="Path_67825" data-name="Path 67825" d="M23.371,199.628l4.348,3.021v-1.378l-3.456-2.4Z" transform="translate(0 -184.11)" fill="#ff6700"/>
    <path id="Path_67826" data-name="Path 67826" d="M430.048,159.3v6.716l4.348-3.021Z" transform="translate(-376.494 -147.475)" fill="#ff7e00"/>
    <path id="Path_67827" data-name="Path 67827" d="M430.047,201.271v1.378l4.348-3.021-.892-.758Z" transform="translate(-376.493 -184.11)" fill="#ff6700"/>
    <path id="Path_67828" data-name="Path 67828" d="M92.159,25.63l1.719-1.461a1.531,1.531,0,0,1,1.983,0L97.58,25.63l10.207-7.091V.382A.382.382,0,0,0,107.4,0H82.334a.382.382,0,0,0-.382.382V18.539Z" transform="translate(-54.233)" fill="#fff0c0"/>
    <path id="Path_67829" data-name="Path 67829" d="M97.58,238.307l-1.719-1.461a1.531,1.531,0,0,0-1.983,0l-1.719,1.461-10.207-7.091v1.378l10.207,7.091,1.719-1.461a1.531,1.531,0,0,1,1.983,0l1.719,1.461,10.207-7.091v-1.378Z" transform="translate(-54.233 -214.055)" fill="#ffe394"/>
    <path id="Path_67830" data-name="Path 67830" d="M181.42,77.75l1.266,2.135a1.035,1.035,0,0,0,.663.482l2.422.545a1.035,1.035,0,0,1,.55,1.694l-1.639,1.864a1.035,1.035,0,0,0-.253.78l.23,2.471a1.035,1.035,0,0,1-1.441,1.047l-2.279-.983a1.035,1.035,0,0,0-.82,0l-2.279.983A1.035,1.035,0,0,1,176.4,87.72l.23-2.471a1.035,1.035,0,0,0-.253-.78L174.738,82.6a1.035,1.035,0,0,1,.55-1.694l2.422-.545a1.035,1.035,0,0,0,.663-.482l1.266-2.135A1.035,1.035,0,0,1,181.42,77.75Z" transform="translate(-139.894 -71.51)" fill="#ffdc00"/>
    <g id="Group_7118" data-name="Group 7118" transform="translate(36.502 14.811)">
      <path id="Path_67831" data-name="Path 67831" d="M208.476,200.092a1.036,1.036,0,0,1-1.36.537l-2.279-.983a1.035,1.035,0,0,0-.82,0l-2.279.983a1.036,1.036,0,0,1-1.36-.537l-.081.868a1.035,1.035,0,0,0,1.441,1.047l2.279-.983a1.035,1.035,0,0,1,.82,0l2.279.983a1.035,1.035,0,0,0,1.441-1.047Z" transform="translate(-200.293 -199.561)" fill="#ffbf00"/>
    </g>
  </g>
</svg>
