<svg xmlns="http://www.w3.org/2000/svg" width="14.609" height="14" viewBox="0 0 14.609 14">
  <g id="like" transform="translate(0 -10.667)">
    <g id="Group_339" data-name="Group 339" transform="translate(0 16.754)">
      <g id="Group_338" data-name="Group 338">
        <path id="Path_60333" data-name="Path 60333" d="M1.522,224A1.524,1.524,0,0,0,0,225.522v4.87a1.524,1.524,0,0,0,1.522,1.522H3.348a1.511,1.511,0,0,0,.913-.308V224Z" transform="translate(0 -224)" fill="#fff"/>
      </g>
    </g>
    <g id="Group_341" data-name="Group 341" transform="translate(4.87 10.667)">
      <g id="Group_340" data-name="Group 340" transform="translate(0 0)">
        <path id="Path_60334" data-name="Path 60334" d="M180.406,19.037a1.35,1.35,0,0,0-.4-.958,1.511,1.511,0,0,0,.39-1.162,1.573,1.573,0,0,0-1.587-1.38h-3.76a8.752,8.752,0,0,0,.485-2.435,2.488,2.488,0,0,0-1.826-2.435,1.914,1.914,0,0,0-1.1.371.306.306,0,0,0-.114.238V13.34l-1.753,3.8-.073.037V23.7a3.988,3.988,0,0,0,1.522.36h5.587a1.4,1.4,0,0,0,1.379-1.063,1.37,1.37,0,0,0-.11-.914,1.363,1.363,0,0,0,.609-1.827A1.363,1.363,0,0,0,180.406,19.037Z" transform="translate(-170.667 -10.667)" fill="#fff"/>
      </g>
    </g>
  </g>
</svg>
