<svg xmlns="http://www.w3.org/2000/svg" width="28.574" height="25" viewBox="0 0 28.574 25"><path d="M20.314,4a8.273,8.273,0,0,0-6.027,2.616A8.26,8.26,0,0,0,0,12.26c0,8.224,13.264,16.3,13.84,16.613a.893.893,0,0,0,.92,0c.549-.317,13.814-8.389,13.814-16.613A8.269,8.269,0,0,0,20.314,4ZM14.287,27.055c-2.308-1.473-12.5-8.358-12.5-14.8A6.474,6.474,0,0,1,13.555,8.541a.893.893,0,0,0,1.46,0A6.474,6.474,0,0,1,26.788,12.26C26.788,18.693,16.6,25.578,14.287,27.055Z" transform="translate(0 -4)" fill="#b1b1b1"/></svg>