<svg xmlns="http://www.w3.org/2000/svg" width="14.989" height="15" viewBox="0 0 14.989 15"><g transform="translate(-4 -3.957)"><path d="M22.01,31.065V27.291a1.34,1.34,0,0,1,2.017-1.153l3.206,1.887a1.338,1.338,0,0,1,0,2.307l-3.206,1.887a1.339,1.339,0,0,1-2.017-1.153Zm1.606-3.306V30.6l2.411-1.419Z" transform="translate(-13.189 -16.109)" fill="#fff"/><path d="M16.312,7.181H14.073l1.979-1.817A.8.8,0,0,0,14.966,4.18l-3.268,3h-.54l-2.6-2.388A.8.8,0,0,0,7.472,5.976l1.312,1.2H6.677A2.68,2.68,0,0,0,4,9.857v6.424a2.68,2.68,0,0,0,2.677,2.677h9.636a2.68,2.68,0,0,0,2.677-2.677V9.857a2.68,2.68,0,0,0-2.677-2.677Zm1.071,9.1a1.072,1.072,0,0,1-1.071,1.071H6.677a1.072,1.072,0,0,1-1.071-1.071V9.857A1.072,1.072,0,0,1,6.677,8.787h9.636a1.072,1.072,0,0,1,1.071,1.071Z" transform="translate(0 0)" fill="#fff"/></g></svg>