<svg xmlns="http://www.w3.org/2000/svg" width="13.194" height="18" viewBox="0 0 13.194 18"><g transform="translate(-4.27 0.005)"><path d="M15.664,24.53H6.07a1.8,1.8,0,0,1-1.8-1.8v-6a1.8,1.8,0,0,1,1.8-1.8h9.595a1.8,1.8,0,0,1,1.8,1.8v6A1.8,1.8,0,0,1,15.664,24.53Zm-9.595-8.4a.6.6,0,0,0-.6.6v6a.6.6,0,0,0,.6.6h9.595a.6.6,0,0,0,.6-.6v-6a.6.6,0,0,0-.6-.6Z" transform="translate(0 -6.535)" fill="#a8a8a8"/><path d="M15.532,23.779a.6.6,0,0,1-.6-.6v-1.22a.6.6,0,0,1,1.2,0v1.22a.6.6,0,0,1-.6.6Z" transform="translate(-4.665 -9.372)" fill="#a8a8a8"/><path d="M16.333,7.2a.6.6,0,0,1-.6-.6v-2.4a3,3,0,0,0-6,0v2.4a.6.6,0,1,1-1.2,0v-2.4a4.2,4.2,0,1,1,8.4,0v2.4a.6.6,0,0,1-.6.6Z" transform="translate(-1.866)" fill="#a8a8a8"/></g></svg>