<svg xmlns="http://www.w3.org/2000/svg" width="119.245" height="400" viewBox="0 0 119.245 400"><g transform="translate(-182.231 -109.405)" opacity="0.9"><path d="M299.728,261.459a33.044,33.044,0,0,1-.528-11.6c1.44-10.834-1.4-29.128-2.215-33.977a8.9,8.9,0,0,1,0-2.42c4.037-25.424-14.919-31.586-19.961-32.765a10.065,10.065,0,0,1-2.268-.853l-16.535-9.472A2.769,2.769,0,0,1,257,168.545l-1.03-8.216a3.921,3.921,0,0,1,.528-2.24c2.327-3.654,4.022-5.749,4.86-10.8,1.125-1.182,2.158-3.986,2.585-7.352.583-4.582-.181-8.455-1.708-8.649a1.133,1.133,0,0,0-.7.169c-1.11-9.41-2.777-22.049-19.38-22.049-18.114,0-18.241,12.877-19.37,22.056a1.138,1.138,0,0,0-.712-.176c-1.526.194-2.292,4.066-1.709,8.649.428,3.362,1.461,6.169,2.585,7.349.838,5.055,2.533,7.151,4.86,10.805a3.945,3.945,0,0,1,.531,2.24l-1.032,8.216a2.771,2.771,0,0,1-1.218,1.828l-16.532,9.472a10.144,10.144,0,0,1-2.269.853c-5.037,1.178-24,7.337-19.964,32.764a8.857,8.857,0,0,1,0,2.421c-.813,4.848-3.655,23.142-2.215,33.977a28.333,28.333,0,0,1-1.068,11.345c-1.812,5.328-3.216,14.7.666,28.748l1.935,20.957a14.816,14.816,0,0,0,0,3.382h.014c.043,3.507.162,14.417-.014,16.181-.21,2.106,3.795,5.689,3.795,7.8,0,0,9.484,8.058,11.593,8.771,0,0,1.685-2.448,0-3.923,0,0,.631-1.687-.422-2.53a28.712,28.712,0,0,1-6.9-7.588s.686-4.426,0-6.322l1.223-1.408,1.885,7.308s2.184,3.8,3.754-.209c0,0-.171-5.9-1.436-8.643,0,0,1.065-8.736-3.128-12-.028-.153-.052-.305-.071-.457l-.06-.689a5.208,5.208,0,0,1,.01-.825c.739-5.674,2.653-19.936,4.337-28.36a39.729,39.729,0,0,0,.917-16.045c-.48-3.357-.489-8.6.48-11.844,1.565-5.24,3.648-12.793,4.164-17.449,0,0,7.268,31.214,2.136,40.2-2.034,3.559-3.806,18.358-4.241,38.036-.619,28.083,1.49,66.109,9.481,95.62.884,3.269,1.057,8.579,1.033,11.969,0,.7.031,1.625.1,2.713.445,7.117,2.4,21.839,5.176,36.529.789,4.174,1.292,8.547,2.408,12.647a23.76,23.76,0,0,1,.718,9.008,17.817,17.817,0,0,1-.8,3.722,15.876,15.876,0,0,1-2.065,4.748c-1.281,1.832-1.879,4.174-3.431,5.815-1.816,1.921-4.835,2.5-7.026,3.912-.6.386-2.359,1.426-2.494,2.24V505.7a1.544,1.544,0,0,0,1.027,1.573c.567.1.923-.445.941-1.214a5.815,5.815,0,0,1,1.662-4.125.521.521,0,1,1,.726.747,4.8,4.8,0,0,0-1.344,3.567,1.593,1.593,0,0,0,1.119,1.54c.54.088.867-.464.878-1.232a5.84,5.84,0,0,1,1.66-4.21.521.521,0,1,1,.726.747,4.831,4.831,0,0,0-1.342,3.637,1.592,1.592,0,0,0,1.129,1.526c.537.075.86-.478.867-1.246a5.847,5.847,0,0,1,1.662-4.25.522.522,0,1,1,.726.749,4.823,4.823,0,0,0-1.341,3.655,1.781,1.781,0,0,0,1.545,1.56,1.381,1.381,0,0,0,1.508-1.223,6.6,6.6,0,0,1,3.158-4.821.517.517,0,0,1,.712.194.522.522,0,0,1-.192.712,5.577,5.577,0,0,0-2.628,4.025,1.342,1.342,0,0,0,1.26,1.506c.75.057,1.44.092,2.042.1,0,0,3.751,1.73,8.426-5.447,0,0,7.713-.321,2.862-9.782a11.594,11.594,0,0,1-.513-2.69c-.247-1.6.7-2.244,1.348-3.485.7-1.34-.167-2.61-.58-3.892a7.44,7.44,0,0,1,.014-2.552c0-.042,1.34-35.142,1.34-35.142a214.779,214.779,0,0,0-.318-21.638c-.173-2.239-.406-4.416-.719-6.394-.53-3.348-1.1-8.672-.671-12.037,2.049-16.143,7.21-60.155,5.226-79.506h2.93c-1.984,19.356,3.418,63.371,5.561,79.514.446,3.36-.106,8.681-.662,12.024-.329,1.98-.637,4.16-.834,6.4-.788,10.176-.372,21.638-.372,21.638s1.338,35.1,1.34,35.142a7.476,7.476,0,0,1,.014,2.552c-.411,1.282-1.281,2.552-.58,3.892.648,1.241,1.595,1.883,1.348,3.485a11.666,11.666,0,0,1-.513,2.69c-4.851,9.461,2.862,9.782,2.862,9.782,4.674,7.177,8.426,5.447,8.426,5.447.6-.008,1.292-.043,2.042-.1a1.339,1.339,0,0,0,1.259-1.506,5.575,5.575,0,0,0-2.626-4.025.522.522,0,0,1-.191-.712.515.515,0,0,1,.711-.194,6.6,6.6,0,0,1,3.158,4.821,1.381,1.381,0,0,0,1.508,1.223,1.777,1.777,0,0,0,1.543-1.56,4.822,4.822,0,0,0-1.34-3.655.521.521,0,1,1,.725-.749,5.838,5.838,0,0,1,1.663,4.25c.006.768.33,1.322.866,1.246a1.593,1.593,0,0,0,1.131-1.526,4.831,4.831,0,0,0-1.342-3.637.521.521,0,1,1,.726-.747,5.846,5.846,0,0,1,1.66,4.21c.013.768.339,1.32.878,1.232a1.593,1.593,0,0,0,1.119-1.54,4.8,4.8,0,0,0-1.344-3.567.521.521,0,1,1,.726-.747,5.822,5.822,0,0,1,1.663,4.125c.017.77.372,1.312.94,1.214a1.544,1.544,0,0,0,1.027-1.573v-2.491c-.135-.814-1.895-1.854-2.493-2.24-2.193-1.415-5.212-1.991-7.027-3.912-1.552-1.641-2.15-3.983-3.431-5.815A15.876,15.876,0,0,1,261.7,486.5a17.821,17.821,0,0,1-.8-3.722,23.7,23.7,0,0,1,.719-9.008c1.114-4.1,1.617-8.473,2.406-12.647a342.488,342.488,0,0,0,4.968-36.529c.008-1.083.02-2,0-2.716-.1-3.387-.036-8.695.862-11.964,8.233-30,10.416-67.753,9.82-95.622-.422-19.7-2.232-34.456-4.277-38.036-5.13-8.982,2.136-40.2,2.136-40.2.52,4.656,2.6,12.209,4.167,17.449.969,3.248.827,8.448.311,11.8a37.989,37.989,0,0,0,1.085,16.09c1.684,8.424,3.6,22.687,4.337,28.36a6.873,6.873,0,0,1-.155,2.193c-3.895,3.411-2.884,11.775-2.884,11.775-1.266,2.741-1.437,8.643-1.437,8.643,1.57,4.005,3.755.209,3.755.209l1.885-7.308,1.223,1.408c-.686,1.9,0,6.322,0,6.322a28.712,28.712,0,0,1-6.9,7.588c-1.054.843-.422,2.53-.422,2.53-1.685,1.475,0,3.923,0,3.923,2.109-.714,11.593-8.771,11.593-8.771,0-2.109,4.005-5.692,3.793-7.8-.176-1.763-.057-12.673-.013-16.181h.013a14.812,14.812,0,0,0,0-3.382l1.726-20.957C302.742,276.955,301.332,267.168,299.728,261.459Z" transform="translate(0 0)" fill="#f9cd90"/></g></svg>