<svg xmlns="http://www.w3.org/2000/svg" width="45" height="45" viewBox="0 0 45 45"><path d="M31.172,22.5a1.758,1.758,0,0,1-1.758,1.758H15.586a1.758,1.758,0,1,1,0-3.516H29.414A1.758,1.758,0,0,1,31.172,22.5ZM45,13.041V31.959A12.672,12.672,0,0,1,40.66,41.4a12.223,12.223,0,0,1-8.7,3.6H13.041a12.224,12.224,0,0,1-8.7-3.6A12.671,12.671,0,0,1,0,31.959V13.041A12.673,12.673,0,0,1,4.34,3.6a12.224,12.224,0,0,1,8.7-3.6H31.959a12.224,12.224,0,0,1,8.7,3.6A12.671,12.671,0,0,1,45,13.041Zm-3.516,0a9.287,9.287,0,0,0-3.31-6.951,8.731,8.731,0,0,0-6.215-2.574H13.041A8.731,8.731,0,0,0,6.826,6.09a9.23,9.23,0,0,0-3.31,6.951V31.959a9.287,9.287,0,0,0,3.31,6.951,8.732,8.732,0,0,0,6.215,2.574H31.959a8.731,8.731,0,0,0,6.215-2.574,9.23,9.23,0,0,0,3.31-6.951Z" fill="#fff"/></svg>