<svg xmlns="http://www.w3.org/2000/svg" width="20" height="20" viewBox="0 0 20 20"><path d="M64.02,49.926a7.807,7.807,0,0,0-.948,2.718,11.694,11.694,0,0,1-3.465,6.227,11.7,11.7,0,0,1-6.227,3.465,7.843,7.843,0,0,0-2.722.964l-1.469-1.468L47.72,60.363a7.834,7.834,0,0,0,.964-2.723,13,13,0,0,1,9.692-9.692A7.8,7.8,0,0,0,61.094,47l1.463,1.463Z" transform="translate(-45.856 -45.164)" fill="#ff637b"/><path d="M100.142,85.913a7.807,7.807,0,0,0-.948,2.718A13,13,0,0,1,89.5,98.323a7.843,7.843,0,0,0-2.722.964L85.31,97.819,98.679,84.45Z" transform="translate(-81.978 -81.151)" fill="#e63950"/><path d="M105.956,94.513a8.546,8.546,0,0,0-.34,1.444,11.861,11.861,0,0,1-8.7,8.7,8.353,8.353,0,0,0-1.442.347,3.53,3.53,0,0,0-2.272-2.272,8.338,8.338,0,0,0,.347-1.442,11.861,11.861,0,0,1,8.7-8.7,8.594,8.594,0,0,0,1.445-.341,3.529,3.529,0,0,0,2.262,2.263Z" transform="translate(-89.559 -88.646)" fill="#ff8e8e"/><path d="M140.626,129.021a8.547,8.547,0,0,0-.34,1.444,11.861,11.861,0,0,1-8.7,8.7,8.353,8.353,0,0,0-1.442.347,3.516,3.516,0,0,0-.863-1.409l9.944-9.944A3.5,3.5,0,0,0,140.626,129.021Z" transform="translate(-124.23 -123.154)" fill="#ff637b"/><path d="M4.8,389.415a9,9,0,0,0-1.9,1.45l-.414.414L0,388.793l.414-.414a8.984,8.984,0,0,0,1.45-1.9A2.344,2.344,0,0,1,4.8,389.415Z" transform="translate(0 -371.279)" fill="#fff5f5"/><path d="M35.378,406.287a9,9,0,0,0-1.9,1.45l-.414.414-1.243-1.243L34.8,403.93A2.344,2.344,0,0,1,35.378,406.287Z" transform="translate(-30.577 -388.151)" fill="#efe2dd"/><path d="M392.351,2.486l-.414.414a8.761,8.761,0,0,0-1.421,1.861,2.344,2.344,0,0,1-2.926-2.926A8.719,8.719,0,0,0,389.451.414L389.865,0Z" transform="translate(-372.351)" fill="#fff5f5"/><path d="M409.228,33.063l-.414.414a8.761,8.761,0,0,0-1.421,1.861,2.342,2.342,0,0,1-2.342-.584l2.935-2.935Z" transform="translate(-389.228 -30.577)" fill="#efe2dd"/><path d="M109.475,96.754l-.414-.414-.975.975a9.887,9.887,0,0,1-1.575.366,10.73,10.73,0,0,0-7.711,7.71,9.82,9.82,0,0,1-.366,1.575l-.975.975.414.414.414.414.975-.975a9.848,9.848,0,0,1,1.576-.366,10.73,10.73,0,0,0,7.71-7.711,9.817,9.817,0,0,1,.366-1.575l.975-.975Zm-7.043,4.557a8.5,8.5,0,0,1,4.105-2.448l-6.553,6.553A8.509,8.509,0,0,1,102.432,101.312Zm2.486,2.486a8.5,8.5,0,0,1-4.105,2.448l6.553-6.553A8.508,8.508,0,0,1,104.918,103.8Z" transform="translate(-93.653 -92.577)" fill="#ff637b"/><path d="M119.671,106.95l-11.6,11.6.414.414.975-.975a9.849,9.849,0,0,1,1.576-.366,10.73,10.73,0,0,0,7.71-7.711,9.817,9.817,0,0,1,.366-1.575l.975-.975Zm-4.557,7.043a8.5,8.5,0,0,1-4.105,2.448l6.553-6.553A8.508,8.508,0,0,1,115.113,113.993Z" transform="translate(-103.848 -102.772)" fill="#e63950"/></svg>