<svg xmlns="http://www.w3.org/2000/svg" width="54.826" height="60" viewBox="0 0 54.826 60"><g transform="translate(-22.074)"><path d="M278.4,421.1h-4.74a1.172,1.172,0,0,0,0,2.344h4.74a1.172,1.172,0,0,0,0-2.344Z" transform="translate(-221.073 -371.756)" fill="#fff"/><path d="M231.66,421.831a1.171,1.171,0,1,0-.453,1.436A1.181,1.181,0,0,0,231.66,421.831Z" transform="translate(-183.035 -371.76)" fill="#fff"/><path d="M74.382,18.02l.562-.562a5.574,5.574,0,0,0-7.882-7.882l-1.542,1.542V6.8a4.49,4.49,0,0,0-4.445-4.445H56.59V1.172a1.172,1.172,0,0,0-2.344,0V2.354H48.9V1.172a1.172,1.172,0,0,0-2.344,0V2.354H41.215V1.172a1.172,1.172,0,0,0-2.344,0V2.354H33.527V1.172a1.172,1.172,0,0,0-2.344,0V2.354H26.519A4.45,4.45,0,0,0,22.074,6.8V55.555A4.45,4.45,0,0,0,26.519,60H61.075a4.45,4.45,0,0,0,4.445-4.445V26.883l7.2-7.2.848.847a3.371,3.371,0,0,1,0,4.762l-6.331,6.331A1.172,1.172,0,0,0,68.9,33.277l6.331-6.331a5.718,5.718,0,0,0,0-8.077Zm-18.319,15L51.5,28.457l15-15,4.567,4.568Zm-8.742,7.544a95.259,95.259,0,0,1-8.5,5.132A63.392,63.392,0,0,1,49.847,30.122L54.4,34.674a63.341,63.341,0,0,1-7.077,5.894ZM71,10.287a3.208,3.208,0,0,1,2.284.946,3.26,3.26,0,0,1,0,4.568l-.562.563L68.158,11.8l.563-.562A3.209,3.209,0,0,1,71,10.287ZM24.418,6.8a2.1,2.1,0,0,1,2.1-2.1h4.664V6.036a1.172,1.172,0,1,0,2.344,0V4.7h5.344V6.036a1.172,1.172,0,1,0,2.344,0V4.7h5.344V6.036a1.172,1.172,0,0,0,2.344,0V4.7h5.344V6.036a1.172,1.172,0,0,0,2.344,0V4.7h4.486a2.124,2.124,0,0,1,2.1,2.1v5.848H24.418ZM63.177,55.555a2.1,2.1,0,0,1-2.1,2.1H26.519a2.1,2.1,0,0,1-2.1-2.1V14.991H61.647l-7.465,7.465H30.438a1.172,1.172,0,1,0,0,2.344h21.4L49.01,27.628h0Q47.177,29.462,45.5,31.42H30.438a1.172,1.172,0,1,0,0,2.344H43.591a65.291,65.291,0,0,0-4.527,6.62H30.438a1.172,1.172,0,1,0,0,2.344h7.29q-1.256,2.314-2.332,4.739l-1.888,1.881H30.438a1.172,1.172,0,0,0,0,2.344H42.36a1.172,1.172,0,0,0,0-2.344H36.829l.223-.222a65.667,65.667,0,0,0,11.28-6.4h9a1.172,1.172,0,0,0,0-2.344H51.448a66.031,66.031,0,0,0,5.445-4.874l6.284-6.284Z" transform="translate(0)" fill="#fff"/></g></svg>