<svg width="26" height="25" viewBox="0 0 26 25" fill="none" xmlns="http://www.w3.org/2000/svg">
<g clip-path="url(#clip0_64_6551)">
<path d="M21.7328 17.6432L21.7325 17.6428L19.7887 15.3822C19.61 15.1458 19.5056 14.88 19.5056 14.583V9.91359C19.5056 6.98002 17.4461 4.3754 14.4695 3.55131V1.79594C14.4695 0.728134 13.5401 -0.1 12.4618 -0.1C11.3823 -0.1 10.4542 0.765306 10.4542 1.79594V3.516C7.441 4.37455 5.37989 6.97881 5.41807 9.91424V14.583C5.41807 14.88 5.31372 15.1458 5.135 15.3822L3.19124 17.6428L3.19086 17.6432C3.02633 17.8368 2.9 18.1104 2.9 18.3904V21.228V21.328H3H9.19518V21.4076C9.19518 23.0848 10.6574 24.4529 12.4237 24.4529C14.19 24.4529 15.6522 23.0848 15.6522 21.4076V21.328H22H22.1V21.228V18.3904V18.3756L22.0957 18.3614C22.0173 18.1031 21.8978 17.8373 21.7328 17.6432ZM10.5398 21.4076V21.328H14.3076V21.4076C14.3076 22.3884 13.4807 23.1754 12.4237 23.1754C11.3667 23.1754 10.5398 22.3884 10.5398 21.4076ZM11.7225 1.89594H11.7606V1.79594C11.7606 1.46166 12.0535 1.17756 12.4237 1.17756C12.7939 1.17756 13.0867 1.46166 13.0867 1.79594V3.29893C12.6239 3.2449 12.1853 3.2449 11.7225 3.29893V1.89594ZM11.6606 5.53925H11.5606V5.63925V6.71681V6.81681H11.6606C13.9385 6.81681 15.7956 8.57358 15.7956 10.7038V10.8038H15.8956H17.0402H17.1402V10.7038C17.1402 7.84131 14.686 5.53925 11.6606 5.53925ZM4.16827 20.0145V18.4275L6.08894 16.1938C6.0891 16.1936 6.08927 16.1934 6.08943 16.1933C6.48785 15.7429 6.68635 15.1803 6.68635 14.583V9.91359C6.68635 6.95682 9.23062 4.51801 12.4237 4.51801C15.6172 4.51801 18.161 6.92132 18.161 9.91359V14.583C18.161 15.1803 18.3595 15.7429 18.758 16.1932C18.7581 16.1934 18.7583 16.1936 18.7585 16.1938L20.6791 18.4275V20.0145H4.16827Z" fill="#B1B1B1" stroke="#B1B1B1" stroke-width="0.2"/>
</g>
<defs>
<clipPath id="clip0_64_6551">
<rect width="25.484" height="25" fill="white"/>
</clipPath>
</defs>
</svg>
