<svg xmlns="http://www.w3.org/2000/svg" width="54.61" height="60" viewBox="0 0 54.61 60"><g transform="translate(0 0)"><path d="M55.489,277.1a7.654,7.654,0,1,0,9.2-5.7,7.665,7.665,0,0,0-9.2,5.7Zm2.282.536a5.31,5.31,0,1,1,7.966,5.729,5.312,5.312,0,0,1-7.966-5.729Zm0,0" transform="translate(-48.807 -239.41)" fill="#fff"/><path d="M65.547,120.884h26.6a1.173,1.173,0,0,0,0-2.345h-26.6a1.173,1.173,0,0,0,0,2.345Zm0,0" transform="translate(-56.831 -104.648)" fill="#fff"/><path d="M65.547,173.067H87a1.172,1.172,0,1,0,0-2.345H65.547a1.172,1.172,0,1,0,0,2.345Zm0,0" transform="translate(-56.831 -150.716)" fill="#fff"/><path d="M92.786,317.4a1.171,1.171,0,0,0,.8.318h.046a1.171,1.171,0,0,0,.821-.383l3.1-3.408a1.172,1.172,0,0,0-1.735-1.577l-2.3,2.526-.656-.616a1.172,1.172,0,1,0-1.605,1.709Zm0,0" transform="translate(-80.241 -275.41)" fill="#fff"/><path d="M65.547,225.251H83.663a1.172,1.172,0,1,0,0-2.345H65.547a1.172,1.172,0,1,0,0,2.345Zm0,0" transform="translate(-56.831 -196.784)" fill="#fff"/><path d="M54.529,43.26a14.246,14.246,0,0,0-3.385-8.411,9.151,9.151,0,0,0-3.811-2.491A12.348,12.348,0,0,0,50.5,25.25,1.173,1.173,0,0,0,49.4,23.9,10.99,10.99,0,0,0,42.46,25.57V7.853a5.391,5.391,0,0,0-5.386-5.385H31.649V2.146A2.148,2.148,0,0,0,29.5,0H12.953a2.148,2.148,0,0,0-2.145,2.146v.322H5.386A5.391,5.391,0,0,0,0,7.853V25.106a1.172,1.172,0,1,0,2.345,0V7.853a3.044,3.044,0,0,1,3.041-3.04h5.422v.522A2.148,2.148,0,0,0,12.953,7.48H29.5a2.148,2.148,0,0,0,2.145-2.146V4.813h5.425a3.044,3.044,0,0,1,3.041,3.04V28.039a9.575,9.575,0,0,0-.679,1.3c-1.171-1.49-3.108-2.509-6.034-2.367a1.173,1.173,0,0,0-1.1,1.344,9.649,9.649,0,0,0,1.25,3.676c-.1.018-.21.037-.313.058a9.118,9.118,0,0,0-4.954,2.8A14.244,14.244,0,0,0,24.9,43.26a19.849,19.849,0,0,0,.92,8.008H5.386a3.046,3.046,0,0,1-3.041-3.043V34.466a1.172,1.172,0,1,0-2.345,0V48.225a5.393,5.393,0,0,0,5.386,5.388H26.8C28.888,57.686,32.356,60,36.437,60h6.551c4.378,0,8.049-2.661,10.074-7.3a19.567,19.567,0,0,0,1.467-9.439ZM29.3,5.136H13.152V2.345H29.3Zm18.621,21.11c-.651,2.8-1.922,4.635-3.855,5.6a13.327,13.327,0,0,0-3.057.385,7.478,7.478,0,0,1,1.962-4.053,7.291,7.291,0,0,1,4.95-1.934ZM37.3,30.463a4.158,4.158,0,0,1,1,1.746,14.313,14.313,0,0,0-1.68-.289,4.533,4.533,0,0,1-1.7-2.552,4.062,4.062,0,0,1,2.378,1.1Zm13.61,21.3c-.96,2.2-3.267,5.894-7.925,5.894H36.437c-4.5,0-6.808-3.452-7.825-5.67l-.006-.013c-.033-.071-.064-.142-.094-.211C26.23,46.53,26.884,39.8,30,36.443A6.994,6.994,0,0,1,35.329,34.2a12.162,12.162,0,0,1,3.994.749,1.192,1.192,0,0,0,.778,0c3.918-1.371,7.142-.853,9.323,1.5C52.541,39.8,53.2,46.53,50.913,51.761Zm0,0" transform="translate(0)" fill="#fff"/><path d="M1.172,246.337a1.172,1.172,0,0,0,1.172-1.172v-.023a1.172,1.172,0,1,0-2.345,0v.023A1.173,1.173,0,0,0,1.172,246.337Zm0,0" transform="translate(0 -215.379)" fill="#fff"/></g></svg>