<svg xmlns="http://www.w3.org/2000/svg" width="15.882" height="18" viewBox="0 0 15.882 18">
  <g id="other" transform="translate(-30.124)">
    <path id="Path_59737" data-name="Path 59737" d="M334.021,185.769a3.16,3.16,0,0,1-2.216-.906,2.629,2.629,0,0,0-.429,1.442v3.177a.527.527,0,0,0,.527.527h.532v3.709a.527.527,0,0,0,.527.527h2.118a.527.527,0,0,0,.527-.527v-3.709h.532a.527.527,0,0,0,.527-.527V186.3a2.629,2.629,0,0,0-.429-1.442A3.16,3.16,0,0,1,334.021,185.769Z" transform="translate(-290.66 -178.364)" fill="#fff"/>
    <circle id="Ellipse_414" data-name="Ellipse 414" cx="2.116" cy="2.116" r="2.116" transform="translate(41.245 2.118)" fill="#fff"/>
    <path id="Path_59738" data-name="Path 59738" d="M30.905,184.863a2.629,2.629,0,0,0-.429,1.442v2.081l-.346,2.433a.527.527,0,0,0,.522.6h.883v2.3a.527.527,0,0,0,.527.527h2.118a.527.527,0,0,0,.527-.527v-2.3h.883a.527.527,0,0,0,.522-.6l-.346-2.433V186.3a2.629,2.629,0,0,0-.429-1.442,3.165,3.165,0,0,1-4.433,0Z" transform="translate(0 -178.364)" fill="#fff"/>
    <circle id="Ellipse_415" data-name="Ellipse 415" cx="2.116" cy="2.116" r="2.116" transform="translate(31.006 2.118)" fill="#fff"/>
    <path id="Path_59739" data-name="Path 59739" d="M246.527,0A.527.527,0,0,0,246,.527V17.473a.527.527,0,0,0,1.055,0V.527A.527.527,0,0,0,246.527,0Z" transform="translate(-208.286)" fill="#fff"/>
  </g>
</svg>
