<svg xmlns="http://www.w3.org/2000/svg" width="174.234" height="50" viewBox="0 0 174.234 50"><g transform="translate(-1.336 -1.335)"><path d="M184.915,55.668A5.012,5.012,0,0,1,179.9,60.68H15.7a5.018,5.018,0,0,1-5.024-5.012V15.7A5.025,5.025,0,0,1,15.7,10.68H179.9a5.018,5.018,0,0,1,5.017,5.019V55.668Z" transform="translate(-9.346 -9.345)"/><path d="M176.191,92.358a7.586,7.586,0,0,1,3.613-6.365,7.77,7.77,0,0,0-6.119-3.308c-2.574-.271-5.071,1.54-6.382,1.54-1.337,0-3.357-1.514-5.533-1.47a8.147,8.147,0,0,0-6.857,4.182c-2.965,5.134-.754,12.678,2.087,16.828,1.421,2.034,3.082,4.3,5.255,4.222,2.127-.086,2.921-1.354,5.487-1.354,2.543,0,3.289,1.354,5.505,1.3,2.282-.035,3.719-2.041,5.091-4.092a16.779,16.779,0,0,0,2.328-4.741A7.339,7.339,0,0,1,176.191,92.358ZM172,79.955a7.467,7.467,0,0,0,1.709-5.351,7.606,7.606,0,0,0-4.918,2.544,7.106,7.106,0,0,0-1.754,5.153A6.282,6.282,0,0,0,172,79.955Z" transform="translate(-136.594 -66.298)" fill="#fff"/><g transform="translate(55.696 23.725)"><path d="M523.862,233.663h-2.972l-1.628-5.115H513.6l-1.551,5.115H509.16l5.607-17.415h3.463Zm-5.09-7.262-1.472-4.547q-.234-.7-.878-3.281h-.052q-.259,1.111-.827,3.281l-1.447,4.547Zm19.483.828a7.111,7.111,0,0,1-1.741,5.063,5.1,5.1,0,0,1-3.871,1.654,3.875,3.875,0,0,1-3.586-1.781v6.589h-2.79V225.233q0-2.012-.1-4.127h2.454l.156,1.99h.052a4.963,4.963,0,0,1,7.945-.493A6.945,6.945,0,0,1,538.255,227.23Zm-2.842.1a5.177,5.177,0,0,0-.827-3.024,2.858,2.858,0,0,0-2.429-1.239,2.9,2.9,0,0,0-1.873.684,3.174,3.174,0,0,0-1.1,1.8,3.643,3.643,0,0,0-.13.849v2.1a3.36,3.36,0,0,0,.84,2.314,2.789,2.789,0,0,0,2.183.943,2.859,2.859,0,0,0,2.454-1.214A5.345,5.345,0,0,0,535.412,227.332Zm17.286-.1a7.111,7.111,0,0,1-1.74,5.063,5.106,5.106,0,0,1-3.872,1.654,3.875,3.875,0,0,1-3.586-1.781v6.589h-2.79V225.233q0-2.012-.1-4.127h2.454l.156,1.99h.052a4.965,4.965,0,0,1,7.946-.493A6.951,6.951,0,0,1,552.7,227.23Zm-2.844.1a5.176,5.176,0,0,0-.828-3.024,2.854,2.854,0,0,0-2.426-1.239,2.913,2.913,0,0,0-1.875.684,3.173,3.173,0,0,0-1.1,1.8,3.727,3.727,0,0,0-.131.849v2.1a3.371,3.371,0,0,0,.839,2.314,2.8,2.8,0,0,0,2.185.943,2.856,2.856,0,0,0,2.454-1.214A5.344,5.344,0,0,0,549.854,227.332Zm18.992,1.446A4.652,4.652,0,0,1,567.3,232.4a6.862,6.862,0,0,1-4.744,1.525,8.28,8.28,0,0,1-4.51-1.085l.645-2.325a7.762,7.762,0,0,0,4.031,1.086,3.8,3.8,0,0,0,2.454-.711,2.322,2.322,0,0,0,.881-1.9,2.432,2.432,0,0,0-.725-1.784,6.721,6.721,0,0,0-2.4-1.343q-4.574-1.706-4.575-4.988a4.4,4.4,0,0,1,1.615-3.514,6.385,6.385,0,0,1,4.277-1.37,8.451,8.451,0,0,1,3.953.827l-.7,2.274a6.912,6.912,0,0,0-3.346-.8,3.4,3.4,0,0,0-2.308.724,2.071,2.071,0,0,0-.7,1.578,2.133,2.133,0,0,0,.8,1.705,9.038,9.038,0,0,0,2.531,1.343,8.581,8.581,0,0,1,3.307,2.117A4.412,4.412,0,0,1,568.846,228.778ZM578.1,223.2H575.02v6.1q0,2.326,1.628,2.324a4.906,4.906,0,0,0,1.239-.13l.077,2.119a6.318,6.318,0,0,1-2.17.309,3.344,3.344,0,0,1-2.585-1.009,4.948,4.948,0,0,1-.93-3.385v-6.33h-1.832V221.1h1.832v-2.3l2.74-.827V221.1H578.1Zm13.847,4.082a6.889,6.889,0,0,1-1.654,4.754,5.9,5.9,0,0,1-4.6,1.912,5.621,5.621,0,0,1-4.406-1.832,6.68,6.68,0,0,1-1.641-4.625,6.833,6.833,0,0,1,1.692-4.779,5.866,5.866,0,0,1,4.562-1.861,5.738,5.738,0,0,1,4.443,1.835,6.592,6.592,0,0,1,1.6,4.6Zm-2.892.064a5.623,5.623,0,0,0-.747-2.963,2.762,2.762,0,0,0-2.507-1.5,2.8,2.8,0,0,0-2.558,1.5,5.716,5.716,0,0,0-.749,3.015,5.607,5.607,0,0,0,.749,2.964,2.861,2.861,0,0,0,5.042-.025A5.645,5.645,0,0,0,589.051,227.345Zm11.964-3.786a4.844,4.844,0,0,0-.879-.077,2.633,2.633,0,0,0-2.274,1.112,4.191,4.191,0,0,0-.7,2.48v6.589h-2.79v-8.6q0-2.169-.081-3.953h2.43l.1,2.4h.077a4.309,4.309,0,0,1,1.4-1.99,3.374,3.374,0,0,1,2.017-.673,4.465,4.465,0,0,1,.7.051Zm12.479,3.231a6.545,6.545,0,0,1-.1,1.265h-8.37a3.642,3.642,0,0,0,1.214,2.845,4.152,4.152,0,0,0,2.738.877,9.259,9.259,0,0,0,3.387-.593l.437,1.935a10.47,10.47,0,0,1-4.21.776A6.1,6.1,0,0,1,604,232.179a6.348,6.348,0,0,1-1.666-4.612,7.193,7.193,0,0,1,1.552-4.727,5.347,5.347,0,0,1,4.391-2.014,4.679,4.679,0,0,1,4.11,2.014A6.778,6.778,0,0,1,613.494,226.79Zm-2.661-.724a3.776,3.776,0,0,0-.542-2.145,2.436,2.436,0,0,0-2.222-1.165,2.645,2.645,0,0,0-2.221,1.137,4.167,4.167,0,0,0-.826,2.17Z" transform="translate(-509.16 -215.99)" fill="#fff"/></g><g transform="translate(56.735 8.746)"><path d="M525.916,87.639h-1.462l-.8-2.514h-2.781l-.763,2.514h-1.422l2.756-8.56h1.7Zm-2.5-3.569-.724-2.235c-.076-.229-.216-.762-.432-1.612h-.026c-.089.368-.216.9-.407,1.612l-.711,2.235Zm9.393-2.6-2.337,6.171h-1.334l-2.261-6.171h1.474l1.055,3.264c.178.546.33,1.067.444,1.561h.038c.1-.444.254-.964.444-1.561l1.042-3.264Zm4.975,6.171-.1-.711h-.038a2.1,2.1,0,0,1-1.8.851,1.8,1.8,0,0,1-1.892-1.816c0-1.523,1.32-2.311,3.607-2.311v-.114c0-.813-.432-1.22-1.282-1.22a2.881,2.881,0,0,0-1.612.458l-.279-.9a3.951,3.951,0,0,1,2.121-.534c1.612,0,2.426.851,2.426,2.553v2.273a9.176,9.176,0,0,0,.089,1.474Zm-.191-3.074c-1.524,0-2.286.369-2.286,1.245a.874.874,0,0,0,.94.964,1.313,1.313,0,0,0,1.347-1.256Zm4.39-4.114a.82.82,0,1,1,.864-.826A.806.806,0,0,1,541.982,80.451Zm.712,7.188h-1.371V81.468h1.371Zm3.808,0H545.13v-9H546.5Zm5.829,0-.1-.711h-.038a2.1,2.1,0,0,1-1.8.851,1.8,1.8,0,0,1-1.892-1.816c0-1.523,1.32-2.311,3.606-2.311v-.114c0-.813-.432-1.22-1.282-1.22a2.882,2.882,0,0,0-1.612.458l-.28-.9a3.951,3.951,0,0,1,2.121-.534c1.612,0,2.426.851,2.426,2.553v2.273a9.51,9.51,0,0,0,.088,1.474H552.33Zm-.191-3.074c-1.525,0-2.286.369-2.286,1.245a.874.874,0,0,0,.94.964,1.313,1.313,0,0,0,1.347-1.256Zm6.891,3.214a2.1,2.1,0,0,1-1.941-1.093h-.027l-.079.953h-1.169c.038-.495.051-1.055.051-1.663v-7.34h1.373v3.735h.026a2.117,2.117,0,0,1,1.968-1.029c1.487,0,2.528,1.271,2.528,3.124,0,1.916-1.157,3.313-2.731,3.313Zm-.279-5.36a1.578,1.578,0,0,0-1.511,1.638v1.08a1.512,1.512,0,0,0,1.488,1.549c1.027,0,1.638-.838,1.638-2.171,0-1.245-.637-2.1-1.615-2.1Zm6.408,5.22h-1.37v-9h1.37Zm7.465-2.756h-4.117a1.771,1.771,0,0,0,1.943,1.828,4.629,4.629,0,0,0,1.663-.292l.213.953a5.146,5.146,0,0,1-2.069.381,2.865,2.865,0,0,1-3.074-3.111,3.014,3.014,0,0,1,2.92-3.315c1.574,0,2.566,1.169,2.566,2.934A2.589,2.589,0,0,1,572.625,84.883Zm-1.258-.978c0-.953-.483-1.625-1.36-1.625a1.629,1.629,0,0,0-1.5,1.625Zm9.571,3.874a2.937,2.937,0,0,1-2.972-3.175,3.006,3.006,0,0,1,3.075-3.264,2.915,2.915,0,0,1,2.972,3.163A3.025,3.025,0,0,1,580.938,87.779Zm.052-5.436c-.991,0-1.625.927-1.625,2.222,0,1.271.648,2.2,1.612,2.2s1.611-.991,1.611-2.223C582.59,83.283,581.955,82.343,580.991,82.343Zm10.395,5.3h-1.37V84.1c0-1.091-.419-1.638-1.245-1.638a1.425,1.425,0,0,0-1.373,1.511v3.671h-1.37V83.232c0-.546-.014-1.131-.051-1.765h1.207l.064.953h.038a2.214,2.214,0,0,1,1.955-1.08c1.294,0,2.145.991,2.145,2.6v3.7ZM600.36,82.5h-1.509v3q0,1.144.8,1.144a2.714,2.714,0,0,0,.61-.064l.038,1.042a3.055,3.055,0,0,1-1.065.153c-1.081,0-1.726-.6-1.726-2.159V82.5h-.9V81.468h.9V80.337l1.345-.407v1.536h1.509Zm7.263,5.143H606.25V84.122c0-1.1-.419-1.663-1.244-1.663a1.343,1.343,0,0,0-1.37,1.46v3.72h-1.373v-9h1.373v3.707h.026a2.077,2.077,0,0,1,1.854-1c1.307,0,2.107,1.015,2.107,2.629Zm7.008-2.756h-4.116a1.77,1.77,0,0,0,1.942,1.828,4.624,4.624,0,0,0,1.663-.292l.215.953a5.152,5.152,0,0,1-2.07.381,2.865,2.865,0,0,1-3.074-3.111,3.014,3.014,0,0,1,2.92-3.315c1.574,0,2.566,1.169,2.566,2.934A2.675,2.675,0,0,1,614.63,84.883Zm-1.258-.978c0-.953-.482-1.625-1.358-1.625a1.627,1.627,0,0,0-1.5,1.625Z" transform="translate(-518.688 -78.636)" fill="#fff"/></g></g></svg>