<svg xmlns="http://www.w3.org/2000/svg" width="45" height="45" viewBox="0 0 45 45"><path d="M31.172,22.5a1.758,1.758,0,0,1-1.758,1.758H24.258v5.156a1.758,1.758,0,0,1-3.516,0V24.258H15.586a1.758,1.758,0,0,1,0-3.516h5.156V15.586a1.758,1.758,0,0,1,3.516,0v5.156h5.156A1.758,1.758,0,0,1,31.172,22.5ZM45,13.041V31.959a12.224,12.224,0,0,1-3.6,8.7A12.672,12.672,0,0,1,31.959,45H13.041A12.673,12.673,0,0,1,3.6,40.66a12.224,12.224,0,0,1-3.6-8.7V13.041a12.224,12.224,0,0,1,3.6-8.7A12.672,12.672,0,0,1,13.041,0H31.959A12.673,12.673,0,0,1,41.4,4.34a12.224,12.224,0,0,1,3.6,8.7Zm-3.516,0A8.731,8.731,0,0,0,38.91,6.826a9.23,9.23,0,0,0-6.951-3.31H13.041A9.288,9.288,0,0,0,6.09,6.826a8.731,8.731,0,0,0-2.574,6.215V31.959A8.731,8.731,0,0,0,6.09,38.174a9.23,9.23,0,0,0,6.951,3.31H31.959a9.288,9.288,0,0,0,6.951-3.31,8.731,8.731,0,0,0,2.574-6.215Z" fill="#fff"/></svg>