<svg xmlns="http://www.w3.org/2000/svg" width="50" height="50" viewBox="0 0 50 50"><circle cx="25" cy="25" r="25" fill="#393939"/><g transform="translate(16.061 18)"><path d="M157.088,238.42H143.67a1.21,1.21,0,0,1,0-2.42h13.418a1.21,1.21,0,0,1,0,2.42Z" transform="translate(-140.359 -230.21)" fill="#fff"/><path d="M114.352,154.3a1.206,1.206,0,0,1-.857-.354l-5.142-5.143a2.129,2.129,0,0,1,0-3.006l5.142-5.143a1.21,1.21,0,0,1,1.711,1.712l-4.933,4.934,4.934,4.934a1.21,1.21,0,0,1-.855,2.066Z" transform="translate(-107.732 -140.304)" fill="#fff"/></g></svg>