<svg xmlns="http://www.w3.org/2000/svg" width="50.308" height="60" viewBox="0 0 50.308 60"><g transform="translate(-7.8)"><path d="M46.485,18.337a7.566,7.566,0,0,0-2.44.4,8.541,8.541,0,0,0-13.055,0,7.566,7.566,0,0,0-2.44-.4,7.453,7.453,0,0,0-1.978,14.637V43.458a1.6,1.6,0,0,0,.725,1.319,22.831,22.831,0,0,0,10.484,2.571,22.1,22.1,0,0,0,10.286-2.571,1.583,1.583,0,0,0,.791-1.319V32.909A7.464,7.464,0,0,0,54,25.788,7.586,7.586,0,0,0,46.485,18.337Zm2.242,11.407a1.482,1.482,0,0,0-2.9.462V42.6a19.372,19.372,0,0,1-16.352,0V33.238a7.648,7.648,0,0,0,3.1-1.121,1.482,1.482,0,1,0-1.582-2.505,4.588,4.588,0,0,1-2.44.725,4.487,4.487,0,1,1,.923-8.835,8.309,8.309,0,0,0-.527,2.835,1.534,1.534,0,0,0,1.516,1.516,1.492,1.492,0,0,0,1.516-1.516,5.538,5.538,0,1,1,11.077,0,5.469,5.469,0,0,1-2.044,4.286,1.478,1.478,0,0,0-.2,2.11A1.544,1.544,0,0,0,42,31.26a1.575,1.575,0,0,0,.923-.33,8.578,8.578,0,0,0,3.165-6.593,8.023,8.023,0,0,0-.527-2.835,4.338,4.338,0,0,1,5.407,4.352,4.572,4.572,0,0,1-2.242,3.89Z" transform="translate(-4.531 -5.348)" fill="#fff"/><path d="M52.569,0H9.251A1.479,1.479,0,0,0,7.8,1.516V53.67A6.331,6.331,0,0,0,14.13,60H53.295a1.516,1.516,0,1,0,0-3.033H14.064a3.3,3.3,0,1,1,0-6.593H56.525a1.534,1.534,0,0,0,1.516-1.516S58.108,6,58.108,5.67c0-2.242-.659-5.67-5.538-5.67Zm2.505,47.407H14.064a6.2,6.2,0,0,0-3.3.923V2.967h41.8a2.708,2.708,0,0,1,2.11.725,2.523,2.523,0,0,1,.462,1.648c0,.264-.066,42.066-.066,42.066Z" transform="translate(0)" fill="#fff"/><path d="M59.544,80.516A1.534,1.534,0,0,0,58.027,79H17.016A1.492,1.492,0,0,0,15.5,80.516a1.534,1.534,0,0,0,1.516,1.516H58.027A1.492,1.492,0,0,0,59.544,80.516Z" transform="translate(-2.623 -26.912)" fill="#fff"/></g></svg>