<svg xmlns="http://www.w3.org/2000/svg" width="17.939" height="14" viewBox="0 0 17.939 14"><g transform="translate(0 0)"><path d="M143.67,238.42h13.418a1.21,1.21,0,0,0,0-2.42H143.67a1.21,1.21,0,0,0,0,2.42Z" transform="translate(-142.46 -230.21)" fill="#212121"/><path d="M108.942,154.3a1.206,1.206,0,0,0,.857-.354l5.142-5.143a2.129,2.129,0,0,0,0-3.006l-5.142-5.143a1.21,1.21,0,0,0-1.711,1.712l4.933,4.934-4.934,4.934a1.21,1.21,0,0,0,.855,2.066Z" transform="translate(-97.623 -140.304)" fill="#212121"/></g></svg>