<svg xmlns="http://www.w3.org/2000/svg" width="15.377" height="12" viewBox="0 0 15.377 12"><g transform="translate(0 0)"><path d="M143.5,238.074H155A1.037,1.037,0,0,0,155,236H143.5a1.037,1.037,0,0,0,0,2.074Z" transform="translate(-142.46 -231.037)" fill="#fff"/><path d="M108.769,152.3a1.033,1.033,0,0,0,.734-.3l4.408-4.408a1.825,1.825,0,0,0,0-2.576l-4.408-4.408a1.037,1.037,0,0,0-1.467,1.467l4.228,4.229-4.229,4.229a1.037,1.037,0,0,0,.733,1.771Z" transform="translate(-99.067 -140.304)" fill="#fff"/></g></svg>