<svg xmlns="http://www.w3.org/2000/svg" width="12.566" height="16.514" viewBox="0 0 12.566 16.514">
  <path id="Path_67835" data-name="Path 67835" d="M.032-22.825q.6-.881.913-1.327l.308-.446H12.523q-.573.86-.854,1.289l-.281.43H8.437a2.911,2.911,0,0,1,.8,1.486h3.332q-.594.891-.886,1.332l-.292.44q-1.072.021-1.608.021H9.244q-.021.4-.032.552l-.016.191-.005.064a2.3,2.3,0,0,1-.913,1.56,6.71,6.71,0,0,1-1.093.626,13.269,13.269,0,0,1-1.6.594q-.727.212-1.9.435,3.269,3.757,4.9,5.625L10.22-8.084H7.058Q3.906-11.65,2.324-13.443L.743-15.237v-1.719a8.327,8.327,0,0,0,4.213-.393,2.7,2.7,0,0,0,1.815-2.229q-3.385-.032-5.078-.042L0-19.63q.594-.87.9-1.311l.3-.44q2.611.021,3.927.021H6.442q0-.159-.308-.467a3.1,3.1,0,0,0-.616-.488A6.209,6.209,0,0,0,3.5-22.825H.032Z" transform="translate(0 24.597)" fill="#fff"/>
</svg>
