<svg xmlns="http://www.w3.org/2000/svg" width="13.297" height="17.475" viewBox="0 0 13.297 17.475">
  <path id="Path_71262" data-name="Path 71262" d="M-11.466-20.754q.64-.932.966-1.4l.326-.472H1.752q-.606.91-.9,1.365l-.3.455H-2.572a3.08,3.08,0,0,1,.842,1.572H1.8q-.629.943-.938,1.409l-.309.466q-1.134.022-1.7.022h-.567q-.022.427-.034.584l-.017.2-.006.067a2.432,2.432,0,0,1-.966,1.651,7.1,7.1,0,0,1-1.157.663,14.044,14.044,0,0,1-1.69.629q-.769.225-2.016.46,3.459,3.976,5.188,5.952L-.685-5.155H-4.032q-3.335-3.773-5.009-5.671l-1.673-1.9v-1.819a8.812,8.812,0,0,0,4.458-.416,2.862,2.862,0,0,0,1.92-2.358q-3.583-.034-5.374-.045l-1.791-.011q.629-.921.949-1.387l.32-.466q2.763.022,4.155.022h1.393q0-.168-.326-.494a3.278,3.278,0,0,0-.651-.517,6.57,6.57,0,0,0-2.134-.539h-3.672Z" transform="translate(11.5 22.629)" fill="#46b9ff"/>
</svg>
