<svg xmlns="http://www.w3.org/2000/svg" width="9.892" height="13" viewBox="0 0 9.892 13"><path d="M.025-23.2l.719-1.044L.986-24.6H9.859q-.451.677-.673,1.015l-.221.338H6.642a2.292,2.292,0,0,1,.627,1.17H9.892l-.7,1.049-.23.347q-.844.017-1.266.017H7.277q-.017.317-.025.434l-.013.15,0,.05A1.809,1.809,0,0,1,6.517-18.8a5.282,5.282,0,0,1-.861.493,10.446,10.446,0,0,1-1.257.468q-.572.167-1.5.343,2.573,2.958,3.86,4.428L8.046-11.6H5.556Q3.075-14.4,1.83-15.816L.585-17.228v-1.353A6.556,6.556,0,0,0,3.9-18.891,2.129,2.129,0,0,0,5.33-20.645q-2.665-.025-4-.033L0-20.687l.706-1.032.238-.347q2.055.017,3.091.017H5.071q0-.125-.242-.368a2.439,2.439,0,0,0-.485-.384,4.888,4.888,0,0,0-1.587-.4H.025Z" transform="translate(0 24.597)" fill="#212121"/></svg>