<svg xmlns="http://www.w3.org/2000/svg" width="16.14" height="14" viewBox="0 0 16.14 14">
  <g id="shares" transform="translate(0 -1.5)">
    <path id="Path_389" data-name="Path 389" d="M193.337.608a.374.374,0,0,0-.637.265V2.867a5.1,5.1,0,0,0-3.183,1.056,5.665,5.665,0,0,0-1.966,3.293,5.8,5.8,0,0,0-.067,1.9v0l0,.017.079.456a.374.374,0,0,0,.689.128l.238-.4A5.249,5.249,0,0,1,191.2,6.926a3.927,3.927,0,0,1,1.5-.22V8.771a.374.374,0,0,0,.639.263l3.949-3.969a.374.374,0,0,0,0-.528Zm0,0" transform="translate(-181.255 1)" fill="#fff"/>
    <path id="Path_390" data-name="Path 390" d="M13.947,67.79a.374.374,0,0,0-.374.374v1.579a1.122,1.122,0,0,1-1.121,1.121H1.868A1.122,1.122,0,0,1,.747,69.743v-8.9A1.122,1.122,0,0,1,1.868,59.72H4.452a.374.374,0,0,0,0-.747H1.868A1.87,1.87,0,0,0,0,60.841v8.9a1.871,1.871,0,0,0,1.868,1.868H12.453a1.871,1.871,0,0,0,1.868-1.868V68.164A.374.374,0,0,0,13.947,67.79Zm0,0" transform="translate(0 -56.112)" fill="#fff"/>
  </g>
</svg>
