<svg xmlns="http://www.w3.org/2000/svg" width="25.484" height="25" viewBox="0 0 25.484 25"><g transform="translate(0 -1)"><path d="M20.005,5.995H13.94a1.137,1.137,0,0,0-1.2,1.2,1.137,1.137,0,0,0,1.2,1.2h6.193a3.145,3.145,0,0,1,3.084,3.084v4.409a3.145,3.145,0,0,1-3.084,3.084H13.94A3.067,3.067,0,0,1,10.958,16.7L8.69,8.849,7.136,3.268A3.284,3.284,0,0,0,4.052,1H1.2A1.137,1.137,0,0,0,0,2.2,1.137,1.137,0,0,0,1.2,3.4H4.052a.906.906,0,0,1,.841.586L6.549,9.461,8.69,17.437a5.476,5.476,0,0,0,5.25,4.052h6.065a5.537,5.537,0,0,0,5.479-5.479V11.576A5.477,5.477,0,0,0,20.005,5.995Z" fill="#b1b1b1"/><path d="M42.841,89.7H41.9a1.2,1.2,0,1,0,0,2.4h.943a1.2,1.2,0,1,0,0-2.4Z" transform="translate(-30.328 -66.096)" fill="#b1b1b1"/><path d="M84.841,89.7H83.9a1.2,1.2,0,1,0,0,2.4h.943a1.137,1.137,0,0,0,1.2-1.2A1.124,1.124,0,0,0,84.841,89.7Z" transform="translate(-61.625 -66.096)" fill="#b1b1b1"/></g></svg>