<svg xmlns="http://www.w3.org/2000/svg" xmlns:xlink="http://www.w3.org/1999/xlink" width="88" height="88" viewBox="0 0 88 88"><defs><clipPath id="a"><path d="M0,0H31A18,18,0,0,1,49,18V50a0,0,0,0,1,0,0H0a0,0,0,0,1,0,0V0A0,0,0,0,1,0,0Z" transform="translate(0.214 -0.419)" fill="#16cb88"/></clipPath></defs><g transform="translate(-466 -491.581)"><path d="M18,0H70A18,18,0,0,1,88,18V70A18,18,0,0,1,70,88H18A18,18,0,0,1,0,70V18A18,18,0,0,1,18,0Z" transform="translate(466 491.581)" fill="#fe875c"/><path d="M0,0H39a0,0,0,0,1,0,0V31a0,0,0,0,1,0,0H18A18,18,0,0,1,0,13V0A0,0,0,0,1,0,0Z" transform="translate(466 548.581)" fill="#ffb497"/><g transform="translate(504.786 492)" clip-path="url(#a)"><circle cx="28.5" cy="28.5" r="28.5" transform="translate(0.214 -13.419)" fill="#feb595"/></g></g></svg>