<svg width="51" height="68" viewBox="0 0 51 68" fill="none" xmlns="http://www.w3.org/2000/svg">
<path d="M49.2001 49.4L44.1 43.1C43.6 42.4 43.3 41.6 43.3 40.7V27.7C43.3 19.6 37.9 12.4 30.1 10.2V5.09998C30.1 2.29998 27.8 0.0999756 25.1 0.0999756C22.4 0.0999756 20.1 2.39998 20.1 5.09998V10.1C12.2 12.4 6.80005 19.6 6.90005 27.7V40.7C6.90005 41.6 6.60005 42.4 6.10005 43.1L1.00005 49.4C0.600049 49.9 0.300049 50.6 0.300049 51.3V59.2H50.1V51.3C49.9 50.6 49.6001 49.9 49.2001 49.4ZM23 5.09998C23 3.99998 23.9 3.09998 25 3.09998C26.1 3.09998 27 3.99998 27 5.09998V9.59998C25.6 9.39998 24.3 9.39998 22.9 9.59998V5.09998H23ZM46.9001 56.1H3.10005V51.3L8.20005 45C9.20005 43.8 9.70005 42.3 9.70005 40.7V27.7C9.70005 19.3 16.5 12.4 25 12.4C33.5 12.4 40.3 19.2 40.3 27.7V40.7C40.3 42.3 40.8 43.8 41.8 45L46.9001 51.3V56.1Z" fill="#9B9C9C"/>
<path d="M23 15.8V18.8C29.1 18.8 34.1 23.8 34.1 29.9H37.1C37.1 22.1 30.8 15.8 23 15.8Z" fill="#9B9C9C"/>
<path d="M25 64.9C22.1 64.9 19.8 62.6 19.8 59.7H16.8C16.8 64.2 20.5 67.9 25 67.9C29.5 67.9 33.2001 64.2 33.2001 59.7H30.2001C30.2001 62.6 27.9 64.9 25 64.9Z" fill="#9B9C9C"/>
</svg>
