<svg xmlns="http://www.w3.org/2000/svg" width="15.276" height="20" viewBox="0 0 15.276 20"><g transform="translate(-60.467 0)"><path d="M227.619,124.339l-3.707-8.9a.524.524,0,0,0-.967,0l-3.707,8.9a4.539,4.539,0,1,0,8.38,0Z" transform="translate(-152.229 -110.625)" fill="#9be8fd"/><path d="M221.679,124.339l2.97-7.127-.737-1.769a.524.524,0,0,0-.967,0l-3.707,8.9a4.546,4.546,0,0,0,5.41,6.121A4.543,4.543,0,0,1,221.679,124.339Z" transform="translate(-152.229 -110.625)" fill="#62ddfc"/><path d="M65.648,120.59l-2.2-5.277a.311.311,0,0,0-.574,0l-2.2,5.277a2.693,2.693,0,1,0,4.971,0Z" transform="translate(0 -110.625)" fill="#9be8fd"/><path d="M62.351,120.524l1.635-3.924-.537-1.289a.311.311,0,0,0-.574,0l-2.2,5.277a2.7,2.7,0,0,0,3.423,3.563,2.7,2.7,0,0,1-1.748-3.627Z" transform="translate(0 -110.624)" fill="#62ddfc"/><path d="M189,3.148,187.731.11a.179.179,0,0,0-.33,0l-1.266,3.039a1.55,1.55,0,1,0,2.862,0Z" transform="translate(-120.642)" fill="#9be8fd"/><path d="M187.744,3.148l.626-1.5L187.731.11a.179.179,0,0,0-.33,0l-1.266,3.039a1.551,1.551,0,0,0,2.236,1.923,1.551,1.551,0,0,1-.626-1.922Z" transform="translate(-120.642)" fill="#62ddfc"/><g transform="translate(72.672 13.94)"><path d="M372.959,361.113a.3.3,0,0,1,.072-.421,2.825,2.825,0,0,0,.982-3.4.3.3,0,1,1,.557-.232,3.426,3.426,0,0,1-1.191,4.129A.3.3,0,0,1,372.959,361.113Z" transform="translate(-372.904 -356.87)" fill="#c9f0fe"/></g><g transform="translate(63.591 10.022)"><path d="M140.5,258.936a.3.3,0,0,1,.072-.421,1.262,1.262,0,0,0,.439-1.521.3.3,0,1,1,.557-.232,1.863,1.863,0,0,1-.648,2.246A.3.3,0,0,1,140.5,258.936Z" transform="translate(-140.446 -256.576)" fill="#c9f0fe"/></g></g></svg>