<svg xmlns="http://www.w3.org/2000/svg" xmlns:xlink="http://www.w3.org/1999/xlink" width="25" height="25" viewBox="0 0 25 25"><defs><linearGradient id="a" x1="-0.267" y1="0.151" x2="0.96" y2="0.848" gradientUnits="objectBoundingBox"><stop offset="0" stop-color="#3201a6"/><stop offset="1" stop-color="#4c01a6" stop-opacity="0"/></linearGradient><linearGradient id="b" x1="0.259" y1="0.268" x2="0.82" y2="0.78" xlink:href="#a"/></defs><circle cx="12.5" cy="12.5" r="12.5" fill="#6001d1"/><g transform="translate(7.783 6.063)"><path d="M49.968,55.242a.316.316,0,0,0-.048-.082L52.3,57.542l-.724,1.806Z" transform="translate(-49.492 -52.15)" fill="url(#a)"/><path d="M64.5,42.3,59.057,36.86a.313.313,0,0,1,.028.289l-2.278,5.612a.314.314,0,0,1-.291.2H54.363a.314.314,0,0,1-.291-.433l.669-1.653-.956-.954a.309.309,0,0,1,.013.265l-3.84,9.5a.313.313,0,0,1-.291.2H47.514a.313.313,0,0,1-.194-.067l5.929,5.921A12.5,12.5,0,0,0,64.537,43.3Q64.537,42.794,64.5,42.3Zm-9.964,5.109a1.743,1.743,0,1,1,1.742-1.743A1.743,1.743,0,0,1,54.534,47.409Z" transform="translate(-47.32 -36.86)" fill="url(#b)"/></g><g transform="translate(5.429 5.921)"><path d="M39.1,54.6l-1.656,4.11-1.6-4.112a.316.316,0,0,0-.293-.2H33.323a.314.314,0,0,0-.291.433l3,7.363-.766,1.9a.314.314,0,0,0,.291.438H37.71a.313.313,0,0,0,.291-.2l3.84-9.5a.314.314,0,0,0-.281-.433H39.394A.313.313,0,0,0,39.1,54.6Z" transform="translate(-33.009 -51.374)" fill="#fff"/><path d="M90.527,36.2a.314.314,0,0,1,.3-.2h2.156a.312.312,0,0,1,.291.431l-2.283,5.612a.314.314,0,0,1-.291.2H88.543a.314.314,0,0,1-.291-.433Z" transform="translate(-79.147 -36)" fill="#fff"/><circle cx="1.742" cy="1.742" r="1.742" transform="translate(7.826 7.197)" fill="#fff"/></g></svg>